<svg width="113" height="45" viewBox="0 0 113 45" fill="none" xmlns="http://www.w3.org/2000/svg">
<path d="M35.3637 26.8235C32.1662 23.7539 31.6077 18.8198 31.8927 18.5535C31.8927 18.5535 34.7983 20.7142 39.6508 22.6293C43.7578 24.25 43.1494 30.4289 43.1494 30.4289C43.1494 30.4289 38.5612 29.8933 35.3637 26.8235Z" fill="url(#paint0_linear_54740_24329)"/>
<path d="M43.1343 30.5488C43.0881 30.5434 38.4669 29.9729 35.2761 26.9093C32.5804 24.3214 31.6935 20.3455 31.7027 18.9291C31.7049 18.6046 31.7564 18.5132 31.8061 18.4666L31.8836 18.394L31.9688 18.4575C31.9978 18.479 34.9191 20.6313 39.6979 22.5174C43.8426 24.153 43.2794 30.3774 43.2735 30.4403L43.2613 30.5634L43.1343 30.5488ZM35.4515 26.7376C38.2828 29.4559 42.2688 30.1748 43.0345 30.2907C43.0899 29.4079 43.2573 24.1832 39.6037 22.7413C35.3787 21.074 32.5928 19.1969 31.9559 18.7488C31.8533 19.5821 32.569 23.9702 35.4515 26.7376Z" fill="url(#paint1_linear_54740_24329)"/>
<path d="M77.6363 27.1257C80.8338 24.0561 81.3923 19.122 81.1074 18.8557C81.1074 18.8557 78.2017 21.0165 73.3492 22.9315C69.2425 24.5523 69.8506 30.7313 69.8506 30.7313C69.8506 30.7313 74.4388 30.1955 77.6363 27.1257Z" fill="url(#paint2_linear_54740_24329)"/>
<path d="M69.7385 30.8657L69.7263 30.7426C69.7204 30.6799 69.1569 24.4553 73.302 22.8197C78.081 20.9336 81.0022 18.7813 81.031 18.7597L81.1162 18.6963L81.1938 18.7686C81.2434 18.8154 81.2949 18.9066 81.2971 19.2311C81.3063 20.6475 80.4192 24.6235 77.7237 27.2113C74.5329 30.2747 69.9117 30.8454 69.8655 30.8508L69.7385 30.8657ZM81.0437 19.0508C80.4067 19.4989 77.6209 21.376 73.3959 23.0433C69.7425 24.4852 69.9097 29.7099 69.9651 30.5927C70.731 30.4768 74.7168 29.758 77.5481 27.0396C80.4308 24.2725 81.1465 19.8843 81.0437 19.0508Z" fill="url(#paint3_linear_54740_24329)"/>
<path d="M67.9567 33.7094C66.3549 33.5291 64.8208 33.7122 63.5104 34.0208C64.514 33.3736 65.5378 32.5398 66.3993 31.4808C69.1859 28.0555 69.1181 23.0924 68.8016 22.8618C68.8016 22.8618 66.1902 25.3505 61.6156 27.8259C57.7439 29.921 59.1269 35.9814 59.1269 35.9814C59.1269 35.9814 59.3524 35.9272 59.732 35.8053C60.5173 36.8652 63.5859 40.5903 67.2547 39.5739C72.2923 38.1786 75.9546 38.1409 75.9546 38.1409C76.0088 37.7609 72.4274 34.2125 67.9567 33.7094Z" fill="url(#paint4_linear_54740_24329)"/>
<path d="M78.5601 29.369C74.0894 28.8659 70.1382 31.1884 70.1382 31.1884C70.1382 31.1884 73.5941 36.4143 77.8576 35.2332C82.8954 33.8378 86.5575 33.8005 86.5575 33.8005C86.6119 33.4205 83.0308 29.872 78.5601 29.369Z" fill="url(#paint5_linear_54740_24329)"/>
<path d="M88.4794 26.0397C86.9096 25.8628 85.416 26.1212 84.2136 26.4777C85.1571 25.8131 86.2033 24.8708 86.9418 23.6201C88.6299 20.7611 87.9313 17.0179 87.6591 16.8745C87.6591 16.8745 85.9829 19.0085 82.8013 21.3236C80.5289 22.977 81.4909 26.4001 81.8464 27.4286C81.6064 27.5539 81.4727 27.6352 81.4727 27.6352C81.4727 27.6352 84.3259 32.1234 87.874 31.092C92.0659 29.8733 95.1099 29.8284 95.1099 29.8284C95.1568 29.5007 92.1934 26.4576 88.4794 26.0397Z" fill="url(#paint6_linear_54740_24329)"/>
<path d="M96.8116 21.7362C95.2867 21.5645 93.8384 21.832 92.6939 22.1855C93.4439 21.2281 94.2369 19.918 94.5725 18.3715C95.2909 15.0612 93.389 11.6168 93.076 11.5598C93.076 11.5598 92.1332 14.1583 89.7778 17.3941C88.3454 19.3621 89.6228 21.8665 90.4553 23.1204C90.3358 23.186 90.2702 23.2259 90.2702 23.2259C90.2702 23.2259 92.9339 27.4159 96.2461 26.453C100.16 25.3153 103.002 25.2734 103.002 25.2734C103.046 24.9675 100.279 22.1263 96.8116 21.7362Z" fill="url(#paint7_linear_54740_24329)"/>
<path d="M101.906 17.6829C100.338 17.6693 98.927 18.1835 97.9429 18.67C98.5379 17.7486 99.2579 16.3151 99.3478 14.6658C99.5038 11.8033 97.4478 9.15979 97.178 9.15161C97.178 9.15161 96.7383 11.4464 95.2018 14.4536C94.1927 16.428 95.9126 18.5261 96.7343 19.3678C96.6072 19.4548 96.5336 19.5103 96.5336 19.5103C96.5336 19.5103 99.1679 22.8078 101.869 21.7067C105.061 20.4057 107.451 20.1221 107.451 20.1221C107.46 19.8605 104.864 17.7087 101.906 17.6829Z" fill="url(#paint8_linear_54740_24329)"/>
<path d="M105.539 13.0323C104.441 13.2089 103.49 13.679 102.77 14.1474C103.13 13.3617 103.46 12.3305 103.435 11.2047C103.382 8.7754 101.473 6.66567 101.244 6.67508C101.244 6.67508 101.021 8.64164 99.9168 11.277C99.2274 12.9218 100.629 14.5108 101.413 15.2322C101.358 15.2871 101.328 15.3191 101.328 15.3191C101.328 15.3191 104.026 17.6988 106.115 16.3966C108.583 14.8581 110.537 14.2822 110.537 14.2822C110.504 14.0632 108.012 12.6344 105.539 13.0323Z" fill="url(#paint9_linear_54740_24329)"/>
<path d="M105.095 10.3803C105.07 10.4068 105.052 10.4254 105.052 10.4254C105.052 10.4254 107.326 12.6077 109.104 11.4838C111.204 10.1561 112.863 9.67954 112.863 9.67954C112.836 9.48262 110.732 8.15515 108.633 8.46231C107.479 8.63124 106.514 9.2069 105.877 9.69167C106.177 8.99511 106.486 7.96217 106.341 6.86681C106.083 4.91313 104.27 3.38205 104.076 3.40979C104.076 3.40979 104.058 5.01519 103.346 7.23787C102.875 8.70951 104.405 9.9218 105.095 10.3803Z" fill="url(#paint10_linear_54740_24329)"/>
<path d="M65.977 39.8695C62.9295 39.8698 60.4954 37.0249 59.6841 35.9473C59.3574 36.0496 59.1654 36.0962 59.1567 36.0984L59.0325 36.1282L59.0049 36.0073C58.9907 35.9456 57.647 29.8344 61.5545 27.72C66.0602 25.2823 68.6881 22.8002 68.7142 22.7755L68.7907 22.7026L68.8766 22.7653C68.9318 22.8057 68.9941 22.8902 69.0374 23.2109C69.2259 24.6152 68.8478 28.6662 66.4972 31.5555C65.8394 32.3647 65.0337 33.1081 64.0976 33.7715C65.4414 33.5128 66.7424 33.4517 67.9716 33.5897C71.7415 34.0137 74.9706 36.6122 75.8649 37.7323C76.0696 37.9887 76.0875 38.0912 76.0781 38.1579L76.0632 38.2607L75.9558 38.2619C75.9196 38.2624 72.2505 38.3159 67.2892 39.6902C66.8415 39.8138 66.4033 39.8695 65.977 39.8695ZM59.7795 35.6627L59.8331 35.7348C60.6651 36.8579 63.6584 40.444 67.2201 39.4581C71.6173 38.2401 75.0103 38.0529 75.7857 38.0251C75.3586 37.3338 71.9899 34.2852 67.9426 33.8299C66.5553 33.6736 65.074 33.7777 63.5402 34.1386L62.853 34.3003L63.4415 33.9206C64.5793 33.1866 65.5415 32.3407 66.3014 31.4061C68.8138 28.3179 68.9708 23.8778 68.7636 23.0635C68.1877 23.5837 65.6595 25.7762 61.6762 27.9313C58.2315 29.7953 59.0565 34.9622 59.223 35.8309C59.3256 35.8029 59.4863 35.7566 59.6925 35.6905L59.7795 35.6627Z" fill="url(#paint11_linear_54740_24329)"/>
<path d="M76.5994 35.5251C75.195 35.5251 73.737 34.9231 72.3177 33.7455C70.923 32.5887 70.0416 31.2669 70.0329 31.2538L69.9641 31.1495L70.0732 31.0854C70.1132 31.0623 74.1101 28.7465 78.5744 29.2491C82.3445 29.6734 85.5738 32.2719 86.4681 33.3923C86.6724 33.6487 86.6902 33.751 86.6808 33.8176L86.6659 33.9204L86.5586 33.9216C86.5223 33.9221 82.8533 33.9756 77.8919 35.3499C77.4681 35.4668 77.0364 35.5251 76.5994 35.5251ZM70.3161 31.2288C70.8351 31.9566 74.0314 36.1656 77.8231 35.1173C82.2203 33.8993 85.6133 33.7121 86.3887 33.6843C85.9614 32.9932 82.5924 29.9447 78.5455 29.4891C74.5849 29.043 70.9924 30.8615 70.3161 31.2288Z" fill="url(#paint12_linear_54740_24329)"/>
<path d="M86.8128 31.365C83.7367 31.365 81.3926 27.7395 81.3668 27.6986L81.3019 27.5966L81.4065 27.5329C81.4065 27.5329 81.5088 27.471 81.6952 27.3712C81.3163 26.2315 80.4548 22.88 82.7264 21.2273C85.8578 18.9486 87.5432 16.8228 87.5598 16.8015L87.6246 16.719L87.7185 16.7685C87.7739 16.798 87.8423 16.8661 87.9255 17.1505C88.2477 18.2511 88.4579 21.2956 87.0495 23.6801C86.507 24.5993 85.7515 25.443 84.7985 26.1938C86.0824 25.8805 87.3223 25.7878 88.4931 25.9196C91.5871 26.2679 94.2276 28.4329 95.0218 29.4267C95.224 29.6803 95.2422 29.7804 95.233 29.8448L95.2183 29.9473L95.1115 29.9491C95.0812 29.9496 92.0342 30.0083 87.9093 31.2074C87.5362 31.3162 87.1698 31.365 86.8128 31.365ZM81.648 27.6746C82.1009 28.3316 84.7208 31.8807 87.8383 30.9761C91.4482 29.9265 94.244 29.7435 94.9408 29.713C94.5525 29.0933 91.8159 26.5367 88.4651 26.1596C87.1407 26.0103 85.7229 26.1562 84.2502 26.5931L83.5375 26.8044L84.1404 26.3799C85.3085 25.5572 86.2148 24.6083 86.8339 23.5599C88.3505 20.9912 87.9193 17.7556 87.648 17.0824C87.2227 17.5892 85.5823 19.4512 82.8764 21.42C80.6707 23.0252 81.6209 26.3955 81.9647 27.39L81.998 27.4866L81.9058 27.5349C81.7963 27.5921 81.7096 27.6397 81.648 27.6746Z" fill="url(#paint13_linear_54740_24329)"/>
<path d="M95.2561 26.7159C92.3795 26.7159 90.1884 23.3275 90.1641 23.2893L90.0992 23.1873L90.2041 23.1236C90.2041 23.1236 90.2306 23.1075 90.2806 23.079C89.4061 21.728 88.2504 19.2829 89.6762 17.325C91.9942 14.1397 92.9489 11.5457 92.9584 11.52L92.9939 11.4224L93.099 11.4414C93.1623 11.4531 93.2505 11.4989 93.4242 11.7508C94.0972 12.7275 95.2936 15.6379 94.6944 18.3968C94.4311 19.6111 93.8669 20.8098 93.0163 21.9653C94.3426 21.5987 95.623 21.4825 96.8261 21.6165C99.7171 21.942 102.184 23.9653 102.927 24.8942C103.118 25.1333 103.134 25.2286 103.126 25.2903L103.111 25.3929L103.004 25.3946C102.976 25.3951 100.132 25.4498 96.2821 26.5692C95.9326 26.6703 95.5895 26.7159 95.2561 26.7159ZM90.4455 23.2653C90.8813 23.8957 93.3146 27.1766 96.2105 26.3374C99.5584 25.3639 102.157 25.1885 102.83 25.1583C102.444 24.5705 99.8798 22.2029 96.7973 21.8561C95.5204 21.7112 94.1523 21.8618 92.7316 22.3005L92.3564 22.4164L92.5947 22.1122C93.5479 20.8957 94.1724 19.6287 94.4507 18.3468C95.0854 15.4219 93.6058 12.3347 93.1308 11.7615C92.8829 12.3812 91.8869 14.7065 89.8799 17.464C88.5003 19.3589 89.7139 21.7805 90.5606 23.055L90.6316 23.1623L90.5171 23.2252C90.4903 23.24 90.4664 23.2531 90.4455 23.2653Z" fill="url(#paint14_linear_54740_24329)"/>
<path d="M100.71 22.0555C98.4405 22.0558 96.529 19.7013 96.4354 19.5839L96.3594 19.489L96.4573 19.415C96.4573 19.415 96.4891 19.3909 96.5469 19.3496C95.6963 18.4502 94.083 16.3714 95.0907 14.3996C96.6008 11.4442 97.0515 9.15219 97.056 9.1294L97.0753 9.02759L97.1822 9.03055C97.2405 9.03253 97.325 9.06028 97.5089 9.25374C98.2057 9.98819 99.6028 12.279 99.4724 14.6719C99.3919 16.1502 98.8119 17.4588 98.2648 18.3843C99.1949 17.9684 100.486 17.5445 101.908 17.5621C104.379 17.5834 106.653 19.0761 107.366 19.7955C107.555 19.9852 107.578 20.0687 107.576 20.1254L107.573 20.2289L107.467 20.2413C107.443 20.244 105.054 20.5388 101.918 21.8175C101.51 21.9845 101.104 22.0555 100.71 22.0555ZM96.7129 19.5312C97.17 20.0568 99.4945 22.5428 101.821 21.5951C104.507 20.5004 106.654 20.1192 107.263 20.0266C106.842 19.546 104.502 17.8264 101.905 17.8039C101.886 17.8036 101.866 17.8036 101.846 17.8036C100.298 17.8036 98.9023 18.3315 97.9997 18.7776L97.5985 18.9758L97.8375 18.6057C98.4211 17.7018 99.1351 16.2834 99.2237 14.6592C99.3596 12.1675 97.7615 9.81727 97.2629 9.34911C97.1265 9.9446 96.6003 11.9897 95.3142 14.5066C94.3364 16.4202 96.0451 18.4853 96.8254 19.2842L96.9243 19.3857L96.8068 19.466C96.771 19.4908 96.7395 19.5126 96.7129 19.5312Z" fill="url(#paint15_linear_54740_24329)"/>
<path d="M104.708 16.9116C102.974 16.9116 101.332 15.4863 101.244 15.4088L101.152 15.3275L101.236 15.2383C101.236 15.2383 101.236 15.2376 101.237 15.2364C100.365 14.409 99.1186 12.8604 99.8013 11.2317C100.886 8.64164 101.118 6.68152 101.12 6.66195L101.132 6.55915L101.239 6.55444C101.294 6.55519 101.371 6.57153 101.543 6.72808C102.182 7.30822 103.515 9.1648 103.56 11.2019C103.578 12.0521 103.403 12.9366 103.039 13.8373C103.853 13.3575 104.686 13.0469 105.518 12.9129C107.591 12.5794 109.721 13.5064 110.428 14.0077C110.618 14.143 110.652 14.2116 110.66 14.2656L110.675 14.3679L110.573 14.3981C110.553 14.4038 108.606 14.9882 106.182 16.4984C105.706 16.7957 105.203 16.9116 104.708 16.9116ZM101.509 15.3102C102.002 15.707 104.28 17.3971 106.048 16.2953C108.088 15.0241 109.799 14.4001 110.33 14.2223C109.867 13.872 107.699 12.8061 105.559 13.1517C104.646 13.2988 103.731 13.6676 102.839 14.248L102.48 14.4816L102.656 14.0986C103.111 13.1071 103.331 12.1343 103.311 11.2074C103.265 9.12912 101.818 7.27924 101.342 6.873C101.257 7.42489 100.938 9.16033 100.032 11.3231C99.3817 12.8755 100.672 14.384 101.499 15.1452L101.59 15.2289L101.509 15.3102Z" fill="url(#paint16_linear_54740_24329)"/>
<path d="M107.966 11.9298C106.465 11.9298 105.04 10.5835 104.965 10.5109L104.881 10.4304L104.908 10.4007C104.16 9.87951 102.756 8.67193 103.227 7.20178C103.925 5.02121 103.951 3.42423 103.951 3.40813L103.953 3.30532L104.057 3.29022C104.114 3.28056 104.193 3.29468 104.392 3.44058C104.891 3.80694 106.238 5.13416 106.465 6.85102C106.588 7.78662 106.388 8.67638 106.146 9.34817C106.766 8.92979 107.622 8.48764 108.614 8.34223C110.456 8.07124 112.216 9.00361 112.737 9.38533C112.943 9.53594 112.978 9.60777 112.986 9.66326L113 9.76531L112.898 9.79454C112.881 9.79924 111.231 10.2828 109.172 11.5842C108.781 11.8319 108.371 11.9298 107.966 11.9298ZM105.228 10.4183C105.654 10.7911 107.553 12.3194 109.036 11.3824C110.745 10.3023 112.181 9.77621 112.658 9.61718C112.246 9.29169 110.429 8.32291 108.651 8.58152C107.512 8.74847 106.556 9.3291 105.954 9.78662L105.579 10.0725L105.762 9.64518C106.049 8.97934 106.36 7.95976 106.218 6.88223C105.996 5.20178 104.636 3.91024 104.193 3.59961C104.164 4.09057 104.035 5.49407 103.465 7.27385C103.018 8.67043 104.505 9.8416 105.165 10.2805L105.284 10.3593L105.228 10.4183Z" fill="url(#paint17_linear_54740_24329)"/>
<path d="M108.147 5.53125C107.464 6.82875 106.713 8.09007 105.898 9.30954C105.091 10.5342 104.198 11.7026 103.257 12.8287C101.405 15.0876 99.2369 17.1302 96.8935 18.9082C95.7209 19.7977 94.5014 20.6246 93.2367 21.3804C89.4735 23.6288 85.2244 25.2887 81.0217 26.6902C78.1877 27.6328 75.3037 28.4594 72.4239 29.3541C72.0644 29.4658 71.7055 29.5827 71.3462 29.6989C68.8239 30.5139 66.3183 31.4284 63.9245 32.5547C62.5511 33.2007 61.185 33.8886 59.8813 34.6583C58.5639 35.4155 57.3024 36.2696 56.0945 37.1836L55.2012 37.8849C53.1824 39.4697 51.3168 41.5515 49.9243 43.713C49.9959 43.8135 50.4361 44.001 50.5205 43.9104C52.2277 42.0826 53.8718 40.2391 55.9201 38.7851L56.8418 38.1839C58.0787 37.4026 59.3425 36.6639 60.6556 36.007C61.9733 35.3481 63.3069 34.6989 64.675 34.1435C66.0306 33.5597 67.4131 33.0276 68.8026 32.5077L69.8457 32.1185L70.8948 31.74C71.5956 31.4883 72.2977 31.2357 73.0035 30.9904C75.8207 29.9914 78.6706 29.0291 81.5082 28.0065C83.6367 27.2394 85.7612 26.4073 87.8147 25.4673L88.3307 25.231C89.8821 24.5205 91.3804 23.712 92.8414 22.8411L93.8021 22.2384C95.074 21.4212 96.296 20.5332 97.4634 19.5855C100.919 16.7284 103.924 13.3056 106.222 9.50472C106.987 8.23968 107.684 6.93823 108.309 5.6068L108.147 5.53125Z" fill="url(#paint18_linear_54740_24329)"/>
<path d="M50.4412 44.0549C50.4325 44.0549 50.4233 44.0547 50.4141 44.0539C50.2397 44.0428 49.9088 43.9031 49.8218 43.7812L49.7754 43.7158L49.8186 43.6487C51.2424 41.4389 53.1262 39.3584 55.1228 37.7906L56.0161 37.0894C57.2945 36.1218 58.573 35.2695 59.8176 34.5541C60.9658 33.8761 62.2542 33.2058 63.8697 32.4456C65.9952 31.4458 68.3583 30.5365 71.3066 29.5841L71.4502 29.5375C71.762 29.4367 72.0732 29.3358 72.3853 29.239C73.3812 28.9296 74.3774 28.6282 75.3719 28.3277C77.2187 27.7693 79.1281 27.1922 80.9809 26.5759C84.2084 25.4996 88.9837 23.7793 93.1707 21.2774C94.4128 20.5353 95.6391 19.7062 96.8159 18.8132C99.2291 16.9824 101.363 14.9438 103.159 12.7535C104.182 11.5299 105.043 10.3825 105.792 9.24426C106.603 8.03073 107.358 6.7632 108.035 5.47611L108.091 5.37134L108.473 5.5487L108.422 5.65645C107.797 6.98714 107.093 8.30247 106.33 9.56553C104.044 13.3451 101.088 16.7471 97.544 19.677C96.3625 20.6364 95.1271 21.5313 93.8708 22.3386L92.9089 22.9418C91.3229 23.887 89.8435 24.6708 88.3838 25.3393L88.3828 25.3376C88.3351 25.3616 88.2121 25.4179 87.8678 25.5756C86.0264 26.4188 83.9603 27.2506 81.5513 28.1189C79.9211 28.7064 78.2618 29.2828 76.6572 29.8399C75.4499 30.2593 74.245 30.6777 73.0461 31.103C72.3952 31.3294 71.7486 31.5615 71.1029 31.7934L69.8891 32.2311L68.8469 32.6197C67.6035 33.0852 66.1416 33.6432 64.7253 34.2534C63.431 34.779 62.1853 35.3772 60.7124 36.1139C59.5272 36.7067 58.2835 37.4166 56.9097 38.2846L55.9896 38.885C54.1435 40.1954 52.6562 41.7948 51.0816 43.4879L50.6131 43.991C50.5736 44.0336 50.516 44.0549 50.4412 44.0549ZM50.0872 43.6888C50.1868 43.747 50.3622 43.8097 50.4424 43.8142L50.8965 43.3264C52.4105 41.6987 53.9758 40.0155 55.8465 38.6876L56.7724 38.0834C58.1549 37.21 59.4062 36.4961 60.5984 35.8996C62.0768 35.1602 63.3274 34.5598 64.6269 34.0319C66.0459 33.4205 67.5116 32.8612 68.758 32.3945L71.0169 31.5672C71.6633 31.3351 72.311 31.1025 72.9619 30.8761C74.1605 30.451 75.3659 30.0324 76.574 29.6128C78.1779 29.0559 79.8364 28.4798 81.4655 27.8927C83.8673 27.0267 85.9273 26.1976 87.7619 25.3574C87.7619 25.3574 88.2613 25.1288 88.2769 25.1214C89.7297 24.4563 91.2012 23.6767 92.7767 22.7374L93.7349 22.1362C94.982 21.3349 96.21 20.4449 97.3838 19.4922C100.906 16.5806 103.844 13.1992 106.115 9.44292C106.615 8.61656 107.089 7.76791 107.532 6.90687C107.05 7.7466 106.539 8.57222 106.003 9.37429C105.249 10.5192 104.382 11.6743 103.355 12.9039C101.547 15.108 99.3993 17.1603 96.9709 19.0025C95.7867 19.9011 94.5525 20.7354 93.3029 21.4823C89.0948 23.9965 84.3018 25.7233 81.0631 26.8033C79.2068 27.4206 77.2957 27.9985 75.4471 28.5573C74.4534 28.8578 73.4577 29.1588 72.4625 29.4679C72.1515 29.5647 71.841 29.6653 71.5302 29.7656L71.3866 29.8122C68.4487 30.7612 66.0951 31.6668 63.9797 32.6621C62.3712 33.4186 61.0895 34.0857 59.947 34.7599C58.7103 35.4709 57.4406 36.3175 56.1721 37.2774L55.2805 37.9774C53.3304 39.509 51.4895 41.534 50.0872 43.6888Z" fill="url(#paint19_linear_54740_24329)"/>
<path d="M110.494 5.13954C111.799 3.36224 111.81 1.00256 111.667 0.909424C111.667 0.909424 111.158 1.73751 109.042 3.15614C107.251 4.35678 107.126 7.66393 107.126 7.66393C107.126 7.66393 109.19 6.91685 110.494 5.13954Z" fill="url(#paint20_linear_54740_24329)"/>
<path d="M106.994 7.84057L107.001 7.65949C107.007 7.52226 107.15 4.27778 108.971 3.05683C111.029 1.6771 111.555 0.855446 111.56 0.84752L111.628 0.73877L111.737 0.809375C111.783 0.839595 111.81 0.892109 111.828 0.985495C111.912 1.43261 111.822 3.53937 110.596 5.20991C109.284 6.99688 107.255 7.74644 107.169 7.7774L106.994 7.84057ZM111.605 1.19456C111.319 1.53367 110.618 2.24608 109.113 3.25549C107.638 4.24434 107.324 6.76229 107.264 7.47693C107.791 7.24978 109.349 6.4913 110.393 5.0697C111.435 3.65033 111.639 1.83166 111.605 1.19456Z" fill="url(#paint21_linear_54740_24329)"/>
<path d="M45.0429 33.4074C46.6448 33.2271 48.1788 33.4102 49.4893 33.7188C48.4856 33.0716 47.4619 32.2378 46.6006 31.1788C43.8139 27.7535 43.8818 22.7904 44.1983 22.5598C44.1983 22.5598 46.8097 25.0485 51.3843 27.5239C55.256 29.619 53.873 35.6794 53.873 35.6794C53.873 35.6794 53.6475 35.6252 53.2681 35.5033C52.4828 36.5632 49.4142 40.2883 45.7455 39.2719C40.7079 37.8766 37.0455 37.8389 37.0455 37.8389C36.9909 37.4587 40.5722 33.9103 45.0429 33.4074Z" fill="url(#paint22_linear_54740_24329)"/>
<path d="M34.4399 29.0667C38.9106 28.5636 42.8621 30.8861 42.8621 30.8861C42.8621 30.8861 39.4062 36.112 35.1427 34.9309C30.1048 33.5356 26.4428 33.4982 26.4428 33.4982C26.3881 33.1182 29.9692 29.57 34.4399 29.0667Z" fill="url(#paint23_linear_54740_24329)"/>
<path d="M24.5202 25.7377C26.0901 25.5608 27.5836 25.8192 28.786 26.1757C27.8425 25.5111 26.7963 24.5688 26.0578 23.3181C24.3697 20.4593 25.0683 16.7159 25.3405 16.5725C25.3405 16.5725 27.0167 18.7065 30.1983 21.0216C32.4707 22.675 31.5088 26.0981 31.1533 27.1266C31.3932 27.2519 31.5266 27.3332 31.5266 27.3332C31.5266 27.3332 28.6735 31.8214 25.1254 30.7899C20.9334 29.5712 17.8895 29.5264 17.8895 29.5264C17.8428 29.1989 20.8062 26.1558 24.5202 25.7377Z" fill="url(#paint24_linear_54740_24329)"/>
<path d="M16.1884 21.4339C17.7132 21.2622 19.1616 21.5298 20.3061 21.8833C19.5561 20.9259 18.7631 19.6157 18.4275 18.0693C17.709 14.7589 19.611 11.3145 19.924 11.2576C19.924 11.2576 20.8668 13.856 23.2221 17.0918C24.6545 19.0599 23.3771 21.5642 22.5447 22.8181C22.6641 22.8837 22.7297 22.9236 22.7297 22.9236C22.7297 22.9236 20.0661 27.1136 16.7538 26.1508C12.8401 25.0131 9.99831 24.9712 9.99831 24.9712C9.95459 24.6655 12.7213 21.8243 16.1884 21.4339Z" fill="url(#paint25_linear_54740_24329)"/>
<path d="M11.0933 17.3812C12.6616 17.3675 14.0727 17.8818 15.0567 18.3683C14.4617 17.4468 13.7417 16.0133 13.6518 14.3641C13.4958 11.5016 15.5518 8.85803 15.8216 8.84985C15.8216 8.84985 16.2613 11.1446 17.7978 14.1518C18.8067 16.1263 17.0871 18.2244 16.2653 19.0661C16.3925 19.153 16.466 19.2083 16.466 19.2083C16.466 19.2083 13.8317 22.5058 11.1305 21.4047C7.93897 20.1037 5.54861 19.8201 5.54861 19.8201C5.53991 19.5588 8.13548 17.4067 11.0933 17.3812Z" fill="url(#paint26_linear_54740_24329)"/>
<path d="M7.461 12.7303C8.55855 12.9069 9.51003 13.377 10.23 13.8454C9.8695 13.0597 9.53984 12.0285 9.56444 10.9027C9.6176 8.4734 11.5268 6.36366 11.7553 6.37332C11.7553 6.37332 11.9784 8.33988 13.0829 10.9752C13.7723 12.62 12.3707 14.2091 11.5869 14.9304C11.6418 14.9854 11.6714 15.0173 11.6714 15.0173C11.6714 15.0173 8.97392 17.3971 6.8849 16.0951C4.41627 14.5566 2.46313 13.9807 2.46313 13.9807C2.49543 13.7612 4.98741 12.3324 7.461 12.7303Z" fill="url(#paint27_linear_54740_24329)"/>
<path d="M7.90504 10.0783C7.93013 10.1048 7.94727 10.1234 7.94727 10.1234C7.94727 10.1234 5.67366 12.3057 3.89592 11.1818C1.79546 9.85412 0.137207 9.37753 0.137207 9.37753C0.16354 9.1806 2.26822 7.85313 4.36669 8.16029C5.52014 8.32923 6.48528 8.9049 7.12249 9.38967C6.82289 8.69311 6.51385 7.66017 6.65843 6.56481C6.9163 4.61113 8.72932 3.08005 8.92335 3.10779C8.92335 3.10779 8.94173 4.71318 9.65347 6.93587C10.1247 8.40726 8.59443 9.6198 7.90504 10.0783Z" fill="url(#paint28_linear_54740_24329)"/>
<path d="M45.711 39.388C40.7496 38.0137 37.0806 37.9602 37.0443 37.9597L36.937 37.9585L36.9221 37.8556C36.9127 37.789 36.9303 37.6865 37.1353 37.4301C38.0296 36.3099 41.2587 33.7112 45.0286 33.2872C46.2578 33.1494 47.5588 33.2104 48.9025 33.4692C47.9662 32.8059 47.1608 32.0625 46.5027 31.2532C44.1521 28.364 43.774 24.3129 43.9626 22.9087C44.0055 22.5879 44.0679 22.5035 44.1233 22.4631L44.2092 22.4004L44.2858 22.4732C44.3118 22.498 46.9397 24.98 51.4454 27.4177C55.353 29.5322 54.0092 35.6434 53.9951 35.705L53.9675 35.8259L53.8433 35.7962C53.8346 35.794 53.6425 35.7477 53.3159 35.6451C52.5042 36.7226 50.0701 39.5676 47.0229 39.5673C46.5966 39.5676 46.1584 39.5118 45.711 39.388ZM53.3074 35.3885C53.5134 35.4546 53.6743 35.5007 53.7769 35.5289C53.9431 34.66 54.7684 29.4933 51.3237 27.6293C47.3404 25.4742 44.8122 23.2817 44.2363 22.7616C44.0294 23.5758 44.1861 28.0159 46.6985 31.1041C47.4584 32.0387 48.4206 32.8846 49.5584 33.6186L50.1469 33.9983L49.4598 33.8366C47.926 33.4754 46.4446 33.3716 45.0574 33.5279C41.01 33.9832 37.6413 37.0318 37.2143 37.7231C37.9896 37.7506 41.3826 37.9381 45.7798 39.1561C49.3415 40.142 52.3348 36.5559 53.1668 35.4328L53.2205 35.361L53.3074 35.3885Z" fill="url(#paint29_linear_54740_24329)"/>
<path d="M35.108 35.0474C30.1466 33.6731 26.4776 33.6196 26.4413 33.6191L26.334 33.6179L26.3191 33.5151C26.3097 33.4485 26.3273 33.3461 26.5318 33.0898C27.4261 31.9696 30.6554 29.3712 34.4255 28.9469C38.8895 28.4443 42.8867 30.7601 42.9267 30.7831L43.0358 30.8473L42.967 30.9516C42.9583 30.9647 42.0769 32.2865 40.6822 33.4433C39.2629 34.6209 37.8047 35.2228 36.4005 35.2228C35.9633 35.223 35.5315 35.1646 35.108 35.0474ZM34.4541 29.1871C30.4072 29.6427 27.0383 32.6912 26.611 33.3823C27.3863 33.4101 30.7794 33.5973 35.1765 34.8153C38.968 35.8636 42.1646 31.6546 42.6835 30.9268C42.0073 30.5594 38.4148 28.7408 34.4541 29.1871Z" fill="url(#paint30_linear_54740_24329)"/>
<path d="M25.0899 30.9049C20.965 29.7058 17.9181 29.6471 17.8878 29.6466L17.7809 29.6448L17.7663 29.5423C17.7571 29.4779 17.775 29.3778 17.9774 29.1242C18.7717 28.1304 21.4122 25.9654 24.5061 25.6171C25.6769 25.4853 26.9169 25.578 28.2007 25.8913C27.248 25.1405 26.4923 24.2968 25.9497 23.3776C24.5416 20.9932 24.7516 17.9486 25.0738 16.848C25.157 16.5636 25.2253 16.4955 25.2807 16.466L25.3746 16.4165L25.4395 16.499C25.4563 16.5203 27.1414 18.6461 30.2729 20.9248C32.5445 22.5775 31.6829 25.929 31.3041 27.0684C31.4907 27.1683 31.5928 27.2305 31.5928 27.2305L31.6973 27.2941L31.6325 27.3962C31.6064 27.437 29.2623 31.0625 26.1865 31.0625C25.8302 31.0627 25.4638 31.0137 25.0899 30.9049ZM31.0942 27.2329L31.0017 27.1846L31.035 27.088C31.3789 26.0932 32.3293 22.7231 30.1233 21.118C27.4172 19.1492 25.7771 17.2872 25.3518 16.7804C25.0805 17.4537 24.649 20.6892 26.1659 23.2582C26.7849 24.3065 27.6912 25.2555 28.8593 26.0781L29.4622 26.5027L28.7495 26.2914C27.2768 25.8544 25.859 25.7085 24.5347 25.8579C21.1841 26.2347 18.4475 28.7915 18.0589 29.4113C18.7555 29.4417 21.5516 29.6248 25.1615 30.6743C28.279 31.579 30.8989 28.0298 31.3518 27.3729C31.2902 27.3374 31.2035 27.2897 31.0942 27.2329Z" fill="url(#paint31_linear_54740_24329)"/>
<path d="M16.7178 26.2665C12.8677 25.1471 10.0242 25.0923 9.99583 25.0919L9.88901 25.0901L9.87435 24.9876C9.86566 24.9256 9.88205 24.8303 10.0733 24.5912C10.8156 23.6623 13.283 21.6391 16.1737 21.3136C17.3769 21.1796 18.6573 21.2957 19.9836 21.6623C19.1327 20.507 18.5688 19.3081 18.3055 18.0939C17.7065 15.3349 18.9027 12.4246 19.5757 11.4478C19.7493 11.1957 19.8375 11.1501 19.9009 11.1384L20.006 11.1194L20.0415 11.217C20.0507 11.243 21.0054 13.8367 23.3237 17.022C24.7494 18.9799 23.5938 21.425 22.7193 22.776C22.7692 22.8045 22.7958 22.8206 22.7958 22.8206L22.9004 22.8843L22.8356 22.9863C22.8112 23.0245 20.6198 26.4129 17.7435 26.4129C17.4102 26.4139 17.0671 26.3683 16.7178 26.2665ZM22.4828 22.9232L22.3683 22.8603L22.4393 22.7527C23.2857 21.478 24.4993 19.0567 23.12 17.1617C21.113 14.4042 20.117 12.079 19.8691 11.4592C19.3943 12.0324 17.9145 15.1196 18.5492 18.0446C18.8272 19.3264 19.4517 20.5935 20.4052 21.81L20.6434 22.1142L20.2683 21.9982C18.8476 21.5595 17.4795 21.4089 16.2025 21.5538C13.1201 21.9009 10.5558 24.2682 10.1702 24.856C10.8432 24.8862 13.4415 25.0616 16.7893 26.0351C19.685 26.8744 22.1186 23.5935 22.5541 22.963C22.5332 22.9512 22.5094 22.9378 22.4828 22.9232Z" fill="url(#paint32_linear_54740_24329)"/>
<path d="M11.0819 21.5157C7.94521 20.2371 5.55683 19.9423 5.53323 19.9396L5.42715 19.9272L5.42367 19.8236C5.42193 19.7669 5.44528 19.6835 5.63359 19.4937C6.34707 18.7741 8.62044 17.2814 11.092 17.2604C12.5133 17.243 13.8046 17.6669 14.7347 18.0825C14.1877 17.1573 13.6076 15.8484 13.5271 14.3701C13.3967 11.9772 14.7939 9.68645 15.4907 8.95199C15.6745 8.75853 15.759 8.73054 15.8174 8.72881L15.9242 8.72583L15.9436 8.82764C15.9481 8.85043 16.3987 11.1427 17.9089 14.0979C18.9165 16.0696 17.303 18.1484 16.4526 19.0478C16.5105 19.0892 16.5423 19.1132 16.5423 19.1132L16.6402 19.1873L16.5642 19.2822C16.4705 19.3996 14.5591 21.754 12.29 21.7538C11.896 21.7535 11.49 21.6822 11.0819 21.5157ZM16.1935 19.1643L16.076 19.084L16.1749 18.9824C16.9549 18.1833 18.6639 16.1182 17.6861 14.2049C16.3999 11.6879 15.8738 9.64261 15.7374 9.04736C15.2388 9.51553 13.6407 11.8658 13.7766 14.3575C13.8652 15.9814 14.5795 17.4001 15.1628 18.304L15.4018 18.674L15.0006 18.4759C14.098 18.0298 12.7026 17.5019 11.1541 17.5019C11.1345 17.5019 11.1146 17.5019 11.095 17.5021C8.49871 17.5247 6.15852 19.2443 5.73743 19.7248C6.34608 19.8175 8.49324 20.1987 11.179 21.2936C13.506 22.2413 15.8303 19.755 16.2874 19.2296C16.2603 19.2106 16.229 19.1888 16.1935 19.1643Z" fill="url(#paint33_linear_54740_24329)"/>
<path d="M6.81703 16.1967C4.39362 14.6864 2.44619 14.1021 2.42682 14.0964L2.32446 14.0661L2.33962 13.9638C2.34757 13.9098 2.38135 13.8412 2.57165 13.706C3.27793 13.2046 5.40819 12.2777 7.48132 12.6111C8.31356 12.7451 9.14603 13.0557 9.96063 13.5356C9.59619 12.6351 9.42104 11.7503 9.43943 10.9002C9.48414 8.86304 10.8175 7.00621 11.4562 6.42633C11.6288 6.26953 11.7058 6.25343 11.7605 6.25269L11.8673 6.2574L11.879 6.3602C11.8812 6.37976 12.113 8.33988 13.1981 10.9299C13.8808 12.5588 12.6345 14.1073 11.762 14.9346C11.7632 14.9358 11.7637 14.9366 11.7637 14.9366L11.8469 15.0258L11.755 15.107C11.6671 15.1845 10.0257 16.6099 8.29145 16.6099C7.79633 16.6096 7.29351 16.4934 6.81703 16.1967ZM11.4097 14.9267L11.5009 14.843C12.3279 14.082 13.6182 12.5732 12.9676 11.0208C12.0616 8.85808 11.7426 7.12264 11.6576 6.57074C11.1819 6.97723 9.73481 8.82688 9.6891 10.9051C9.66898 11.8318 9.88908 12.8046 10.344 13.7964L10.5196 14.1793L10.1606 13.9458C9.26851 13.3651 8.3533 12.9963 7.44083 12.8494C5.30087 12.5039 3.13285 13.57 2.67052 13.92C3.20191 14.0978 4.91258 14.7218 6.95242 15.9931C8.71973 17.0949 10.9986 15.405 11.4912 15.0079L11.4097 14.9267Z" fill="url(#paint34_linear_54740_24329)"/>
<path d="M3.82777 11.283C1.76905 9.98151 0.118252 9.49799 0.101856 9.49328L0 9.46404L0.0136636 9.36175C0.0211164 9.30626 0.056393 9.23442 0.262339 9.08382C0.784286 8.70235 2.5434 7.76972 4.38574 8.04072C5.37821 8.18612 6.23404 8.62827 6.85387 9.04665C6.61215 8.37487 6.41167 7.4851 6.53513 6.54951C6.7617 4.83265 8.10868 3.50542 8.60826 3.13906C8.807 2.99316 8.88551 2.97905 8.9424 2.98871L9.04748 3.00382L9.04873 3.10662C9.04897 3.12272 9.07481 4.71969 9.77314 6.90027C10.2437 8.37042 8.84005 9.57799 8.09203 10.0992L8.11911 10.1289L8.03539 10.2094C7.95987 10.282 6.53539 11.6283 5.03439 11.6283C4.62895 11.628 4.21855 11.5299 3.82777 11.283ZM7.71591 10.0573L7.83441 9.97854C8.49448 9.5396 9.98157 8.36843 9.53465 6.97186C8.96476 5.19207 8.83582 3.78831 8.80701 3.2976C8.36356 3.60823 7.00417 4.89978 6.78232 6.58023C6.63997 7.65776 6.95125 8.67757 7.23769 9.34317L7.42128 9.77046L7.04565 9.4846C6.44396 9.02709 5.48777 8.44646 4.34848 8.27951C2.57073 8.02115 0.753481 8.98994 0.341588 9.31518C0.819066 9.47421 2.25523 10.0003 3.96416 11.0803C5.44653 12.0174 7.34551 10.4893 7.77206 10.1163L7.71591 10.0573Z" fill="url(#paint35_linear_54740_24329)"/>
<path d="M4.85339 5.22876C5.53632 6.52625 6.28756 7.78758 7.1024 9.00705C7.90905 10.2317 8.8019 11.4002 9.74294 12.5262C11.5952 14.7851 13.7632 16.8277 16.1067 18.6057C17.279 19.4953 18.4988 20.3221 19.7633 21.0779C23.5264 23.3263 27.7756 24.9862 31.9782 26.3877C34.8123 27.3303 37.6963 28.1569 40.576 29.0516C40.9355 29.1635 41.2945 29.2802 41.6537 29.3964C44.1762 30.2114 46.6816 31.1261 49.0755 32.2522C50.4488 32.8982 51.8149 33.5861 53.1186 34.3558C54.4361 35.113 55.6976 35.9671 56.9054 36.8811L57.7988 37.5827C59.8175 39.1675 61.6832 41.2492 63.0756 43.4107C63.0041 43.5113 62.5639 43.6988 62.4794 43.6082C60.7722 41.7803 59.1281 39.9369 57.0798 38.4828L56.1581 37.8817C54.921 37.1004 53.6575 36.3617 52.3443 35.7048C51.0266 35.0459 49.6931 34.3966 48.325 33.8413C46.9693 33.2574 45.5868 32.7256 44.1974 32.2054L43.1542 31.8163L42.1051 31.4378C41.4043 31.1861 40.7022 30.9334 39.9964 30.6882C37.1793 29.6892 34.3293 28.7268 31.4918 27.7043C29.3633 26.9372 27.2387 26.1051 25.1852 25.1651L24.6692 24.9287C23.1178 24.2183 21.6195 23.4098 20.1585 22.5388L19.1978 21.9362C17.9259 21.119 16.7039 20.231 15.5365 19.2832C12.0809 16.4262 9.07591 13.0033 6.77771 9.20249C6.0128 7.93745 5.31596 6.636 4.69092 5.30457L4.85339 5.22876Z" fill="url(#paint36_linear_54740_24329)"/>
<path d="M62.3864 43.6895L61.9179 43.1864C60.3431 41.4931 58.8557 39.8939 57.0099 38.5835L56.0897 37.9831C54.7159 37.1151 53.4721 36.4051 52.2871 35.8124C50.8141 35.0757 49.5685 34.4775 48.2742 33.9518C46.8577 33.3417 45.3957 32.7837 44.1526 32.3182L43.1104 31.9296L41.8966 31.4919C41.2512 31.26 40.6043 31.0279 39.9534 30.8015C38.7545 30.3762 37.5496 29.9578 36.3422 29.5384C34.7376 28.9813 33.0784 28.4049 31.4482 27.8173C29.0392 26.9491 26.973 26.1173 25.1317 25.2741C24.7874 25.1163 24.6644 25.0601 24.6167 25.0361L24.6157 25.0378C23.156 24.3693 21.6763 23.5855 20.0906 22.6403L19.1287 22.0371C17.8724 21.2298 16.637 20.3346 15.4554 19.3755C11.9114 16.4453 8.95534 13.0435 6.66956 9.26402C5.90589 8.00071 5.20209 6.68562 4.5768 5.35494L4.52612 5.24718L4.9087 5.06982L4.96385 5.17461C5.64156 6.4617 6.39579 7.72922 7.2069 8.94274C7.95641 10.081 8.81746 11.2283 9.83974 12.452C11.6356 14.6423 13.7696 16.6809 16.1828 18.5117C17.3596 19.4047 18.5859 20.2338 19.828 20.9759C24.015 23.4775 28.7903 25.1981 32.0179 26.2744C33.8706 26.8904 35.7803 27.4678 37.6269 28.0262C38.6213 28.3269 39.6175 28.6281 40.6135 28.9375C40.9255 29.0346 41.2368 29.1352 41.5485 29.236L41.6921 29.2826C44.6405 30.235 47.0035 31.1446 49.1291 32.1441C50.7446 32.9045 52.0329 33.5746 53.1812 34.2526C54.426 34.9679 55.7044 35.8203 56.9826 36.7878L57.8759 37.4891C59.8726 39.0569 61.7564 41.1374 63.1801 43.3472L63.2233 43.4143L63.1769 43.4797C63.0899 43.6018 62.759 43.7415 62.5846 43.7524C62.5754 43.7532 62.5662 43.7534 62.5576 43.7534C62.4838 43.7532 62.4261 43.7316 62.3864 43.6895ZM57.7199 37.6766L56.8283 36.9766C55.5598 36.0168 54.2904 35.1698 53.0535 34.4591C51.9107 33.7846 50.6291 33.1178 49.0205 32.3613C46.9051 31.3663 44.5515 30.4604 41.6136 29.5114L41.47 29.4649C41.1592 29.3643 40.8487 29.2637 40.5377 29.1671C39.5425 28.858 38.5468 28.5568 37.5531 28.2566C35.7048 27.6977 33.7934 27.1198 31.9371 26.5025C28.6984 25.4225 23.9055 23.6957 19.6973 21.1815C18.4478 20.4347 17.2133 19.6004 16.0293 18.7017C13.6009 16.8593 11.4528 14.8072 9.64547 12.6031C8.61797 11.3735 7.75146 10.2184 6.99723 9.07354C6.46137 8.27146 5.94961 7.4456 5.46841 6.60612C5.91135 7.4669 6.38511 8.31554 6.88494 9.14215C9.15632 12.8984 12.0945 16.2796 15.6164 19.1914C16.79 20.1441 18.018 21.0341 19.2653 21.8355L20.2235 22.4367C21.7993 23.376 23.2707 24.1555 24.7235 24.8206C24.7392 24.828 25.2385 25.0567 25.2385 25.0567C27.0734 25.8969 29.1331 26.726 31.5349 27.592C33.1639 28.179 34.8224 28.7552 36.4265 29.312C37.6346 29.7316 38.8397 30.1503 40.0386 30.5753C40.6895 30.8017 41.3369 31.0341 41.9835 31.2662L44.2425 32.0935C45.4886 32.56 46.9543 33.1196 48.3733 33.7309C49.6729 34.2585 50.9234 34.8592 52.4018 35.5986C53.5943 36.1951 54.8454 36.909 56.2279 37.7824L57.1538 38.3866C59.0244 39.7145 60.5898 41.3977 62.1037 43.0254L62.5578 43.5131C62.638 43.5087 62.8134 43.446 62.9131 43.3878C61.5102 41.232 59.6693 39.207 57.7199 37.6766Z" fill="url(#paint37_linear_54740_24329)"/>
<path d="M2.50523 4.83752C1.20024 3.06022 1.18931 0.70056 1.3324 0.607422C1.3324 0.607422 1.84168 1.43551 3.95753 2.85414C5.7482 4.05478 5.87366 7.36193 5.87366 7.36193C5.87366 7.36193 3.80997 6.61458 2.50523 4.83752Z" fill="url(#paint38_linear_54740_24329)"/>
<path d="M5.83017 7.47514C5.74446 7.44393 3.71555 6.69462 2.40361 4.90765C1.17712 3.23711 1.08769 1.13035 1.17141 0.683234C1.18905 0.590095 1.21612 0.537334 1.26258 0.507114L1.37139 0.436523L1.43896 0.545274C1.44418 0.5532 1.9701 1.37483 4.02832 2.75457C5.84955 3.97552 5.99289 7.22002 5.99835 7.35725L6.00506 7.53831L5.83017 7.47514ZM2.60657 4.76745C3.65047 6.18905 5.20885 6.94777 5.73577 7.17467C5.67565 6.46003 5.36114 3.94208 3.88672 2.95323C2.38125 1.94382 1.68093 1.23141 1.39474 0.892298C1.36021 1.52965 1.56442 3.34809 2.60657 4.76745Z" fill="url(#paint39_linear_54740_24329)"/>
<defs>
<linearGradient id="paint0_linear_54740_24329" x1="37.5043" y1="18.5535" x2="37.5043" y2="30.4289" gradientUnits="userSpaceOnUse">
<stop stop-color="#09B668" stop-opacity="0.4"/>
<stop offset="1" stop-color="#121212"/>
</linearGradient>
<linearGradient id="paint1_linear_54740_24329" x1="37.5025" y1="18.394" x2="37.5025" y2="30.5634" gradientUnits="userSpaceOnUse">
<stop stop-color="#09B668" stop-opacity="0.4"/>
<stop offset="1" stop-color="#121212"/>
</linearGradient>
<linearGradient id="paint2_linear_54740_24329" x1="75.4957" y1="18.8557" x2="75.4957" y2="30.7313" gradientUnits="userSpaceOnUse">
<stop stop-color="#09B668" stop-opacity="0.4"/>
<stop offset="1" stop-color="#121212"/>
</linearGradient>
<linearGradient id="paint3_linear_54740_24329" x1="75.4973" y1="18.6963" x2="75.4973" y2="30.8657" gradientUnits="userSpaceOnUse">
<stop stop-color="#09B668" stop-opacity="0.4"/>
<stop offset="1" stop-color="#121212"/>
</linearGradient>
<linearGradient id="paint4_linear_54740_24329" x1="67.421" y1="22.8618" x2="67.421" y2="39.7478" gradientUnits="userSpaceOnUse">
<stop stop-color="#09B668" stop-opacity="0.4"/>
<stop offset="1" stop-color="#121212"/>
</linearGradient>
<linearGradient id="paint5_linear_54740_24329" x1="78.3481" y1="29.2976" x2="78.3481" y2="35.407" gradientUnits="userSpaceOnUse">
<stop stop-color="#09B668" stop-opacity="0.4"/>
<stop offset="1" stop-color="#121212"/>
</linearGradient>
<linearGradient id="paint6_linear_54740_24329" x1="88.2244" y1="16.8745" x2="88.2244" y2="31.246" gradientUnits="userSpaceOnUse">
<stop stop-color="#09B668" stop-opacity="0.4"/>
<stop offset="1" stop-color="#121212"/>
</linearGradient>
<linearGradient id="paint7_linear_54740_24329" x1="96.0669" y1="11.5598" x2="96.0669" y2="26.5967" gradientUnits="userSpaceOnUse">
<stop stop-color="#09B668" stop-opacity="0.4"/>
<stop offset="1" stop-color="#121212"/>
</linearGradient>
<linearGradient id="paint8_linear_54740_24329" x1="101.172" y1="9.15161" x2="101.172" y2="21.9317" gradientUnits="userSpaceOnUse">
<stop stop-color="#09B668" stop-opacity="0.4"/>
<stop offset="1" stop-color="#121212"/>
</linearGradient>
<linearGradient id="paint9_linear_54740_24329" x1="105.134" y1="6.67505" x2="105.134" y2="16.7862" gradientUnits="userSpaceOnUse">
<stop stop-color="#09B668" stop-opacity="0.4"/>
<stop offset="1" stop-color="#121212"/>
</linearGradient>
<linearGradient id="paint10_linear_54740_24329" x1="108.06" y1="3.40942" x2="108.06" y2="11.8055" gradientUnits="userSpaceOnUse">
<stop stop-color="#09B668" stop-opacity="0.4"/>
<stop offset="1" stop-color="#121212"/>
</linearGradient>
<linearGradient id="paint11_linear_54740_24329" x1="67.4253" y1="22.7026" x2="67.4253" y2="39.8695" gradientUnits="userSpaceOnUse">
<stop stop-color="#09B668" stop-opacity="0.4"/>
<stop offset="1" stop-color="#121212"/>
</linearGradient>
<linearGradient id="paint12_linear_54740_24329" x1="78.3234" y1="29.1777" x2="78.3234" y2="35.5251" gradientUnits="userSpaceOnUse">
<stop stop-color="#09B668" stop-opacity="0.4"/>
<stop offset="1" stop-color="#121212"/>
</linearGradient>
<linearGradient id="paint13_linear_54740_24329" x1="88.2253" y1="16.719" x2="88.2253" y2="31.365" gradientUnits="userSpaceOnUse">
<stop stop-color="#09B668" stop-opacity="0.4"/>
<stop offset="1" stop-color="#121212"/>
</linearGradient>
<linearGradient id="paint14_linear_54740_24329" x1="96.066" y1="11.4224" x2="96.066" y2="26.7159" gradientUnits="userSpaceOnUse">
<stop stop-color="#09B668" stop-opacity="0.4"/>
<stop offset="1" stop-color="#121212"/>
</linearGradient>
<linearGradient id="paint15_linear_54740_24329" x1="101.173" y1="9.02759" x2="101.173" y2="22.0555" gradientUnits="userSpaceOnUse">
<stop stop-color="#09B668" stop-opacity="0.4"/>
<stop offset="1" stop-color="#121212"/>
</linearGradient>
<linearGradient id="paint16_linear_54740_24329" x1="105.14" y1="6.55444" x2="105.14" y2="16.9116" gradientUnits="userSpaceOnUse">
<stop stop-color="#09B668" stop-opacity="0.4"/>
<stop offset="1" stop-color="#121212"/>
</linearGradient>
<linearGradient id="paint17_linear_54740_24329" x1="108.066" y1="3.28784" x2="108.066" y2="11.9298" gradientUnits="userSpaceOnUse">
<stop stop-color="#09B668" stop-opacity="0.4"/>
<stop offset="1" stop-color="#121212"/>
</linearGradient>
<linearGradient id="paint18_linear_54740_24329" x1="79.1167" y1="5.53125" x2="79.1167" y2="43.9345" gradientUnits="userSpaceOnUse">
<stop stop-color="#09B668" stop-opacity="0.4"/>
<stop offset="1" stop-color="#121212"/>
</linearGradient>
<linearGradient id="paint19_linear_54740_24329" x1="79.1242" y1="5.37134" x2="79.1242" y2="44.0549" gradientUnits="userSpaceOnUse">
<stop stop-color="#09B668" stop-opacity="0.4"/>
<stop offset="1" stop-color="#121212"/>
</linearGradient>
<linearGradient id="paint20_linear_54740_24329" x1="109.427" y1="0.909424" x2="109.427" y2="7.66393" gradientUnits="userSpaceOnUse">
<stop stop-color="#09B668" stop-opacity="0.4"/>
<stop offset="1" stop-color="#121212"/>
</linearGradient>
<linearGradient id="paint21_linear_54740_24329" x1="109.423" y1="0.73877" x2="109.423" y2="7.84057" gradientUnits="userSpaceOnUse">
<stop stop-color="#09B668" stop-opacity="0.4"/>
<stop offset="1" stop-color="#121212"/>
</linearGradient>
<linearGradient id="paint22_linear_54740_24329" x1="45.579" y1="22.5598" x2="45.579" y2="39.4458" gradientUnits="userSpaceOnUse">
<stop stop-color="#09B668" stop-opacity="0.4"/>
<stop offset="1" stop-color="#121212"/>
</linearGradient>
<linearGradient id="paint23_linear_54740_24329" x1="34.6521" y1="28.9954" x2="34.6521" y2="35.1047" gradientUnits="userSpaceOnUse">
<stop stop-color="#09B668" stop-opacity="0.4"/>
<stop offset="1" stop-color="#121212"/>
</linearGradient>
<linearGradient id="paint24_linear_54740_24329" x1="24.7751" y1="16.5725" x2="24.7751" y2="30.9439" gradientUnits="userSpaceOnUse">
<stop stop-color="#09B668" stop-opacity="0.4"/>
<stop offset="1" stop-color="#121212"/>
</linearGradient>
<linearGradient id="paint25_linear_54740_24329" x1="16.9331" y1="11.2576" x2="16.9331" y2="26.2945" gradientUnits="userSpaceOnUse">
<stop stop-color="#09B668" stop-opacity="0.4"/>
<stop offset="1" stop-color="#121212"/>
</linearGradient>
<linearGradient id="paint26_linear_54740_24329" x1="11.8274" y1="8.84985" x2="11.8274" y2="21.6297" gradientUnits="userSpaceOnUse">
<stop stop-color="#09B668" stop-opacity="0.4"/>
<stop offset="1" stop-color="#121212"/>
</linearGradient>
<linearGradient id="paint27_linear_54740_24329" x1="7.86558" y1="6.37329" x2="7.86558" y2="16.4846" gradientUnits="userSpaceOnUse">
<stop stop-color="#09B668" stop-opacity="0.4"/>
<stop offset="1" stop-color="#121212"/>
</linearGradient>
<linearGradient id="paint28_linear_54740_24329" x1="4.93962" y1="3.10742" x2="4.93962" y2="11.5035" gradientUnits="userSpaceOnUse">
<stop stop-color="#09B668" stop-opacity="0.4"/>
<stop offset="1" stop-color="#121212"/>
</linearGradient>
<linearGradient id="paint29_linear_54740_24329" x1="45.5748" y1="22.4004" x2="45.5748" y2="39.5673" gradientUnits="userSpaceOnUse">
<stop stop-color="#09B668" stop-opacity="0.4"/>
<stop offset="1" stop-color="#121212"/>
</linearGradient>
<linearGradient id="paint30_linear_54740_24329" x1="34.6765" y1="28.8755" x2="34.6765" y2="35.2228" gradientUnits="userSpaceOnUse">
<stop stop-color="#09B668" stop-opacity="0.4"/>
<stop offset="1" stop-color="#121212"/>
</linearGradient>
<linearGradient id="paint31_linear_54740_24329" x1="24.7739" y1="16.4165" x2="24.7739" y2="31.0625" gradientUnits="userSpaceOnUse">
<stop stop-color="#09B668" stop-opacity="0.4"/>
<stop offset="1" stop-color="#121212"/>
</linearGradient>
<linearGradient id="paint32_linear_54740_24329" x1="16.9339" y1="11.1194" x2="16.9339" y2="26.4129" gradientUnits="userSpaceOnUse">
<stop stop-color="#09B668" stop-opacity="0.4"/>
<stop offset="1" stop-color="#121212"/>
</linearGradient>
<linearGradient id="paint33_linear_54740_24329" x1="11.8265" y1="8.72583" x2="11.8265" y2="21.7538" gradientUnits="userSpaceOnUse">
<stop stop-color="#09B668" stop-opacity="0.4"/>
<stop offset="1" stop-color="#121212"/>
</linearGradient>
<linearGradient id="paint34_linear_54740_24329" x1="7.85958" y1="6.25269" x2="7.85958" y2="16.6099" gradientUnits="userSpaceOnUse">
<stop stop-color="#09B668" stop-opacity="0.4"/>
<stop offset="1" stop-color="#121212"/>
</linearGradient>
<linearGradient id="paint35_linear_54740_24329" x1="4.93376" y1="2.98633" x2="4.93376" y2="11.6283" gradientUnits="userSpaceOnUse">
<stop stop-color="#09B668" stop-opacity="0.4"/>
<stop offset="1" stop-color="#121212"/>
</linearGradient>
<linearGradient id="paint36_linear_54740_24329" x1="33.8833" y1="5.22876" x2="33.8833" y2="43.6322" gradientUnits="userSpaceOnUse">
<stop stop-color="#09B668" stop-opacity="0.4"/>
<stop offset="1" stop-color="#121212"/>
</linearGradient>
<linearGradient id="paint37_linear_54740_24329" x1="33.8747" y1="5.06982" x2="33.8747" y2="43.7534" gradientUnits="userSpaceOnUse">
<stop stop-color="#09B668" stop-opacity="0.4"/>
<stop offset="1" stop-color="#121212"/>
</linearGradient>
<linearGradient id="paint38_linear_54740_24329" x1="3.57269" y1="0.607422" x2="3.57269" y2="7.36193" gradientUnits="userSpaceOnUse">
<stop stop-color="#09B668" stop-opacity="0.4"/>
<stop offset="1" stop-color="#121212"/>
</linearGradient>
<linearGradient id="paint39_linear_54740_24329" x1="3.57675" y1="0.436523" x2="3.57675" y2="7.53831" gradientUnits="userSpaceOnUse">
<stop stop-color="#09B668" stop-opacity="0.4"/>
<stop offset="1" stop-color="#121212"/>
</linearGradient>
</defs>
</svg>
