<svg width="184" height="71" viewBox="0 0 184 71" fill="none" xmlns="http://www.w3.org/2000/svg">
<path d="M126.171 43.2732C131.34 38.2962 132.243 30.296 131.783 29.8643C131.783 29.8643 127.085 33.3677 119.24 36.4728C112.6 39.1007 113.584 49.1194 113.584 49.1194C113.584 49.1194 121.001 48.2507 126.171 43.2732Z" fill="url(#paint0_linear_54769_49223)"/>
<path d="M113.403 49.3379L113.383 49.1383C113.374 49.0367 112.463 38.9441 119.164 36.2921C126.89 33.234 131.613 29.7442 131.66 29.7093L131.797 29.6064L131.923 29.7237C132.003 29.7997 132.086 29.9475 132.09 30.4736C132.105 32.7701 130.67 39.2168 126.313 43.4126C121.154 48.3796 113.683 49.305 113.608 49.3138L113.403 49.3379ZM131.68 30.1812C130.65 30.9078 126.146 33.9513 119.316 36.6547C113.409 38.9926 113.68 47.4639 113.769 48.8953C115.007 48.7074 121.451 47.5418 126.029 43.1343C130.689 38.6477 131.846 31.5327 131.68 30.1812Z" fill="url(#paint1_linear_54769_49223)"/>
<path d="M110.522 53.9482C107.933 53.6558 105.453 53.9526 103.334 54.4531C104.957 53.4036 106.612 52.0517 108.005 50.3347C112.51 44.7809 112.4 36.7338 111.888 36.3599C111.888 36.3599 107.666 40.3951 100.271 44.4086C94.0112 47.8056 96.2471 57.632 96.2471 57.632C96.2471 57.632 96.6118 57.544 97.2255 57.3464C98.4951 59.065 103.456 65.1048 109.387 63.4569C117.532 61.1945 123.453 61.1334 123.453 61.1334C123.54 60.5173 117.75 54.7639 110.522 53.9482Z" fill="url(#paint2_linear_54769_49223)"/>
<path d="M127.665 46.9106C120.437 46.0949 114.049 49.8606 114.049 49.8606C114.049 49.8606 119.636 58.3339 126.529 56.4189C134.673 54.1565 140.594 54.0958 140.594 54.0958C140.682 53.4797 134.892 47.7263 127.665 46.9106Z" fill="url(#paint3_linear_54769_49223)"/>
<path d="M143.701 41.5128C141.163 41.226 138.749 41.6449 136.805 42.2229C138.33 41.1453 140.022 39.6175 141.216 37.5896C143.945 32.954 142.815 26.8849 142.375 26.6523C142.375 26.6523 139.665 30.1124 134.522 33.8661C130.848 36.547 132.403 42.0972 132.978 43.7648C132.59 43.968 132.374 44.0997 132.374 44.0997C132.374 44.0997 136.986 51.377 142.723 49.7045C149.5 47.7285 154.421 47.6558 154.421 47.6558C154.497 47.1244 149.706 42.1904 143.701 41.5128Z" fill="url(#paint4_linear_54769_49223)"/>
<path d="M157.172 34.5351C154.707 34.2568 152.365 34.6905 150.515 35.2637C151.727 33.7114 153.009 31.5871 153.552 29.0797C154.713 23.7123 151.638 18.1275 151.132 18.0352C151.132 18.0352 149.608 22.2483 145.8 27.4949C143.485 30.6858 145.55 34.7464 146.896 36.7794C146.702 36.8859 146.596 36.9505 146.596 36.9505C146.596 36.9505 150.903 43.7442 156.258 42.183C162.585 40.3383 167.179 40.2704 167.179 40.2704C167.25 39.7744 162.777 35.1677 157.172 34.5351Z" fill="url(#paint5_linear_54769_49223)"/>
<path d="M165.409 27.9631C162.873 27.941 160.592 28.7748 159.001 29.5636C159.963 28.0695 161.127 25.7452 161.272 23.0711C161.525 18.4299 158.201 14.1436 157.765 14.1304C157.765 14.1304 157.054 17.8511 154.57 22.7269C152.938 25.9284 155.719 29.3302 157.047 30.695C156.842 30.836 156.723 30.9259 156.723 30.9259C156.723 30.9259 160.982 36.2724 165.349 34.4872C170.508 32.3778 174.373 31.9179 174.373 31.9179C174.387 31.4938 170.191 28.0048 165.409 27.9631Z" fill="url(#paint6_linear_54769_49223)"/>
<path d="M171.281 20.4223C169.507 20.7087 167.968 21.471 166.805 22.2305C167.387 20.9565 167.92 19.2845 167.881 17.4591C167.794 13.5203 164.708 10.0995 164.339 10.1148C164.339 10.1148 163.978 13.3034 162.192 17.5764C161.078 20.2432 163.344 22.8197 164.611 23.9892C164.522 24.0784 164.474 24.1302 164.474 24.1302C164.474 24.1302 168.835 27.9887 172.213 25.8773C176.204 23.3828 179.361 22.449 179.361 22.449C179.309 22.0939 175.28 19.7773 171.281 20.4223Z" fill="url(#paint7_linear_54769_49223)"/>
<path d="M170.564 16.1224C170.523 16.1654 170.495 16.1955 170.495 16.1955C170.495 16.1955 174.171 19.7339 177.045 17.9117C180.441 15.7589 183.122 14.9862 183.122 14.9862C183.079 14.6669 179.677 12.5145 176.284 13.0126C174.419 13.2865 172.858 14.2199 171.828 15.0059C172.313 13.8765 172.812 12.2017 172.579 10.4256C172.162 7.25794 169.23 4.77544 168.917 4.82043C168.917 4.82043 168.887 7.42341 167.736 11.0273C166.975 13.4134 169.449 15.379 170.564 16.1224Z" fill="url(#paint8_linear_54769_49223)"/>
<path d="M107.321 63.936C102.395 63.9364 98.4594 59.3236 97.1476 57.5765C96.6195 57.7424 96.309 57.8179 96.295 57.8215L96.0941 57.8697L96.0496 57.6737C96.0267 57.5737 93.8542 47.665 100.172 44.2367C107.456 40.2842 111.704 36.2598 111.747 36.2196L111.87 36.1016L112.009 36.2032C112.098 36.2686 112.199 36.4056 112.269 36.9257C112.574 39.2026 111.963 45.7709 108.162 50.4556C107.099 51.7677 105.796 52.973 104.283 54.0485C106.455 53.6292 108.559 53.5301 110.546 53.7538C116.641 54.4414 121.861 58.6545 123.307 60.4707C123.638 60.8864 123.667 61.0526 123.652 61.1607L123.628 61.3274L123.454 61.3294C123.396 61.3302 117.464 61.4169 109.443 63.6452C108.719 63.8456 108.011 63.936 107.321 63.936ZM97.3018 57.115L97.3886 57.2319C98.7337 59.0529 103.573 64.8674 109.331 63.2689C116.44 61.294 121.926 60.9904 123.179 60.9455C122.489 59.8245 117.043 54.8816 110.499 54.1434C108.256 53.8899 105.861 54.0586 103.382 54.6438L102.271 54.906L103.222 54.2904C105.062 53.1003 106.617 51.7287 107.846 50.2134C111.908 45.2062 112.162 38.0069 111.827 36.6867C110.896 37.5302 106.808 41.085 100.368 44.5793C94.7993 47.6016 96.1331 55.9792 96.4022 57.3878C96.5681 57.3424 96.8279 57.2673 97.1613 57.16L97.3018 57.115Z" fill="url(#paint9_linear_54769_49223)"/>
<path d="M124.495 56.8921C122.224 56.8921 119.867 55.9161 117.573 54.0068C115.318 52.1311 113.893 49.988 113.879 49.9667L113.768 49.7976L113.944 49.6936C114.009 49.6563 120.47 45.9014 127.688 46.7163C133.783 47.4043 139.004 51.6175 140.45 53.4341C140.78 53.8498 140.809 54.0156 140.794 54.1236L140.769 54.2903L140.596 54.2923C140.537 54.2931 134.606 54.3799 126.585 56.6082C125.899 56.7977 125.201 56.8921 124.495 56.8921ZM114.337 49.9262C115.176 51.1062 120.343 57.9308 126.473 56.231C133.582 54.2562 139.068 53.9526 140.321 53.9076C139.63 52.787 134.184 47.8441 127.641 47.1055C121.238 46.3821 115.43 49.3306 114.337 49.9262Z" fill="url(#paint10_linear_54769_49223)"/>
<path d="M141.007 50.1469C136.034 50.1469 132.244 44.2686 132.202 44.2023L132.097 44.0368L132.266 43.9336C132.266 43.9336 132.432 43.8332 132.733 43.6714C132.121 41.8235 130.728 36.3893 134.4 33.7096C139.463 30.015 142.188 26.5682 142.215 26.5336L142.319 26.3999L142.471 26.4802C142.561 26.528 142.671 26.6385 142.806 27.0996C143.327 28.884 143.666 33.8205 141.39 37.6866C140.512 39.1771 139.291 40.545 137.75 41.7624C139.826 41.2543 141.831 41.1041 143.723 41.3178C148.725 41.8825 152.994 45.3928 154.278 47.0041C154.605 47.4154 154.635 47.5777 154.62 47.6821L154.596 47.8483L154.423 47.8512C154.374 47.852 149.448 47.9472 142.78 49.8915C142.176 50.0678 141.584 50.1469 141.007 50.1469ZM132.657 44.1634C133.389 45.2285 137.625 50.9831 142.665 49.5164C148.501 47.8146 153.021 47.5178 154.147 47.4684C153.52 46.4635 149.095 42.3183 143.678 41.707C141.537 41.4648 139.245 41.7014 136.864 42.4098L135.712 42.7524L136.686 42.064C138.575 40.7302 140.04 39.1915 141.041 37.4918C143.493 33.3269 142.796 28.0807 142.357 26.9891C141.67 27.8108 139.018 30.8299 134.643 34.0221C131.077 36.6247 132.613 42.0893 133.169 43.7019L133.223 43.8585L133.074 43.9368C132.897 44.0296 132.756 44.1067 132.657 44.1634Z" fill="url(#paint11_linear_54769_49223)"/>
<path d="M154.657 42.6094C150.007 42.6094 146.464 37.1154 146.425 37.0536L146.32 36.8881L146.49 36.7849C146.49 36.7849 146.533 36.7588 146.613 36.7126C145.199 34.5221 143.331 30.5576 145.636 27.3831C149.384 22.2184 150.927 18.0125 150.942 17.9708L151 17.8125L151.17 17.8434C151.272 17.8623 151.415 17.9366 151.696 18.3451C152.784 19.9287 154.718 24.6475 153.749 29.1209C153.323 31.0897 152.411 33.0332 151.036 34.9068C153.18 34.3124 155.25 34.1241 157.195 34.3413C161.869 34.8691 165.858 38.1497 167.058 39.6558C167.367 40.0434 167.394 40.198 167.38 40.298L167.356 40.4643L167.183 40.4671C167.138 40.4679 162.54 40.5566 156.316 42.3716C155.751 42.5355 155.196 42.6094 154.657 42.6094ZM146.88 37.0146C147.584 38.0368 151.518 43.3564 156.2 41.9957C161.613 40.4173 165.813 40.1329 166.901 40.0839C166.278 39.1308 162.132 35.292 157.149 34.7297C155.084 34.4948 152.873 34.739 150.576 35.4503L149.969 35.6382L150.354 35.145C151.896 33.1726 152.905 31.1182 153.355 29.0398C154.381 24.2973 151.989 19.2917 151.221 18.3623C150.82 19.3672 149.21 23.1374 145.965 27.6084C143.735 30.6809 145.697 34.6072 147.066 36.6736L147.181 36.8476L146.996 36.9496C146.952 36.9737 146.914 36.9949 146.88 37.0146Z" fill="url(#paint12_linear_54769_49223)"/>
<path d="M163.474 35.0527C159.805 35.0531 156.715 31.2356 156.564 31.0452L156.441 30.8914L156.599 30.7713C156.599 30.7713 156.651 30.7324 156.744 30.6653C155.369 29.2069 152.761 25.8364 154.39 22.6394C156.831 17.8475 157.56 14.1312 157.567 14.0943L157.598 13.9292L157.771 13.934C157.865 13.9372 158.002 13.9822 158.299 14.2959C159.426 15.4867 161.685 19.2011 161.474 23.0808C161.344 25.4778 160.406 27.5996 159.521 29.1001C161.025 28.4258 163.113 27.7386 165.411 27.7671C169.407 27.8016 173.082 30.2219 174.236 31.3882C174.54 31.6959 174.578 31.8312 174.575 31.9232L174.569 32.0911L174.398 32.1112C174.36 32.1156 170.498 32.5935 165.427 34.6668C164.768 34.9375 164.112 35.0527 163.474 35.0527ZM157.012 30.9597C157.751 31.812 161.509 35.8427 165.271 34.3061C169.613 32.5313 173.084 31.9132 174.069 31.763C173.388 30.9838 169.604 28.1956 165.407 28.1591C165.375 28.1587 165.343 28.1587 165.311 28.1587C162.808 28.1587 160.552 29.0146 159.093 29.7379L158.444 30.0592L158.831 29.4592C159.774 27.9936 160.928 25.6939 161.072 23.0603C161.291 19.0203 158.708 15.2096 157.902 14.4505C157.681 15.416 156.83 18.7319 154.751 22.8129C153.17 25.9156 155.933 29.264 157.194 30.5593L157.354 30.7239L157.164 30.8541C157.106 30.8942 157.055 30.9296 157.012 30.9597Z" fill="url(#paint13_linear_54769_49223)"/>
<path d="M169.938 26.7126C167.134 26.7126 164.481 24.4015 164.339 24.2758L164.19 24.1441L164.324 23.9995C164.324 23.9995 164.325 23.9983 164.327 23.9963C162.917 22.6548 160.902 20.1438 162.005 17.5031C163.76 13.3036 164.135 10.1255 164.138 10.0938L164.157 9.92706L164.33 9.91943C164.418 9.92064 164.543 9.94714 164.822 10.201C165.854 11.1416 168.009 14.1519 168.082 17.4549C168.112 18.8333 167.829 20.2675 167.24 21.7279C168.557 20.9499 169.902 20.4463 171.248 20.229C174.599 19.6884 178.043 21.1913 179.185 22.0042C179.493 22.2235 179.548 22.3347 179.56 22.4223L179.585 22.5882L179.419 22.6372C179.388 22.6464 176.239 23.5939 172.322 26.0426C171.552 26.5246 170.739 26.7126 169.938 26.7126ZM164.766 24.116C165.563 24.7594 169.247 27.4997 172.104 25.7133C175.402 23.6521 178.168 22.6404 179.027 22.352C178.279 21.7841 174.774 20.0559 171.314 20.6161C169.839 20.8547 168.359 21.4528 166.917 22.3938L166.337 22.7725L166.621 22.1516C167.356 20.5439 167.712 18.9666 167.679 17.4637C167.606 14.094 165.266 11.0946 164.497 10.4359C164.359 11.3308 163.844 14.1446 162.379 17.6513C161.327 20.1683 163.413 22.6143 164.75 23.8485L164.898 23.9842L164.766 24.116Z" fill="url(#paint14_linear_54769_49223)"/>
<path d="M175.206 18.6351C172.778 18.6351 170.476 16.4522 170.353 16.3345L170.218 16.204L170.262 16.1558C169.053 15.3108 166.783 13.3528 167.544 10.9691C168.673 7.43353 168.715 4.84419 168.715 4.81809L168.717 4.65139L168.887 4.6269C168.978 4.61124 169.106 4.63413 169.427 4.87069C170.235 5.46471 172.412 7.61667 172.778 10.4004C172.978 11.9174 172.654 13.36 172.263 14.4493C173.265 13.7709 174.649 13.054 176.253 12.8182C179.232 12.3788 182.076 13.8906 182.92 14.5095C183.253 14.7537 183.309 14.8702 183.322 14.9602L183.344 15.1256L183.179 15.173C183.152 15.1806 180.484 15.9646 177.155 18.0748C176.523 18.4764 175.86 18.6351 175.206 18.6351ZM170.779 16.1843C171.468 16.7888 174.538 19.2669 176.935 17.7475C179.698 15.9964 182.02 15.1433 182.792 14.8854C182.126 14.3577 179.188 12.7869 176.314 13.2062C174.472 13.4769 172.926 14.4183 171.953 15.1602L171.346 15.6236L171.643 14.9308C172.106 13.8512 172.609 12.1981 172.379 10.451C172.02 7.7263 169.822 5.6322 169.106 5.12855C169.059 5.92459 168.85 8.20023 167.929 11.086C167.206 13.3504 169.61 15.2493 170.678 15.961L170.87 16.0887L170.779 16.1843Z" fill="url(#paint15_linear_54769_49223)"/>
<path d="M175.498 8.25977C174.394 10.3635 173.179 12.4086 171.862 14.3859C170.558 16.3716 169.114 18.2661 167.593 20.0919C164.598 23.7544 161.093 27.0663 157.304 29.9492C155.409 31.3915 153.437 32.7321 151.392 33.9575C145.308 37.6031 138.439 40.2945 131.644 42.5669C127.063 44.0952 122.4 45.4354 117.744 46.8861C117.163 47.0673 116.583 47.2568 116.002 47.4452C111.924 48.7666 107.873 50.2494 104.003 52.0756C101.783 53.1231 99.5743 54.2384 97.4666 55.4863C95.3367 56.7141 93.2972 58.0989 91.3445 59.5809L89.9002 60.718C86.6365 63.2876 83.6202 66.6629 81.3691 70.1676C81.4848 70.3307 82.1964 70.6347 82.333 70.4877C85.093 67.524 87.751 64.5351 91.0625 62.1775L92.5526 61.2028C94.5523 59.936 96.5954 58.7383 98.7185 57.6732C100.849 56.6048 103.005 55.5522 105.216 54.6517C107.408 53.705 109.643 52.8423 111.89 51.9993L113.576 51.3683L115.272 50.7546C116.405 50.3466 117.54 49.9369 118.681 49.5393C123.236 47.9195 127.843 46.3592 132.431 44.7012C135.872 43.4573 139.307 42.1083 142.627 40.5841L143.461 40.2009C145.969 39.049 148.391 37.7381 150.753 36.3259L152.306 35.3488C154.363 34.0238 156.338 32.5839 158.226 31.0473C163.812 26.4148 168.671 20.865 172.386 14.7024C173.623 12.6512 174.749 10.541 175.76 8.38226L175.498 8.25977Z" fill="url(#paint16_linear_54769_49223)"/>
<path d="M82.2049 70.7225C82.1908 70.7225 82.1759 70.7222 82.1611 70.721C81.8791 70.7029 81.3441 70.4763 81.2036 70.2787L81.1285 70.1727L81.1984 70.0638C83.5001 66.4809 86.5457 63.1076 89.7736 60.5656L91.2179 59.4286C93.2847 57.8598 95.3515 56.4778 97.3637 55.3179C99.2201 54.2186 101.303 53.1318 103.915 51.8992C107.351 50.2782 111.171 48.8038 115.938 47.2595L116.17 47.184C116.674 47.0205 117.178 46.857 117.682 46.7C119.292 46.1983 120.903 45.7096 122.51 45.2224C125.496 44.3171 128.583 43.3813 131.579 42.3821C136.797 40.637 144.517 37.8476 151.286 33.7911C153.294 32.5878 155.277 31.2435 157.179 29.7956C161.081 26.8272 164.531 23.5217 167.434 19.9705C169.087 17.9864 170.479 16.126 171.691 14.2805C173.002 12.3129 174.222 10.2577 175.317 8.17086L175.407 8.00098L176.025 8.28855L175.943 8.46326C174.933 10.6208 173.795 12.7535 172.56 14.8014C168.865 20.9296 164.086 26.4456 158.356 31.1961C156.446 32.7517 154.449 34.2028 152.418 35.5117L150.863 36.4897C148.299 38.0223 145.907 39.2931 143.547 40.3771L143.545 40.3743C143.468 40.4132 143.269 40.5044 142.713 40.7603C139.736 42.1274 136.395 43.4761 132.501 44.8838C129.865 45.8365 127.183 46.7711 124.588 47.6744C122.637 48.3543 120.689 49.0327 118.75 49.7223C117.698 50.0894 116.653 50.4657 115.609 50.8416L113.646 51.5514L111.962 52.1815C109.951 52.9362 107.588 53.8411 105.298 54.8303C103.205 55.6826 101.192 56.6525 98.8104 57.847C96.8942 58.8081 94.8836 59.9592 92.6626 61.3665L91.175 62.34C88.1904 64.4647 85.7858 67.058 83.2403 69.8032L82.4828 70.6189C82.4189 70.688 82.3257 70.7225 82.2049 70.7225ZM81.6325 70.1289C81.7936 70.2233 82.0771 70.3249 82.2069 70.3322L82.9411 69.5414C85.3886 66.9022 87.9193 64.1731 90.9436 62.0199L92.4405 61.0404C94.6756 59.6242 96.6986 58.4667 98.6261 57.4995C101.016 56.3007 103.038 55.3271 105.139 54.4712C107.433 53.48 109.803 52.5731 111.818 51.8164L115.47 50.475C116.515 50.0986 117.562 49.7215 118.614 49.3544C120.552 48.6652 122.501 47.9864 124.454 47.3061C127.047 46.4032 129.728 45.469 132.362 44.5171C136.245 43.113 139.575 41.7688 142.542 40.4064C142.542 40.4064 143.349 40.0357 143.374 40.0237C145.723 38.9453 148.102 37.6813 150.649 36.1583L152.198 35.1836C154.214 33.8843 156.199 32.4412 158.097 30.8965C163.791 26.1757 168.541 20.693 172.213 14.6026C173.021 13.2628 173.787 11.8868 174.504 10.4907C173.725 11.8522 172.898 13.1909 172.032 14.4914C170.813 16.3477 169.412 18.2206 167.75 20.2143C164.829 23.788 161.356 27.1155 157.43 30.1025C155.515 31.5596 153.52 32.9123 151.5 34.1232C144.696 38.1998 136.948 40.9996 131.711 42.7507C128.71 43.7516 125.621 44.6886 122.632 45.5947C121.026 46.0819 119.416 46.5699 117.807 47.0711C117.304 47.2282 116.802 47.3912 116.3 47.5539L116.067 47.6294C111.318 49.1681 107.513 50.6364 104.093 52.2502C101.492 53.4768 99.4201 54.5584 97.573 55.6516C95.5736 56.8043 93.5209 58.1771 91.4701 59.7334L90.0287 60.8685C86.8759 63.3518 83.8998 66.6351 81.6325 70.1289Z" fill="url(#paint17_linear_54769_49223)"/>
<path d="M179.293 7.62532C181.403 4.74359 181.42 0.917616 181.189 0.766602C181.189 0.766602 180.365 2.10927 176.945 4.40942C174.05 6.35614 173.847 11.7184 173.847 11.7184C173.847 11.7184 177.184 10.507 179.293 7.62532Z" fill="url(#paint18_linear_54769_49223)"/>
<path d="M173.635 12.0046L173.646 11.711C173.654 11.4885 173.886 6.2279 176.83 4.24825C180.158 2.01115 181.008 0.678926 181.016 0.666074L181.126 0.489746L181.302 0.604225C181.376 0.653225 181.42 0.738371 181.449 0.889787C181.584 1.61474 181.44 5.03064 179.457 7.73926C177.336 10.6366 174.056 11.852 173.917 11.9022L173.635 12.0046ZM181.088 1.22876C180.626 1.7786 179.493 2.9337 177.06 4.57036C174.676 6.17368 174.167 10.2563 174.07 11.415C174.922 11.0467 177.441 9.81689 179.129 7.51192C180.814 5.21056 181.144 2.26177 181.088 1.22876Z" fill="url(#paint19_linear_54769_49223)"/>
<path d="M73.4773 53.4589C76.067 53.1665 78.5471 53.4634 80.6657 53.9638C79.0431 52.9143 77.388 51.5624 75.9955 49.8455C71.4904 44.2917 71.6 36.2445 72.1117 35.8706C72.1117 35.8706 76.3337 39.9058 83.7294 43.9193C89.9888 47.3164 87.7529 57.1427 87.7529 57.1427C87.7529 57.1427 87.3883 57.0548 86.775 56.8572C85.5054 58.5758 80.5444 64.6155 74.6131 62.9676C66.4688 60.7052 60.5479 60.6442 60.5479 60.6442C60.4595 60.0277 66.2495 54.2742 73.4773 53.4589Z" fill="url(#paint20_linear_54769_49223)"/>
<path d="M56.3351 46.4209C63.5629 45.6051 69.9513 49.3708 69.9513 49.3708C69.9513 49.3708 64.3641 57.8441 57.4713 55.9291C49.3266 53.6667 43.4061 53.6061 43.4061 53.6061C43.3177 52.99 49.1073 47.237 56.3351 46.4209Z" fill="url(#paint21_linear_54769_49223)"/>
<path d="M40.2983 41.0231C42.8362 40.7363 45.2508 41.1552 47.1947 41.7331C45.6693 40.6556 43.9781 39.1277 42.784 37.0999C40.0549 32.4646 41.1843 26.3951 41.6245 26.1626C41.6245 26.1626 44.3343 29.6227 49.478 33.3763C53.1518 36.0573 51.5966 41.6074 51.0219 43.275C51.4099 43.4782 51.6256 43.61 51.6256 43.61C51.6256 43.61 47.0128 50.8872 41.2767 49.2148C34.4995 47.2387 29.5783 47.166 29.5783 47.166C29.5028 46.6351 34.2939 41.701 40.2983 41.0231Z" fill="url(#paint22_linear_54769_49223)"/>
<path d="M26.8279 34.0453C29.2931 33.767 31.6346 34.2008 33.4849 34.7739C32.2724 33.2216 30.9904 31.0974 30.4478 28.59C29.2863 23.2225 32.3612 17.6378 32.8672 17.5454C32.8672 17.5454 34.3914 21.7585 38.1993 27.0051C40.5151 30.1961 38.4499 34.2566 37.1041 36.2897C37.2972 36.3961 37.4033 36.4608 37.4033 36.4608C37.4033 36.4608 33.097 43.2544 27.742 41.6933C21.4146 39.8486 16.8203 39.7807 16.8203 39.7807C16.7497 39.2851 21.2227 34.6783 26.8279 34.0453Z" fill="url(#paint23_linear_54769_49223)"/>
<path d="M18.5908 27.4738C21.1263 27.4517 23.4075 28.2855 24.9984 29.0743C24.0365 27.5802 22.8726 25.256 22.7272 22.5819C22.475 17.9406 25.7989 13.6544 26.235 13.6411C26.235 13.6411 26.9459 17.3618 29.43 22.2377C31.0611 25.4391 28.281 28.8409 26.9524 30.2057C27.158 30.3467 27.2769 30.4362 27.2769 30.4362C27.2769 30.4362 23.018 35.7828 18.651 33.9975C13.4912 31.8882 9.62668 31.4283 9.62668 31.4283C9.61263 31.0045 13.8089 27.5151 18.5908 27.4738Z" fill="url(#paint24_linear_54769_49223)"/>
<path d="M12.7185 19.9332C14.4929 20.2195 16.0312 20.9818 17.1951 21.7413C16.6123 20.4674 16.0794 18.7953 16.1191 16.9699C16.2051 13.0311 19.2916 9.61037 19.6611 9.62603C19.6611 9.62603 20.0218 12.8146 21.8075 17.0876C22.922 19.7544 20.656 22.3309 19.3888 23.5005C19.4776 23.5897 19.5254 23.6414 19.5254 23.6414C19.5254 23.6414 15.1645 27.5 11.7871 25.389C7.79608 22.8944 4.63843 21.9606 4.63843 21.9606C4.69064 21.6048 8.71943 19.2881 12.7185 19.9332Z" fill="url(#paint25_linear_54769_49223)"/>
<path d="M13.4362 15.6332C13.4767 15.6761 13.5044 15.7063 13.5044 15.7063C13.5044 15.7063 9.82869 19.2446 6.95459 17.4224C3.55878 15.2697 0.877869 14.4969 0.877869 14.4969C0.920442 14.1776 4.32309 12.0253 7.71569 12.5233C9.58047 12.7972 11.1408 13.7306 12.171 14.5166C11.6866 13.3872 11.187 11.7124 11.4208 9.93637C11.8377 6.76868 14.7688 4.28619 15.0825 4.33117C15.0825 4.33117 15.1122 6.93415 16.2629 10.538C17.0248 12.9237 14.5507 14.8897 13.4362 15.6332Z" fill="url(#paint26_linear_54769_49223)"/>
<path d="M74.5573 63.156C66.5362 60.9277 60.6045 60.841 60.5459 60.8402L60.3724 60.8381L60.3483 60.6715C60.333 60.5634 60.3615 60.3971 60.6929 59.9814C62.1387 58.1653 67.3592 53.9517 73.454 53.2641C75.4413 53.0408 77.5446 53.1396 79.7171 53.5593C78.2033 52.4837 76.9012 51.2785 75.8373 49.9663C72.037 45.2817 71.4257 38.7133 71.7306 36.4365C71.8 35.9163 71.9009 35.7794 71.9904 35.7139L72.1294 35.6123L72.2531 35.7304C72.2953 35.7706 76.5437 39.7949 83.8282 43.7474C90.1455 47.1758 87.973 57.0845 87.9501 57.1845L87.9056 57.3805L87.7047 57.3323C87.6907 57.3287 87.3802 57.2536 86.8521 57.0873C85.5399 58.8344 81.6047 63.4472 76.6783 63.4468C75.9891 63.4472 75.2806 63.3568 74.5573 63.156ZM86.8384 56.6712C87.1714 56.7784 87.4316 56.8531 87.5975 56.8989C87.8662 55.49 89.2004 47.1127 83.6314 44.0904C77.1916 40.5962 73.1042 37.0413 72.1732 36.1979C71.8386 37.5181 72.092 44.7174 76.1538 49.7245C77.3823 51.2399 78.9379 52.6115 80.7774 53.8015L81.7288 54.4172L80.6179 54.155C78.1382 53.5694 75.7433 53.4011 73.5006 53.6545C66.9571 54.3927 61.511 59.3356 60.8206 60.4566C62.0741 60.5011 67.5596 60.8052 74.6685 62.78C80.4267 64.3785 85.266 58.5641 86.6111 56.7431L86.6979 56.6266L86.8384 56.6712Z" fill="url(#paint27_linear_54769_49223)"/>
<path d="M57.4155 56.118C49.3945 53.8897 43.4627 53.803 43.4041 53.8022L43.2306 53.8001L43.2065 53.6335C43.1912 53.5255 43.2197 53.3596 43.5503 52.9439C44.9962 51.1277 50.217 46.9146 56.3122 46.2266C63.5292 45.4116 69.9914 49.1665 70.0561 49.2039L70.2324 49.3079L70.1212 49.477C70.1071 49.4983 68.6821 51.6414 66.4273 53.517C64.1328 55.4264 61.7752 56.4023 59.5052 56.4023C58.7983 56.4027 58.1003 56.3079 57.4155 56.118ZM56.3584 46.6161C49.8158 47.3547 44.3692 52.2977 43.6784 53.4182C44.9319 53.4632 50.4174 53.7669 57.5263 55.7417C63.6561 57.4414 68.8239 50.6168 69.6629 49.4368C68.5697 48.8412 62.7616 45.8924 56.3584 46.6161Z" fill="url(#paint28_linear_54769_49223)"/>
<path d="M41.2192 49.4017C34.5504 47.4574 29.6244 47.3622 29.5754 47.3614L29.4027 47.3586L29.379 47.1923C29.3641 47.0879 29.3931 46.9257 29.7204 46.5144C31.0044 44.903 35.2734 41.3927 40.2753 40.828C42.1682 40.6144 44.1728 40.7646 46.2484 41.2727C44.7082 40.0553 43.4864 38.6873 42.6092 37.1969C40.3328 33.3307 40.6721 28.3942 41.1931 26.6098C41.3276 26.1487 41.4381 26.0383 41.5276 25.9905L41.6794 25.9102L41.7843 26.0439C41.8116 26.0784 44.5359 29.5252 49.5985 33.2199C53.271 35.8996 51.8781 41.3337 51.2656 43.1812C51.5673 43.3431 51.7323 43.4439 51.7323 43.4439L51.9014 43.5471L51.7966 43.7126C51.7544 43.7788 47.9646 49.6572 42.992 49.6572C42.416 49.6576 41.8236 49.578 41.2192 49.4017ZM50.9263 43.4479L50.7768 43.3696L50.8307 43.2129C51.3865 41.6 52.9232 36.1357 49.3567 33.5332C44.9817 30.341 42.3301 27.3219 41.6425 26.5002C41.2039 27.5918 40.5063 32.8379 42.9586 37.0033C43.9595 38.703 45.4247 40.2416 47.3132 41.5755L48.2879 42.2639L47.1356 41.9213C44.7548 41.2128 42.4626 40.9762 40.3215 41.2184C34.9047 41.8293 30.4803 45.975 29.8521 46.9799C30.9783 47.0293 35.4987 47.3261 41.3348 49.0278C46.3749 50.4946 50.6106 44.7399 51.3427 43.6748C51.2431 43.6174 51.103 43.5399 50.9263 43.4479Z" fill="url(#paint29_linear_54769_49223)"/>
<path d="M27.6841 41.8808C21.4596 40.0658 16.8625 39.9771 16.8167 39.9762L16.644 39.9734L16.6203 39.8072C16.6063 39.7067 16.6328 39.5521 16.942 39.1645C18.1421 37.6584 22.1311 34.3779 26.8046 33.8501C28.7497 33.6328 30.8197 33.8212 32.964 34.4156C31.5884 32.5424 30.6767 30.5985 30.251 28.6297C29.2826 24.1563 31.2165 19.4375 32.3045 17.8539C32.5853 17.445 32.7279 17.3711 32.8303 17.3522L33.0002 17.3213L33.0576 17.4795C33.0725 17.5217 34.6159 21.7272 38.364 26.8918C40.669 30.0663 38.8006 34.0309 37.3868 36.2214C37.4675 36.2676 37.5105 36.2937 37.5105 36.2937L37.6796 36.3969L37.5748 36.5624C37.5354 36.6242 33.9926 42.1182 29.3425 42.1182C28.8035 42.1198 28.2488 42.0459 27.6841 41.8808ZM37.0045 36.4599L36.8193 36.3579L36.9342 36.1836C38.3025 34.1168 40.2645 30.1908 38.0346 27.1183C34.7898 22.6474 33.1797 18.8772 32.7789 17.8723C32.0113 18.8017 29.6188 23.8073 30.645 28.5498C31.0944 30.6282 32.1041 32.6826 33.6456 34.655L34.0308 35.1482L33.4243 34.9602C31.1273 34.2489 28.9155 34.0047 26.8512 34.2397C21.8677 34.8024 17.722 38.6408 17.0987 39.5939C18.1867 39.6429 22.3874 39.9272 27.7998 41.5057C32.4813 42.8664 36.4157 37.5468 37.1197 36.5246C37.086 36.5053 37.0474 36.4836 37.0045 36.4599Z" fill="url(#paint30_linear_54769_49223)"/>
<path d="M18.5723 34.178C13.5012 32.1048 9.63991 31.6268 9.60176 31.6224L9.43026 31.6023L9.42464 31.4344C9.42183 31.3425 9.45958 31.2071 9.76402 30.8995C10.9175 29.7327 14.5929 27.3125 18.5887 27.2783C20.8865 27.2502 22.9742 27.9374 24.4779 28.6114C23.5935 27.1112 22.6557 24.989 22.5255 22.5921C22.3147 18.7123 24.5735 14.998 25.7001 13.8071C25.9973 13.4935 26.1338 13.4481 26.2282 13.4453L26.4009 13.4404L26.4322 13.6055C26.4395 13.6425 27.168 17.3592 29.6096 22.1507C31.2386 25.3477 28.63 28.7182 27.2552 30.1765C27.3488 30.2436 27.4002 30.2826 27.4002 30.2826L27.5584 30.4026L27.4355 30.5565C27.2841 30.7468 24.1939 34.5644 20.5254 34.564C19.8884 34.5636 19.2321 34.4479 18.5723 34.178ZM26.8363 30.3653L26.6463 30.2351L26.8062 30.0705C28.0673 28.7748 30.8301 25.4264 29.2493 22.3242C27.17 18.2432 26.3194 14.9269 26.0989 13.9618C25.2928 14.7209 22.7091 18.5315 22.9288 22.5716C23.0722 25.2047 24.2269 27.5048 25.1699 28.9704L25.5563 29.5705L24.9076 29.2492C23.4485 28.5258 21.1925 27.6699 18.6891 27.6699C18.6574 27.6699 18.6253 27.6699 18.5935 27.6703C14.3961 27.7069 10.6127 30.495 9.9319 31.2742C10.9159 31.4244 14.3872 32.0425 18.7293 33.8177C22.4914 35.3544 26.2491 31.3232 26.9881 30.4713C26.9443 30.4404 26.8937 30.4051 26.8363 30.3653Z" fill="url(#paint31_linear_54769_49223)"/>
<path d="M11.6775 25.5534C7.75952 23.1046 4.61111 22.1572 4.57978 22.1479L4.41431 22.0989L4.43881 21.933C4.45166 21.8455 4.50628 21.7342 4.81393 21.5149C5.95578 20.702 9.39979 19.1991 12.7514 19.7397C14.0969 19.957 15.4428 20.4607 16.7597 21.2386C16.1705 19.7787 15.8874 18.344 15.9171 16.9656C15.9894 13.6626 18.145 10.6519 19.1776 9.71172C19.4567 9.45748 19.5812 9.43138 19.6696 9.43018L19.8423 9.43782L19.8611 9.60449C19.8648 9.63622 20.2395 12.8144 21.9938 17.0138C23.0975 19.655 21.0825 22.1656 19.672 23.507C19.674 23.5091 19.6748 23.5103 19.6748 23.5103L19.8093 23.6548L19.6607 23.7866C19.5186 23.9123 16.865 26.2233 14.0612 26.2233C13.2607 26.2229 12.4478 26.0345 11.6775 25.5534ZM19.1025 23.4942L19.2499 23.3584C20.5869 22.1246 22.673 19.6783 21.6211 17.1612C20.1563 13.6546 19.6407 10.8407 19.5033 9.94587C18.7342 10.605 16.3946 13.604 16.3207 16.9737C16.2882 18.4762 16.6441 20.0534 17.3795 21.6616L17.6634 22.2825L17.083 21.9037C15.6408 20.9623 14.1612 20.3643 12.686 20.1261C9.22628 19.5658 5.72122 21.2944 4.97378 21.862C5.83288 22.1503 8.59853 23.162 11.8963 25.2232C14.7536 27.0097 18.4378 24.2698 19.2342 23.6259L19.1025 23.4942Z" fill="url(#paint32_linear_54769_49223)"/>
<path d="M6.84457 17.5864C3.51623 15.4763 0.847368 14.6923 0.82086 14.6847L0.656189 14.6372L0.678279 14.4714C0.690328 14.3814 0.74736 14.2649 1.08031 14.0207C1.92415 13.4022 4.76812 11.8901 7.74664 12.3295C9.35116 12.5652 10.7348 13.2821 11.7369 13.9605C11.3461 12.8713 11.022 11.4286 11.2216 9.91162C11.5879 7.1279 13.7655 4.97594 14.5732 4.38192C14.8945 4.14536 15.0214 4.12247 15.1134 4.13813L15.2833 4.16265L15.2853 4.32932C15.2857 4.35542 15.3275 6.94476 16.4565 10.4803C17.2172 12.864 14.9479 14.822 13.7386 15.667L13.7824 15.7152L13.647 15.8458C13.5249 15.9635 11.222 18.1463 8.7953 18.1463C8.13984 18.1459 7.47634 17.9869 6.84457 17.5864ZM13.1305 15.5992L13.3221 15.4714C14.3893 14.7598 16.7934 12.8608 16.0709 10.5964C15.1496 7.71067 14.9411 5.43461 14.8945 4.63897C14.1776 5.14262 11.9799 7.23675 11.6212 9.96143C11.3911 11.7085 11.8943 13.3621 12.3574 14.4413L12.6542 15.1341L12.0469 14.6706C11.0742 13.9288 9.52829 12.9873 7.68639 12.7166C4.8123 12.2977 1.87434 13.8685 1.20844 14.3959C1.98038 14.6537 4.30222 15.5068 7.06506 17.2579C9.46161 18.7773 12.5317 16.2996 13.2213 15.6947L13.1305 15.5992Z" fill="url(#paint33_linear_54769_49223)"/>
<path d="M8.50248 7.77051C9.60657 9.87427 10.8211 11.9194 12.1385 13.8966C13.4426 15.8823 14.886 17.7768 16.4074 19.6027C19.402 23.2652 22.9071 26.577 26.6957 29.4599C28.591 30.9022 30.563 32.2429 32.6073 33.4683C38.6913 37.1139 45.5608 39.8052 52.3553 42.0777C56.9371 43.6059 61.5997 44.9461 66.2554 46.3968C66.8366 46.5784 67.417 46.7676 67.9977 46.9559C72.0759 48.2773 76.1264 49.7605 79.9965 51.5864C82.2168 52.6338 84.4254 53.7492 86.5331 54.9971C88.663 56.2249 90.7025 57.6097 92.6552 59.0917L94.0995 60.2291C97.3632 62.7988 100.379 66.1741 102.631 69.6788C102.515 69.8418 101.803 70.1459 101.667 69.9989C98.9067 67.0352 96.2487 64.0463 92.9372 61.6887L91.4471 60.7139C89.447 59.4472 87.4043 58.2495 85.2812 57.1843C83.151 56.116 80.995 55.0633 78.7832 54.1629C76.5915 53.2162 74.3564 52.3539 72.11 51.5105L70.4236 50.8795L68.7275 50.2658C67.5945 49.8577 66.4595 49.4481 65.3184 49.0505C60.7639 47.4307 56.1563 45.8703 51.5689 44.2124C48.1277 42.9685 44.6929 41.6194 41.373 40.0952L40.5388 39.7121C38.0306 38.5602 35.6083 37.2492 33.2463 35.8371L31.6932 34.8599C29.6369 33.5349 27.6612 32.0951 25.7739 30.5584C20.1872 25.926 15.329 20.3762 11.6135 14.2135C10.3769 12.1624 9.25032 10.0522 8.23981 7.89342L8.50248 7.77051Z" fill="url(#paint34_linear_54769_49223)"/>
<path d="M101.517 70.1302L100.759 69.3144C98.2131 66.5689 95.8085 63.9759 92.8244 61.8513L91.3367 60.8777C89.1157 59.4704 87.1047 58.3193 85.1889 57.3582C82.8076 56.1637 80.7938 55.1938 78.7013 54.3415C76.4112 53.3523 74.0476 52.4474 72.0378 51.6927L70.3529 51.0626L68.3906 50.3529C67.3471 49.977 66.3013 49.6006 65.249 49.2335C63.3107 48.5439 61.3628 47.8656 59.4108 47.1856C56.8167 46.2823 54.1342 45.3477 51.4986 44.395C47.604 42.9873 44.2636 41.6386 41.2867 40.2715C40.73 40.0156 40.5312 39.9245 40.4541 39.8855L40.4525 39.8883C38.0925 38.8043 35.7004 37.5335 33.1367 36.0009L31.5816 35.0229C29.5506 33.714 27.5532 32.2625 25.6431 30.7074C19.9133 25.9564 15.1343 20.4408 11.4389 14.3127C10.2042 12.2643 9.06642 10.1321 8.05551 7.97449L7.97357 7.79978L8.59209 7.51221L8.68125 7.68211C9.77691 9.769 10.9963 11.8242 12.3076 13.7918C13.5193 15.6373 14.9114 17.4976 16.5641 19.4817C19.4675 23.033 22.9176 26.3384 26.819 29.3069C28.7216 30.7548 30.704 32.099 32.7122 33.3023C39.4814 37.3584 47.2016 40.1482 52.4196 41.8933C55.415 42.8922 58.5023 43.8283 61.4877 44.7336C63.0954 45.2212 64.706 45.7096 66.3161 46.2113C66.8206 46.3687 67.3238 46.5318 67.8279 46.6952L68.06 46.7707C72.8266 48.315 76.647 49.7898 80.0833 51.4104C82.6952 52.6434 84.778 53.7298 86.6344 54.8291C88.647 55.989 90.7138 57.371 92.7802 58.9398L94.2245 60.0769C97.4524 62.6188 100.498 65.9921 102.8 69.5751L102.87 69.684L102.795 69.79C102.654 69.988 102.119 70.2145 101.837 70.2322C101.822 70.2334 101.807 70.2338 101.793 70.2338C101.674 70.2334 101.581 70.1984 101.517 70.1302ZM93.9722 60.3809L92.5308 59.2459C90.48 57.6896 88.4277 56.3163 86.4279 55.1641C84.5804 54.0704 82.5084 52.9892 79.9078 51.7626C76.4879 50.1493 72.6828 48.6805 67.9331 47.1418L67.701 47.0663C67.1985 46.9032 66.6965 46.7402 66.1936 46.5836C64.5847 46.0823 62.9749 45.5939 61.3684 45.1072C58.3802 44.2011 55.2901 43.264 52.2891 42.2632C47.053 40.5121 39.3042 37.7123 32.501 33.6357C30.4807 32.4248 28.485 31.0721 26.5708 29.6149C22.6449 26.6276 19.1719 23.3004 16.25 19.7267C14.5889 17.733 13.188 15.8602 11.9686 14.0038C11.1023 12.7033 10.2749 11.3643 9.49697 10.0032C10.2131 11.3988 10.979 12.7748 11.7871 14.1151C15.4592 20.2054 20.2093 25.6878 25.9033 30.409C27.8006 31.9537 29.7859 33.3967 31.8025 34.696L33.3516 35.6708C35.8992 37.1938 38.2781 38.4577 40.6268 39.5361C40.6521 39.5481 41.4594 39.9188 41.4594 39.9188C44.4259 41.2812 47.7558 42.6255 51.6388 44.0296C54.2723 44.9815 56.9536 45.9157 59.547 46.8185C61.5001 47.4989 63.4485 48.1776 65.3867 48.8668C66.439 49.2339 67.4857 49.6107 68.5311 49.987L72.1832 51.3285C74.1978 52.0848 76.5674 52.992 78.8616 53.9833C80.9625 54.8387 82.9843 55.8127 85.3745 57.0116C87.3023 57.9787 89.3249 59.1362 91.56 60.5524L93.0569 61.532C96.0812 63.6852 98.6119 66.4142 101.059 69.0534L101.794 69.8442C101.923 69.837 102.207 69.7353 102.368 69.641C100.1 66.1455 97.1239 62.8622 93.9722 60.3809Z" fill="url(#paint35_linear_54769_49223)"/>
<path d="M4.70673 7.13603C2.59695 4.25431 2.57927 0.428358 2.81062 0.277344C2.81062 0.277344 3.63396 1.62001 7.05468 3.92017C9.94966 5.86689 10.1525 11.2291 10.1525 11.2291C10.1525 11.2291 6.81611 10.0174 4.70673 7.13603Z" fill="url(#paint36_linear_54769_49223)"/>
<path d="M10.0822 11.4124C9.9436 11.3618 6.66345 10.1469 4.54242 7.24949C2.55956 4.54087 2.41497 1.12497 2.55032 0.400016C2.57883 0.249002 2.62261 0.163454 2.69772 0.114455L2.87363 0L2.98288 0.176328C2.99131 0.18918 3.84157 1.52138 7.16911 3.75848C10.1135 5.73813 10.3452 10.9988 10.3541 11.2213L10.3649 11.5148L10.0822 11.4124ZM4.87056 7.02217C6.55822 9.32715 9.07767 10.5573 9.92954 10.9252C9.83234 9.76652 9.32387 5.68391 6.94018 4.08059C4.50628 2.44393 3.37407 1.28883 2.91139 0.738993C2.85556 1.7724 3.1857 4.72081 4.87056 7.02217Z" fill="url(#paint37_linear_54769_49223)"/>
<defs>
<linearGradient id="paint0_linear_54769_49223" x1="122.71" y1="29.8643" x2="122.71" y2="49.1194" gradientUnits="userSpaceOnUse">
<stop stop-color="#39D68F" stop-opacity="0.4"/>
<stop offset="1" stop-color="#FDFDFD"/>
</linearGradient>
<linearGradient id="paint1_linear_54769_49223" x1="122.713" y1="29.6064" x2="122.713" y2="49.3379" gradientUnits="userSpaceOnUse">
<stop stop-color="#39D68F" stop-opacity="0.4"/>
<stop offset="1" stop-color="#FDFDFD"/>
</linearGradient>
<linearGradient id="paint2_linear_54769_49223" x1="109.656" y1="36.3599" x2="109.656" y2="63.7389" gradientUnits="userSpaceOnUse">
<stop stop-color="#39D68F" stop-opacity="0.4"/>
<stop offset="1" stop-color="#FDFDFD"/>
</linearGradient>
<linearGradient id="paint3_linear_54769_49223" x1="127.322" y1="46.7949" x2="127.322" y2="56.7006" gradientUnits="userSpaceOnUse">
<stop stop-color="#39D68F" stop-opacity="0.4"/>
<stop offset="1" stop-color="#FDFDFD"/>
</linearGradient>
<linearGradient id="paint4_linear_54769_49223" x1="143.289" y1="26.6523" x2="143.289" y2="49.9542" gradientUnits="userSpaceOnUse">
<stop stop-color="#39D68F" stop-opacity="0.4"/>
<stop offset="1" stop-color="#FDFDFD"/>
</linearGradient>
<linearGradient id="paint5_linear_54769_49223" x1="155.968" y1="18.0352" x2="155.968" y2="42.416" gradientUnits="userSpaceOnUse">
<stop stop-color="#39D68F" stop-opacity="0.4"/>
<stop offset="1" stop-color="#FDFDFD"/>
</linearGradient>
<linearGradient id="paint6_linear_54769_49223" x1="164.222" y1="14.1304" x2="164.222" y2="34.852" gradientUnits="userSpaceOnUse">
<stop stop-color="#39D68F" stop-opacity="0.4"/>
<stop offset="1" stop-color="#FDFDFD"/>
</linearGradient>
<linearGradient id="paint7_linear_54769_49223" x1="170.627" y1="10.1147" x2="170.627" y2="26.509" gradientUnits="userSpaceOnUse">
<stop stop-color="#39D68F" stop-opacity="0.4"/>
<stop offset="1" stop-color="#FDFDFD"/>
</linearGradient>
<linearGradient id="paint8_linear_54769_49223" x1="175.358" y1="4.81982" x2="175.358" y2="18.4332" gradientUnits="userSpaceOnUse">
<stop stop-color="#39D68F" stop-opacity="0.4"/>
<stop offset="1" stop-color="#FDFDFD"/>
</linearGradient>
<linearGradient id="paint9_linear_54769_49223" x1="109.663" y1="36.1016" x2="109.663" y2="63.936" gradientUnits="userSpaceOnUse">
<stop stop-color="#39D68F" stop-opacity="0.4"/>
<stop offset="1" stop-color="#FDFDFD"/>
</linearGradient>
<linearGradient id="paint10_linear_54769_49223" x1="127.282" y1="46.6006" x2="127.282" y2="56.8921" gradientUnits="userSpaceOnUse">
<stop stop-color="#39D68F" stop-opacity="0.4"/>
<stop offset="1" stop-color="#FDFDFD"/>
</linearGradient>
<linearGradient id="paint11_linear_54769_49223" x1="143.29" y1="26.3999" x2="143.29" y2="50.1469" gradientUnits="userSpaceOnUse">
<stop stop-color="#39D68F" stop-opacity="0.4"/>
<stop offset="1" stop-color="#FDFDFD"/>
</linearGradient>
<linearGradient id="paint12_linear_54769_49223" x1="155.967" y1="17.8125" x2="155.967" y2="42.6094" gradientUnits="userSpaceOnUse">
<stop stop-color="#39D68F" stop-opacity="0.4"/>
<stop offset="1" stop-color="#FDFDFD"/>
</linearGradient>
<linearGradient id="paint13_linear_54769_49223" x1="164.223" y1="13.9292" x2="164.223" y2="35.0527" gradientUnits="userSpaceOnUse">
<stop stop-color="#39D68F" stop-opacity="0.4"/>
<stop offset="1" stop-color="#FDFDFD"/>
</linearGradient>
<linearGradient id="paint14_linear_54769_49223" x1="170.636" y1="9.91943" x2="170.636" y2="26.7126" gradientUnits="userSpaceOnUse">
<stop stop-color="#39D68F" stop-opacity="0.4"/>
<stop offset="1" stop-color="#FDFDFD"/>
</linearGradient>
<linearGradient id="paint15_linear_54769_49223" x1="175.368" y1="4.62305" x2="175.368" y2="18.6351" gradientUnits="userSpaceOnUse">
<stop stop-color="#39D68F" stop-opacity="0.4"/>
<stop offset="1" stop-color="#FDFDFD"/>
</linearGradient>
<linearGradient id="paint16_linear_54769_49223" x1="128.564" y1="8.25977" x2="128.564" y2="70.5267" gradientUnits="userSpaceOnUse">
<stop stop-color="#39D68F" stop-opacity="0.4"/>
<stop offset="1" stop-color="#FDFDFD"/>
</linearGradient>
<linearGradient id="paint17_linear_54769_49223" x1="128.577" y1="8.00098" x2="128.577" y2="70.7225" gradientUnits="userSpaceOnUse">
<stop stop-color="#39D68F" stop-opacity="0.4"/>
<stop offset="1" stop-color="#FDFDFD"/>
</linearGradient>
<linearGradient id="paint18_linear_54769_49223" x1="177.567" y1="0.766602" x2="177.567" y2="11.7184" gradientUnits="userSpaceOnUse">
<stop stop-color="#39D68F" stop-opacity="0.4"/>
<stop offset="1" stop-color="#FDFDFD"/>
</linearGradient>
<linearGradient id="paint19_linear_54769_49223" x1="177.56" y1="0.489746" x2="177.56" y2="12.0046" gradientUnits="userSpaceOnUse">
<stop stop-color="#39D68F" stop-opacity="0.4"/>
<stop offset="1" stop-color="#FDFDFD"/>
</linearGradient>
<linearGradient id="paint20_linear_54769_49223" x1="74.344" y1="35.8706" x2="74.344" y2="63.2496" gradientUnits="userSpaceOnUse">
<stop stop-color="#39D68F" stop-opacity="0.4"/>
<stop offset="1" stop-color="#FDFDFD"/>
</linearGradient>
<linearGradient id="paint21_linear_54769_49223" x1="56.6782" y1="46.3052" x2="56.6782" y2="56.2109" gradientUnits="userSpaceOnUse">
<stop stop-color="#39D68F" stop-opacity="0.4"/>
<stop offset="1" stop-color="#FDFDFD"/>
</linearGradient>
<linearGradient id="paint22_linear_54769_49223" x1="40.7103" y1="26.1626" x2="40.7103" y2="49.4644" gradientUnits="userSpaceOnUse">
<stop stop-color="#39D68F" stop-opacity="0.4"/>
<stop offset="1" stop-color="#FDFDFD"/>
</linearGradient>
<linearGradient id="paint23_linear_54769_49223" x1="28.0318" y1="17.5454" x2="28.0318" y2="41.9263" gradientUnits="userSpaceOnUse">
<stop stop-color="#39D68F" stop-opacity="0.4"/>
<stop offset="1" stop-color="#FDFDFD"/>
</linearGradient>
<linearGradient id="paint24_linear_54769_49223" x1="19.7776" y1="13.6411" x2="19.7776" y2="34.3624" gradientUnits="userSpaceOnUse">
<stop stop-color="#39D68F" stop-opacity="0.4"/>
<stop offset="1" stop-color="#FDFDFD"/>
</linearGradient>
<linearGradient id="paint25_linear_54769_49223" x1="13.3726" y1="9.62598" x2="13.3726" y2="26.0204" gradientUnits="userSpaceOnUse">
<stop stop-color="#39D68F" stop-opacity="0.4"/>
<stop offset="1" stop-color="#FDFDFD"/>
</linearGradient>
<linearGradient id="paint26_linear_54769_49223" x1="8.64195" y1="4.33057" x2="8.64195" y2="17.9439" gradientUnits="userSpaceOnUse">
<stop stop-color="#39D68F" stop-opacity="0.4"/>
<stop offset="1" stop-color="#FDFDFD"/>
</linearGradient>
<linearGradient id="paint27_linear_54769_49223" x1="74.3371" y1="35.6123" x2="74.3371" y2="63.4468" gradientUnits="userSpaceOnUse">
<stop stop-color="#39D68F" stop-opacity="0.4"/>
<stop offset="1" stop-color="#FDFDFD"/>
</linearGradient>
<linearGradient id="paint28_linear_54769_49223" x1="56.7179" y1="46.1108" x2="56.7179" y2="56.4023" gradientUnits="userSpaceOnUse">
<stop stop-color="#39D68F" stop-opacity="0.4"/>
<stop offset="1" stop-color="#FDFDFD"/>
</linearGradient>
<linearGradient id="paint29_linear_54769_49223" x1="40.7083" y1="25.9102" x2="40.7083" y2="49.6572" gradientUnits="userSpaceOnUse">
<stop stop-color="#39D68F" stop-opacity="0.4"/>
<stop offset="1" stop-color="#FDFDFD"/>
</linearGradient>
<linearGradient id="paint30_linear_54769_49223" x1="28.0335" y1="17.3213" x2="28.0335" y2="42.1182" gradientUnits="userSpaceOnUse">
<stop stop-color="#39D68F" stop-opacity="0.4"/>
<stop offset="1" stop-color="#FDFDFD"/>
</linearGradient>
<linearGradient id="paint31_linear_54769_49223" x1="19.7762" y1="13.4404" x2="19.7762" y2="34.564" gradientUnits="userSpaceOnUse">
<stop stop-color="#39D68F" stop-opacity="0.4"/>
<stop offset="1" stop-color="#FDFDFD"/>
</linearGradient>
<linearGradient id="paint32_linear_54769_49223" x1="13.3629" y1="9.43018" x2="13.3629" y2="26.2233" gradientUnits="userSpaceOnUse">
<stop stop-color="#39D68F" stop-opacity="0.4"/>
<stop offset="1" stop-color="#FDFDFD"/>
</linearGradient>
<linearGradient id="paint33_linear_54769_49223" x1="8.63262" y1="4.13428" x2="8.63262" y2="18.1463" gradientUnits="userSpaceOnUse">
<stop stop-color="#39D68F" stop-opacity="0.4"/>
<stop offset="1" stop-color="#FDFDFD"/>
</linearGradient>
<linearGradient id="paint34_linear_54769_49223" x1="55.4352" y1="7.77051" x2="55.4352" y2="70.0379" gradientUnits="userSpaceOnUse">
<stop stop-color="#39D68F" stop-opacity="0.4"/>
<stop offset="1" stop-color="#FDFDFD"/>
</linearGradient>
<linearGradient id="paint35_linear_54769_49223" x1="55.4216" y1="7.51221" x2="55.4216" y2="70.2338" gradientUnits="userSpaceOnUse">
<stop stop-color="#39D68F" stop-opacity="0.4"/>
<stop offset="1" stop-color="#FDFDFD"/>
</linearGradient>
<linearGradient id="paint36_linear_54769_49223" x1="6.4325" y1="0.277344" x2="6.4325" y2="11.2291" gradientUnits="userSpaceOnUse">
<stop stop-color="#39D68F" stop-opacity="0.4"/>
<stop offset="1" stop-color="#FDFDFD"/>
</linearGradient>
<linearGradient id="paint37_linear_54769_49223" x1="6.43905" y1="0" x2="6.43905" y2="11.5148" gradientUnits="userSpaceOnUse">
<stop stop-color="#39D68F" stop-opacity="0.4"/>
<stop offset="1" stop-color="#FDFDFD"/>
</linearGradient>
</defs>
</svg>
