<svg width="77" height="16" viewBox="0 0 77 16" fill="none" xmlns="http://www.w3.org/2000/svg">
<path d="M7.71146 1.15037C7.80439 0.864359 8.20902 0.86436 8.30195 1.15037L9.60976 5.17539C9.65132 5.3033 9.77051 5.3899 9.905 5.3899H14.1372C14.4379 5.3899 14.5629 5.77473 14.3196 5.95149L10.8957 8.43909C10.7869 8.51814 10.7414 8.65827 10.783 8.78617L12.0908 12.8112C12.1837 13.0972 11.8564 13.335 11.6131 13.1583L8.18917 10.6707C8.08037 10.5916 7.93304 10.5916 7.82423 10.6707L4.40034 13.1583C4.15705 13.335 3.82969 13.0972 3.92262 12.8112L5.23043 8.78617C5.27199 8.65827 5.22646 8.51814 5.11766 8.43909L1.69377 5.95149C1.45047 5.77473 1.57551 5.3899 1.87624 5.3899H6.1084C6.24289 5.3899 6.36209 5.3033 6.40365 5.17539L7.71146 1.15037Z" fill="#41FDA8"/>
<path d="M22.6126 1.15037C22.7055 0.864359 23.1101 0.86436 23.2031 1.15037L24.5109 5.17539C24.5524 5.3033 24.6716 5.3899 24.8061 5.3899H29.0383C29.339 5.3899 29.4641 5.77473 29.2208 5.95149L25.7969 8.43909C25.6881 8.51814 25.6425 8.65827 25.6841 8.78617L26.9919 12.8112C27.0848 13.0972 26.7575 13.335 26.5142 13.1583L23.0903 10.6707C22.9815 10.5916 22.8342 10.5916 22.7254 10.6707L19.3015 13.1583C19.0582 13.335 18.7308 13.0972 18.8237 12.8112L20.1316 8.78617C20.1731 8.65827 20.1276 8.51814 20.0188 8.43909L16.5949 5.95149C16.3516 5.77473 16.4766 5.3899 16.7774 5.3899H21.0095C21.144 5.3899 21.2632 5.3033 21.3048 5.17539L22.6126 1.15037Z" fill="#41FDA8"/>
<path d="M37.5137 1.15037C37.6066 0.864359 38.0113 0.86436 38.1042 1.15037L39.412 5.17539C39.4536 5.3033 39.5728 5.3899 39.7072 5.3899H43.9394C44.2401 5.3899 44.3652 5.77473 44.1219 5.95149L40.698 8.43909C40.5892 8.51814 40.5437 8.65827 40.5852 8.78617L41.893 12.8112C41.986 13.0972 41.6586 13.335 41.4153 13.1583L37.9914 10.6707C37.8826 10.5916 37.7353 10.5916 37.6265 10.6707L34.2026 13.1583C33.9593 13.335 33.6319 13.0972 33.7249 12.8112L35.0327 8.78617C35.0742 8.65827 35.0287 8.51814 34.9199 8.43909L31.496 5.95149C31.2527 5.77473 31.3778 5.3899 31.6785 5.3899H35.9106C36.0451 5.3899 36.1643 5.3033 36.2059 5.17539L37.5137 1.15037Z" fill="#41FDA8"/>
<path d="M52.4148 1.15037C52.5078 0.864359 52.9124 0.86436 53.0053 1.15037L54.3131 5.17539C54.3547 5.3033 54.4739 5.3899 54.6084 5.3899H58.8405C59.1413 5.3899 59.2663 5.77473 59.023 5.95149L55.5991 8.43909C55.4903 8.51814 55.4448 8.65827 55.4863 8.78617L56.7941 12.8112C56.8871 13.0972 56.5597 13.335 56.3164 13.1583L52.8925 10.6707C52.7837 10.5916 52.6364 10.5916 52.5276 10.6707L49.1037 13.1583C48.8604 13.335 48.5331 13.0972 48.626 12.8112L49.9338 8.78617C49.9754 8.65827 49.9298 8.51814 49.821 8.43909L46.3971 5.95149C46.1538 5.77473 46.2789 5.3899 46.5796 5.3899H50.8118C50.9463 5.3899 51.0655 5.3033 51.107 5.17539L52.4148 1.15037Z" fill="#41FDA8"/>
<path d="M67.3159 1.15037C67.4089 0.864359 67.8135 0.86436 67.9064 1.15037L69.2142 5.17539C69.2558 5.3033 69.375 5.3899 69.5095 5.3899H73.7417C74.0424 5.3899 74.1674 5.77473 73.9241 5.95149L70.5002 8.43909C70.3914 8.51814 70.3459 8.65827 70.3875 8.78617L71.6953 12.8112C71.7882 13.0972 71.4608 13.335 71.2176 13.1583L67.7937 10.6707C67.6849 10.5916 67.5375 10.5916 67.4287 10.6707L64.0048 13.1583C63.7615 13.335 63.4342 13.0972 63.5271 12.8112L64.8349 8.78617C64.8765 8.65827 64.831 8.51814 64.7222 8.43909L61.2983 5.95149C61.055 5.77473 61.18 5.3899 61.4807 5.3899H65.7129C65.8474 5.3899 65.9666 5.3033 66.0081 5.17539L67.3159 1.15037Z" fill="#41FDA8"/>
</svg>
