<svg width="38" height="32" viewBox="0 0 38 32" fill="none" xmlns="http://www.w3.org/2000/svg">
<path fill-rule="evenodd" clip-rule="evenodd" d="M0 9.15855L7.65149 14.3154L29.7996 14.4578L38 9.23757L32.4631 3.11609L18.5158 0.790955L6.87664 3.11609L0 9.15855Z" fill="#86EFC5"/>
<path fill-rule="evenodd" clip-rule="evenodd" d="M29.7986 14.4578L37.999 9.23757L32.4621 3.11609L27.5547 7.75072L29.7986 14.4578Z" fill="#52EBC2"/>
<path fill-rule="evenodd" clip-rule="evenodd" d="M7.65234 14.3154L29.8005 14.4578L27.5565 7.75068L11.3653 7.59265L7.65234 14.3154Z" fill="#3AE1B4"/>
<path fill-rule="evenodd" clip-rule="evenodd" d="M0 9.15855L7.65149 14.3154L11.3645 7.59269L6.87664 3.11609L0 9.15855Z" fill="#52EBC2"/>
<path fill-rule="evenodd" clip-rule="evenodd" d="M0 9.15857L19.6942 32L7.65149 14.3154L0 9.15857Z" fill="#2FC794"/>
<path fill-rule="evenodd" clip-rule="evenodd" d="M29.8005 14.4578L7.65234 14.3154L19.6951 32L29.8005 14.4578Z" fill="#43CFAE"/>
<path fill-rule="evenodd" clip-rule="evenodd" d="M38.0011 9.23755L29.8007 14.4578L19.6953 32L38.0011 9.23755Z" fill="#2FC794"/>
<path fill-rule="evenodd" clip-rule="evenodd" d="M29.0883 0C29.1207 1.32882 29.1366 4.06507 30.1215 5.59966C30.5574 6.27992 31.3482 6.54864 32.1554 6.61202C31.2999 6.69103 30.3634 7.16552 29.9115 7.90916C29.0073 9.44333 29.1207 11.943 29.0883 13.224C29.056 11.5948 29.169 9.28531 28.3458 7.90916C27.7969 6.99186 26.6991 6.65935 25.3594 6.61202C26.6025 6.56469 27.668 6.35893 28.2165 5.55233C29.153 4.17577 29.0564 1.70825 29.0883 0Z" fill="#FEFEFE"/>
<path fill-rule="evenodd" clip-rule="evenodd" d="M11.7677 11.6578H11.7836C11.7996 13.287 11.8319 16.6562 13.0427 18.5229C13.5753 19.3772 14.5441 19.6933 15.5449 19.7727C14.4958 19.8678 13.3493 20.453 12.7844 21.3863C11.6707 23.253 11.7996 26.3217 11.7836 27.9033H11.7677C11.7353 25.9102 11.8647 23.0629 10.8635 21.3702C10.2016 20.2311 8.84551 19.8361 7.19922 19.7727C8.71658 19.7254 10.0244 19.4723 10.7022 18.4756C11.8483 16.7986 11.7353 13.7615 11.7677 11.6578Z" fill="#FEFEFE"/>
</svg>
