<svg width="16" height="16" viewBox="0 0 16 16" fill="none" xmlns="http://www.w3.org/2000/svg">
<path d="M5.837 8.92369C6.00802 8.92369 6.14665 8.78505 6.14665 8.61404C6.14665 8.44302 6.00802 8.30438 5.837 8.30438C5.66598 8.30438 5.52734 8.44302 5.52734 8.61404C5.52734 8.78505 5.66598 8.92369 5.837 8.92369Z" fill="black"/>
<path d="M7.94247 8.92369C8.11348 8.92369 8.25212 8.78505 8.25212 8.61404C8.25212 8.44302 8.11348 8.30438 7.94247 8.30438C7.77145 8.30438 7.63281 8.44302 7.63281 8.61404C7.63281 8.78505 7.77145 8.92369 7.94247 8.92369Z" fill="black"/>
<path d="M12.1196 11.4187H12.4115C12.4655 11.4187 12.5172 11.4402 12.5554 11.4783C12.5935 11.5165 12.615 11.5682 12.615 11.6222C12.615 11.6714 12.6346 11.7187 12.6694 11.7535C12.7043 11.7884 12.7515 11.808 12.8008 11.808C12.8501 11.808 12.8974 11.7884 12.9322 11.7535C12.967 11.7187 12.9866 11.6714 12.9866 11.6222C12.9865 11.5459 12.9713 11.4705 12.9418 11.4002C12.9123 11.3298 12.8692 11.2661 12.8149 11.2126C12.7605 11.1591 12.6961 11.1169 12.6254 11.0885C12.5546 11.0601 12.479 11.046 12.4027 11.0471V10.8436C12.4027 10.7943 12.3832 10.747 12.3483 10.7122C12.3135 10.6774 12.2662 10.6578 12.2169 10.6578C12.1677 10.6578 12.1204 10.6774 12.0856 10.7122C12.0507 10.747 12.0311 10.7943 12.0311 10.8436V11.0541C11.8629 11.0776 11.7098 11.1638 11.6026 11.2955C11.4954 11.4272 11.4421 11.5947 11.4533 11.7641C11.4645 11.9336 11.5394 12.0925 11.663 12.209C11.7866 12.3254 11.9498 12.3908 12.1196 12.3918H12.3143C12.393 12.3934 12.468 12.4258 12.5231 12.4821C12.5782 12.5383 12.6091 12.6139 12.6091 12.6926C12.6091 12.7714 12.5782 12.847 12.5231 12.9032C12.468 12.9594 12.393 12.9918 12.3143 12.9934H12.0224C11.9684 12.9934 11.9167 12.9719 11.8785 12.9338C11.8404 12.8956 11.8189 12.8439 11.8189 12.7899C11.8189 12.7407 11.7993 12.6934 11.7644 12.6586C11.7296 12.6237 11.6823 12.6041 11.6331 12.6041C11.5838 12.6041 11.5365 12.6237 11.5017 12.6586C11.4668 12.6934 11.4473 12.7407 11.4473 12.7899C11.4474 12.8662 11.4626 12.9416 11.4921 13.0119C11.5216 13.0822 11.5647 13.146 11.6191 13.1995C11.6734 13.253 11.7378 13.2951 11.8085 13.3236C11.8792 13.352 11.9549 13.3661 12.0311 13.365V13.5685C12.0311 13.6178 12.0507 13.6651 12.0856 13.6999C12.1204 13.7347 12.1677 13.7543 12.2169 13.7543C12.2662 13.7543 12.3135 13.7347 12.3483 13.6999C12.3832 13.6651 12.4027 13.6178 12.4027 13.5685V13.3586C12.5719 13.3362 12.7261 13.2503 12.8343 13.1183C12.9424 12.9864 12.9963 12.8182 12.9851 12.648C12.9738 12.4778 12.8983 12.3182 12.7737 12.2016C12.6491 12.085 12.4849 12.0202 12.3143 12.0203H12.1196C12.0409 12.0187 11.9659 11.9863 11.9108 11.93C11.8557 11.8738 11.8248 11.7982 11.8248 11.7195C11.8248 11.6407 11.8557 11.5651 11.9108 11.5089C11.9659 11.4526 12.0409 11.4203 12.1196 11.4187Z" fill="black"/>
<path d="M2.38445 13.1015L2.64208 15.414C2.65736 15.5538 2.72373 15.6829 2.82844 15.7766C2.93316 15.8704 3.06882 15.9221 3.20937 15.9219H4.70314C4.84368 15.9221 4.97934 15.8704 5.08406 15.7766C5.18877 15.6829 5.25515 15.5538 5.27042 15.414L5.35713 14.6325C6.36621 14.8647 7.41486 14.8647 8.42394 14.6325L8.51064 15.414C8.52592 15.5538 8.59229 15.6829 8.69701 15.7766C8.80172 15.8704 8.93739 15.9221 9.07793 15.9219H9.81119C9.85056 15.9212 9.88872 15.9081 9.92023 15.8845C9.95174 15.8609 9.97498 15.8279 9.98665 15.7903C9.99832 15.7527 9.99782 15.7123 9.98522 15.675C9.97261 15.6377 9.94855 15.6053 9.91647 15.5825C9.19405 15.091 8.64823 14.3808 8.35914 13.5563C8.07004 12.7317 8.0529 11.8362 8.31022 11.0011C8.56755 10.1661 9.08578 9.43559 9.78886 8.91679C10.4919 8.39798 11.3428 8.11823 12.2166 8.1186C12.6378 8.11813 13.0565 8.18332 13.4577 8.31182C13.4852 8.32014 13.5142 8.32201 13.5426 8.3173C13.5709 8.31259 13.5978 8.30143 13.6212 8.28466C13.6445 8.2679 13.6637 8.24599 13.6772 8.22063C13.6908 8.19527 13.6983 8.16714 13.6992 8.13841C13.737 6.47909 13.165 4.86351 12.0915 3.59765C12.5981 2.608 12.6972 0.977979 11.5688 0.276922C10.5321 -0.277977 9.20798 0.405738 8.51683 1.37805C7.44823 1.11794 6.33283 1.11794 5.26423 1.37805C4.57432 0.405738 3.249 -0.277977 2.20237 0.283115C1.0839 0.977979 1.18299 2.608 1.68959 3.59765C0.538394 4.9575 -0.0336618 6.71454 0.0962573 8.49149C0.226176 10.2684 1.04771 11.9236 2.38445 13.1015ZM8.40016 6.06175C8.41741 6.04449 8.4379 6.03079 8.46045 6.02145C8.483 6.0121 8.50716 6.00729 8.53157 6.00729C8.55598 6.00729 8.58015 6.0121 8.6027 6.02145C8.62525 6.03079 8.64574 6.04449 8.66299 6.06175C9.00757 6.40621 9.38721 6.40621 9.73179 6.06175C9.76663 6.0269 9.81389 6.00731 9.86317 6.0073C9.91245 6.00729 9.95971 6.02685 9.99457 6.06169C10.0294 6.09653 10.049 6.14378 10.049 6.19306C10.049 6.24234 10.0295 6.28961 9.99463 6.32446C9.89641 6.44003 9.77423 6.53286 9.63658 6.59653C9.49892 6.6602 9.34906 6.69317 9.19739 6.69317C9.04572 6.69317 8.89587 6.6602 8.75821 6.59653C8.62055 6.53286 8.49838 6.44003 8.40016 6.32446C8.36533 6.28962 8.34576 6.24237 8.34576 6.19311C8.34576 6.14384 8.36533 6.09659 8.40016 6.06175ZM9.38126 8.61404C9.38126 9.46869 8.26651 10.1623 6.89053 10.1623C5.51455 10.1623 4.3998 9.46869 4.3998 8.61404C4.3998 7.7594 5.51455 7.06577 6.89053 7.06577C8.26651 7.06577 9.38126 7.7594 9.38126 8.61404ZM3.78644 6.06175C3.80369 6.04449 3.82418 6.03079 3.84673 6.02145C3.86928 6.0121 3.89345 6.00729 3.91786 6.00729C3.94226 6.00729 3.96643 6.0121 3.98898 6.02145C4.01153 6.03079 4.03202 6.04449 4.04927 6.06175C4.39386 6.40621 4.77349 6.40621 5.11807 6.06175C5.15291 6.0269 5.20017 6.00731 5.24945 6.0073C5.29873 6.00729 5.34599 6.02685 5.38085 6.06169C5.4157 6.09653 5.43529 6.14378 5.4353 6.19306C5.43531 6.24234 5.41575 6.28961 5.38091 6.32446C5.27929 6.43596 5.15641 6.52601 5.01949 6.58933C4.88257 6.65266 4.73437 6.68797 4.58361 6.6932C4.43287 6.68796 4.28469 6.65264 4.14779 6.58932C4.0109 6.526 3.88804 6.43595 3.78644 6.32446C3.75161 6.28962 3.73204 6.24237 3.73204 6.19311C3.73204 6.14384 3.75161 6.09659 3.78644 6.06175Z" fill="black"/>
<path d="M12.2158 8.49017C11.4809 8.49017 10.7625 8.7081 10.1514 9.11641C9.54037 9.52471 9.0641 10.105 8.78285 10.784C8.50161 11.463 8.42802 12.2101 8.5714 12.9309C8.71478 13.6517 9.06868 14.3138 9.58835 14.8335C10.108 15.3532 10.7701 15.7071 11.4909 15.8505C12.2117 15.9938 12.9589 15.9203 13.6378 15.639C14.3168 15.3578 14.8972 14.8815 15.3055 14.2704C15.7138 13.6594 15.9317 12.9409 15.9317 12.206C15.9305 11.2209 15.5386 10.2765 14.842 9.57986C14.1454 8.88326 13.201 8.49139 12.2158 8.49017ZM12.2158 14.7452C11.7136 14.7452 11.2227 14.5963 10.8052 14.3173C10.3876 14.0382 10.0622 13.6417 9.86997 13.1777C9.67779 12.7137 9.6275 12.2032 9.72548 11.7107C9.82345 11.2181 10.0653 10.7657 10.4204 10.4106C10.7755 10.0555 11.2279 9.81362 11.7205 9.71565C12.213 9.61767 12.7236 9.66796 13.1875 9.86014C13.6515 10.0523 14.0481 10.3778 14.3271 10.7953C14.6061 11.2129 14.755 11.7038 14.755 12.206C14.7543 12.8792 14.4865 13.5246 14.0105 14.0006C13.5345 14.4767 12.889 14.7444 12.2158 14.7452Z" fill="black"/>
</svg>
