<svg width="25" height="24" viewBox="0 0 25 24" fill="none" xmlns="http://www.w3.org/2000/svg">
<path d="M14.5 4H20.5V10H14.5V4Z" stroke="#41FDA9" stroke-width="2" stroke-linecap="round" stroke-linejoin="round"/>
<path d="M4.5 14H10.5V20H4.5V14Z" stroke="#41FDA9" stroke-width="2" stroke-linecap="round" stroke-linejoin="round"/>
<path d="M14.5 17C14.5 17.7956 14.8161 18.5587 15.3787 19.1213C15.9413 19.6839 16.7044 20 17.5 20C18.2956 20 19.0587 19.6839 19.6213 19.1213C20.1839 18.5587 20.5 17.7956 20.5 17C20.5 16.2044 20.1839 15.4413 19.6213 14.8787C19.0587 14.3161 18.2956 14 17.5 14C16.7044 14 15.9413 14.3161 15.3787 14.8787C14.8161 15.4413 14.5 16.2044 14.5 17Z" stroke="#41FDA9" stroke-width="2" stroke-linecap="round" stroke-linejoin="round"/>
<path d="M4.5 7C4.5 7.39397 4.5776 7.78407 4.72836 8.14805C4.87913 8.51203 5.1001 8.84274 5.37868 9.12132C5.65726 9.3999 5.98797 9.62087 6.35195 9.77164C6.71593 9.9224 7.10603 10 7.5 10C7.89397 10 8.28407 9.9224 8.64805 9.77164C9.01203 9.62087 9.34274 9.3999 9.62132 9.12132C9.8999 8.84274 10.1209 8.51203 10.2716 8.14805C10.4224 7.78407 10.5 7.39397 10.5 7C10.5 6.60603 10.4224 6.21593 10.2716 5.85195C10.1209 5.48797 9.8999 5.15726 9.62132 4.87868C9.34274 4.6001 9.01203 4.37913 8.64805 4.22836C8.28407 4.0776 7.89397 4 7.5 4C7.10603 4 6.71593 4.0776 6.35195 4.22836C5.98797 4.37913 5.65726 4.6001 5.37868 4.87868C5.1001 5.15726 4.87913 5.48797 4.72836 5.85195C4.5776 6.21593 4.5 6.60603 4.5 7Z" stroke="#41FDA9" stroke-width="2" stroke-linecap="round" stroke-linejoin="round"/>
</svg>
