<svg width="41" height="41" viewBox="0 0 41 41" fill="none" xmlns="http://www.w3.org/2000/svg">
<path d="M5.40039 7.46668C5.40039 7.02466 5.57599 6.60073 5.88855 6.28817C6.20111 5.97561 6.62503 5.80002 7.06706 5.80002H10.4004C10.8424 5.80002 11.2663 5.97561 11.5789 6.28817C11.8915 6.60073 12.0671 7.02466 12.0671 7.46668V14.1334C12.0671 14.5754 11.8915 14.9993 11.5789 15.3119C11.2663 15.6244 10.8424 15.8 10.4004 15.8H7.06706C6.62503 15.8 6.20111 15.6244 5.88855 15.3119C5.57599 14.9993 5.40039 14.5754 5.40039 14.1334V7.46668Z" stroke="#313131" stroke-width="3" stroke-linecap="round" stroke-linejoin="round"/>
<path d="M27.0664 29.1334C27.0664 30.0174 27.4176 30.8653 28.0427 31.4904C28.6678 32.1155 29.5157 32.4667 30.3997 32.4667C31.2838 32.4667 32.1316 32.1155 32.7568 31.4904C33.3819 30.8653 33.7331 30.0174 33.7331 29.1334C33.7331 28.2493 33.3819 27.4015 32.7568 26.7763C32.1316 26.1512 31.2838 25.8 30.3997 25.8C29.5157 25.8 28.6678 26.1512 28.0427 26.7763C27.4176 27.4015 27.0664 28.2493 27.0664 29.1334Z" stroke="#313131" stroke-width="3" stroke-linecap="round" stroke-linejoin="round"/>
<path d="M17.0664 9.13336H28.7331C33.3347 9.13336 37.0664 14.3567 37.0664 20.8V29.1334H33.7331" stroke="#313131" stroke-width="3" stroke-linecap="round" stroke-linejoin="round"/>
<path d="M27.0677 29.1334H13.7344" stroke="#313131" stroke-width="3" stroke-linecap="round" stroke-linejoin="round"/>
<path d="M27.0664 9.13336L29.5664 20.8H37.0664" stroke="#313131" stroke-width="3" stroke-linecap="round" stroke-linejoin="round"/>
<path d="M16.2344 17.4667H28.7344" stroke="#313131" stroke-width="3" stroke-linecap="round" stroke-linejoin="round"/>
<path d="M20.4004 9.13336V17.4667" stroke="#313131" stroke-width="3" stroke-linecap="round" stroke-linejoin="round"/>
<path d="M8.73438 15.8V34.1333" stroke="#313131" stroke-width="3" stroke-linecap="round" stroke-linejoin="round"/>
</svg>
