<svg width="24" height="24" viewBox="0 0 24 24" fill="none" xmlns="http://www.w3.org/2000/svg">
<path d="M12.0001 0C5.37266 0 0 5.3726 0 12C0 18.6274 5.37266 24 12.0001 24C18.6273 24 24 18.6274 24 12C24 5.3726 18.6273 0 12.0001 0Z" fill="#F7B253"/>
<path d="M9.31915 17.909L8.99521 15.1912C9.00672 15.1521 9.01485 15.1117 9.01485 15.0691V13.8477V12.6434V3.64929C8.06687 3.64929 7.29883 5.98737 7.29883 7.18153V12.6288C7.29883 13.0799 7.64439 13.4723 8.1567 13.6832V15.0688C8.1567 15.1114 8.16512 15.1519 8.17663 15.1909L7.8524 17.9088C7.68621 18.9522 7.88188 20.2238 8.58592 20.2238C9.28996 20.2241 9.4859 18.9525 9.31915 17.909Z" fill="#E6E6E6"/>
<path d="M11.5166 11.9562L11.0904 17.909C10.9243 18.9525 11.1196 20.2241 11.824 20.2241C12.528 20.2241 12.7237 18.9527 12.5572 17.909L12.1313 11.9562C12.1285 11.9419 12.1375 11.922 12.1313 11.9562V9.93702C12.1313 8.54916 12.5375 7.66828 12.5375 7.66828C12.8068 7.48245 12.9805 7.19471 12.9805 6.87105V6.35987H12.9797C12.98 6.35706 12.9805 6.35453 12.9805 6.35144L12.7593 3.88733L12.5378 6.35144C12.5378 6.35453 12.5384 6.35706 12.5387 6.35987H12.3565C12.3568 6.35706 12.357 6.35453 12.357 6.35144L12.1358 3.88733L11.9146 6.35144C11.9146 6.35453 11.9152 6.35706 11.9152 6.35987H11.7333C11.7333 6.35706 11.7339 6.35453 11.7339 6.35144L11.5126 3.88733L11.2912 6.35144C11.2912 6.35453 11.292 6.35706 11.292 6.35987H11.1098C11.1101 6.35706 11.1107 6.35453 11.1107 6.35144L10.8895 3.88733L10.668 6.35144C10.668 6.35453 10.6688 6.35706 10.6688 6.35987H10.668V6.87105C10.668 7.19499 10.8415 7.48245 11.1107 7.66828C11.1107 7.66828 11.5169 8.54916 11.5169 9.93702V11.9562H11.5166Z" fill="#E6E6E6"/>
<path d="M16.3344 5.57587H16.1589L16.0253 7.06366C16.0253 7.06674 16.0258 7.06927 16.0258 7.07208H15.8437C15.8439 7.06927 15.8445 7.06646 15.8445 7.06366L15.7106 5.57587H15.5354L15.4015 7.06366C15.4015 7.06674 15.4021 7.06927 15.4024 7.07208H15.2205C15.2205 7.06927 15.2207 7.06646 15.2207 7.06366L15.0871 5.57587H14.9117L14.778 7.06366C14.778 7.06674 14.7786 7.06927 14.7786 7.07208H14.5967C14.5967 7.06927 14.5973 7.06646 14.5973 7.06366L14.4634 5.57587H14.2882L14.1543 7.06366C14.1543 7.06674 14.1551 7.06927 14.1551 7.07208H14.1543V7.58326C14.1543 7.90692 14.3281 8.19466 14.5973 8.38049H14.597C14.597 8.38049 15.0035 9.26137 15.0035 10.6492V11.9562L14.5773 17.9091C14.4114 18.9525 14.6068 20.2241 15.3109 20.2241C16.0152 20.2241 16.2108 18.9528 16.0444 17.9091L15.6182 11.9562C15.6177 11.9523 15.618 11.9481 15.6182 11.9444V10.6492C15.6182 9.26137 16.0247 8.38049 16.0247 8.38049C16.2939 8.19466 16.4674 7.90692 16.4674 7.58326V7.07208H16.4668C16.4668 7.06927 16.4674 7.06646 16.4674 7.06366L16.3344 5.57587Z" fill="#E6E6E6"/>
<path d="M16.8535 6.9143C16.8535 8.09527 16.1635 8.51017 15.3123 8.51017C14.4612 8.51017 13.7715 8.09527 13.7715 6.9143C13.7715 5.30805 14.4612 4.1167 15.3123 4.1167C16.1635 4.11698 16.8535 5.26567 16.8535 6.9143Z" fill="#E6E6E6"/>
<path d="M16.5456 6.80092C16.5456 7.759 15.9937 8.09529 15.3127 8.09529C14.632 8.09529 14.0801 7.759 14.0801 6.80092C14.0801 5.49812 14.632 4.53162 15.3127 4.53162C15.994 4.53162 16.5456 5.46359 16.5456 6.80092Z" fill="#D6D6D6"/>
<path d="M15.3124 7.07402C14.7423 7.07402 14.2639 6.83626 14.123 6.19679C14.0958 6.38796 14.0801 6.58923 14.0801 6.80089C14.0801 7.75897 14.632 8.09526 15.3127 8.09526C15.9937 8.09526 16.5456 7.75897 16.5456 6.80089C16.5456 6.58642 16.5299 6.38374 16.5035 6.19202C16.3634 6.83513 15.8842 7.07402 15.3124 7.07402Z" fill="#8F8F8F"/>
</svg>
