<svg width="24" height="24" viewBox="0 0 24 24" fill="none" xmlns="http://www.w3.org/2000/svg">
<path d="M24 12.0002C24.0004 18.6275 18.6272 24 11.9999 24C5.37237 24 0 18.6275 0 12.0002C0 5.37253 5.37222 2.64744e-08 11.9999 2.64744e-08C18.6272 -0.00043549 24 5.37253 24 12.0002Z" fill="#E57957"/>
<path d="M11.9999 15.7037V15.3334C11.8035 15.3334 11.6441 15.174 11.6441 14.9777C11.6441 14.7811 11.8035 14.6219 11.9999 14.6219V13.0099H6.74805V14.7848V15.7038H11.9999V15.7037ZM7.24452 14.2086C7.24452 13.922 7.47708 13.6897 7.76335 13.6897H8.12337H9.88861C10.175 13.6897 10.4074 13.9221 10.4074 14.2086V14.4824C10.4074 14.7688 10.1749 15.0008 9.88904 15.0008H8.12351H7.76349C7.47664 15.0008 7.24467 14.7686 7.24467 14.4824L7.24452 14.2086Z" fill="#3271CC"/>
<path d="M12 14.6219C12.1964 14.6219 12.3558 14.7813 12.3558 14.9777C12.3558 15.174 12.1964 15.3334 12 15.3334V15.7037H17.2517V14.7846V13.0097H12V14.6219ZM13.5928 14.2086C13.5928 13.922 13.8249 13.6897 14.1112 13.6897H15.8764H16.2364C16.5233 13.6897 16.7553 13.9221 16.7553 14.2086L16.7557 14.4824C16.7553 14.7688 16.5231 15.0008 16.2369 15.0008H15.8769H14.1115C13.8248 15.0008 13.5926 14.7686 13.5926 14.4824L13.5928 14.2086Z" fill="#2A303F"/>
<path d="M16.1032 6.81989H11.9989H7.89497L7.89453 10.4936L11.9989 10.494L16.1032 10.4936V6.81989Z" fill="#92CEFF"/>
<path d="M11.9999 11.225H6.74805V13.0099H11.9999V11.225Z" fill="white"/>
<path d="M17.2517 11.225H12V13.0099H17.2517V11.225Z" fill="#92CEFF"/>
<path d="M10.8592 17.0746C10.6914 17.0746 10.5555 16.9381 10.5555 16.7703V16.3329C10.5555 16.1651 10.6915 16.029 10.8596 16.029H11.9996V15.7037H6.74774H6.39062V16.3817C6.39062 17.1036 6.97623 17.6885 7.69801 17.6885H11.9996V17.0746H10.8592ZM8.66787 16.8346C8.66787 16.9669 8.56045 17.0746 8.42791 17.0746H7.61091H7.44396C7.31142 17.074 7.204 16.9669 7.204 16.8346V16.7074C7.204 16.5749 7.31142 16.4676 7.44396 16.4676H7.61091H8.42791C8.56045 16.4676 8.66787 16.5749 8.66787 16.7074V16.8346Z" fill="#92CEFF"/>
<path d="M12 15.7037V16.029H13.1404C13.3083 16.029 13.4441 16.1651 13.4441 16.3329V16.7703C13.4441 16.938 13.3083 17.0746 13.14 17.074L12 17.0746V17.6885H16.3022C17.0235 17.6885 17.609 17.1036 17.609 16.3817L17.6086 15.7037H17.2519H12ZM16.7962 16.8346C16.7958 16.9669 16.6883 17.0746 16.5558 17.0746H16.3889L15.5719 17.074C15.4393 17.0746 15.3319 16.9669 15.3319 16.8346L15.3323 16.7074C15.3319 16.5749 15.4396 16.4676 15.5719 16.4676H16.3889H16.5558C16.6889 16.4676 16.7958 16.5749 16.7958 16.7074L16.7962 16.8346Z" fill="#3271CC"/>
<path d="M7.02597 17.6885L7.02539 18.5257C7.02539 18.7452 7.20366 18.9233 7.42286 18.9233H8.54414C8.76348 18.9233 8.94117 18.745 8.9416 18.5257L8.94117 17.8759H7.69708C7.4516 17.8759 7.2218 17.8066 7.02597 17.6885Z" fill="#2A303F"/>
<path d="M15.0566 17.8759V18.5257C15.0566 18.7452 15.2352 18.9233 15.4541 18.9233H16.5752C16.7946 18.9233 16.9729 18.745 16.9729 18.5257V17.6885C16.7764 17.8065 16.5472 17.8759 16.3016 17.8759H15.0566Z" fill="#2A303F"/>
<path d="M12.0007 6.81989H7.89648V10.4938H12.0007V6.81989Z" fill="#3271CC"/>
<path d="M16.1043 6.81989H12V10.4938H16.1043V6.81989Z" fill="#2A303F"/>
<path d="M7.76297 15.0008H8.12299V13.6897H7.76297C7.47655 13.6897 7.24414 13.9221 7.24414 14.2086V14.4824C7.244 14.7687 7.47597 15.0008 7.76297 15.0008Z" fill="#FFE89F"/>
<path d="M9.88872 15.0008C10.1747 15.0008 10.4071 14.7687 10.4071 14.4824V14.2086C10.4071 13.922 10.1746 13.6897 9.88829 13.6897H8.12305V15.0008H9.88872Z" fill="white"/>
<path d="M7.44309 16.4675C7.31055 16.4675 7.20312 16.5747 7.20312 16.7073V16.8345C7.20312 16.9667 7.31055 17.0738 7.44309 17.0744H7.61003V16.4673H7.44309V16.4675Z" fill="#E57957"/>
<path d="M8.42833 16.4675H7.61133V17.0746H8.42833C8.56087 17.0746 8.66829 16.9669 8.66829 16.8346V16.7074C8.66829 16.5747 8.56087 16.4675 8.42833 16.4675Z" fill="#FFE89F"/>
<path d="M16.5556 17.0746C16.6882 17.0746 16.7956 16.9668 16.796 16.8346L16.7956 16.7074C16.7956 16.5749 16.6887 16.4676 16.5556 16.4676H16.3887V17.0747H16.5556V17.0746Z" fill="#C14727"/>
<path d="M16.389 16.4675H15.572C15.4397 16.4675 15.332 16.5747 15.3325 16.7073L15.332 16.8345C15.332 16.9667 15.4395 17.0744 15.572 17.0738L16.389 17.0744V16.4675Z" fill="#F9C04C"/>
<path d="M16.2374 15.0008C16.5238 15.0008 16.7558 14.7687 16.7562 14.4824L16.7558 14.2086C16.7558 13.922 16.5237 13.6897 16.237 13.6897H15.877L15.8775 15.0008H16.2374Z" fill="#F9C04C"/>
<path d="M14.1106 15.0008H15.876L15.8754 13.6897H14.1102C13.8238 13.6897 13.5918 13.9221 13.5918 14.2086V14.4824C13.5918 14.7687 13.8239 15.0008 14.1106 15.0008Z" fill="#92CEFF"/>
<path d="M11.6445 14.9778C11.6445 15.1741 11.8039 15.3335 12.0003 15.3335V14.622C11.8039 14.6219 11.6445 14.7813 11.6445 14.9778Z" fill="#E57957"/>
<path d="M12.3558 14.9778C12.3558 14.7813 12.1964 14.622 12 14.622V15.3335C12.1964 15.3335 12.3558 15.1741 12.3558 14.9778Z" fill="#C14727"/>
<path d="M10.5566 16.333V16.7704C10.5566 16.9381 10.6927 17.0747 10.8603 17.0747H12.0008V16.0293H10.8608C10.6925 16.0292 10.5566 16.1651 10.5566 16.333Z" fill="white"/>
<path d="M13.14 17.074C13.3083 17.0746 13.4441 16.938 13.4441 16.7703V16.3329C13.4441 16.1651 13.3083 16.0291 13.1404 16.0291H12V17.0744L13.14 17.074Z" fill="#92CEFF"/>
<path d="M11.6222 10.6766C10.5868 10.173 9.4186 10.0108 8.28571 10.2124C8.27352 10.146 8.26176 10.0793 8.25 10.0133C9.42557 9.80422 10.7601 10.0452 11.8339 10.5673C11.8046 10.6278 11.6514 10.616 11.6222 10.6766Z" fill="#92CEFF"/>
<path d="M15.7276 10.6766C14.6922 10.173 13.5241 10.0108 12.391 10.2124C12.3788 10.146 12.3671 10.0793 12.3555 10.0133C13.531 9.80422 14.8656 10.0452 15.9395 10.5673C15.91 10.6278 15.7567 10.616 15.7276 10.6766Z" fill="#3271CC"/>
<path d="M11.9999 11.225V10.4941L7.8956 10.4936L7.89603 6.81991H11.9999V5.07654C10.0049 5.07654 8.1749 5.48534 6.74805 6.16562V11.225H11.9999Z" fill="#FFE89F"/>
<path d="M12 6.81991H16.1043V10.4936L12 10.4941V11.225H17.2517V6.16562C15.8244 5.48534 13.9949 5.07654 12 5.07654V6.81991Z" fill="#F9C04C"/>
</svg>
