<svg width="18" height="18" viewBox="0 0 18 18" fill="none" xmlns="http://www.w3.org/2000/svg">
<circle cx="9" cy="9" r="9" fill="#FFBAB0"/>
<path d="M13.2706 7.19492C13.8676 7.19492 14.3517 6.71089 14.3517 6.11382C14.3517 5.51674 13.8676 5.03271 13.2706 5.03271C12.6735 5.03271 12.1895 5.51674 12.1895 6.11382C12.1895 6.71089 12.6735 7.19492 13.2706 7.19492Z" fill="#F88F19"/>
<path d="M3.67028 9.22717C4.04045 9.22717 4.34057 9.52751 4.34057 9.89767C4.34057 10.2678 4.04045 10.568 3.67028 10.568C3.30012 10.568 3 10.2678 3 9.89767C3 9.52751 3.30033 9.22717 3.67028 9.22717Z" fill="#F88F19"/>
<path d="M11.4975 13.5299V14.0488C11.4975 14.5894 11.065 15 10.5461 15H6.78389C6.24334 15 5.83252 14.5675 5.83252 14.0488V13.5299H11.4975Z" fill="#414A56"/>
<path d="M10.3946 9.48657V11.1082H6.93506V9.48657C7.95129 9.48657 9.37856 9.48657 10.3946 9.48657Z" fill="#414A56"/>
<path d="M10.5461 11.1083C11.0867 11.1083 11.4975 11.5407 11.4975 12.0596V13.5299H5.83252V12.0596C5.83252 11.5191 6.26496 11.1083 6.78389 11.1083C7.51925 11.1083 9.81119 11.1083 10.5461 11.1083Z" fill="#57606F"/>
<path d="M9.87577 7.32446V9.48667H7.4541V7.32446C7.77822 7.32446 9.55144 7.32446 9.87577 7.32446Z" fill="#57606F"/>
<path d="M9.48689 3V7.32441H7.86523V3.95159L9.48689 3Z" fill="#E80054"/>
<path d="M13.4649 12.1893C13.5724 12.1893 13.6595 12.2765 13.6595 12.3839C13.6595 12.4914 13.5724 12.5783 13.4649 12.5783C13.3574 12.5783 13.2705 12.4914 13.2705 12.3839C13.2705 12.2767 13.3574 12.1893 13.4649 12.1893Z" fill="#94D4FF"/>
<path d="M11.5623 3.54053C11.6697 3.54053 11.7569 3.62766 11.7569 3.73512C11.7569 3.84258 11.6697 3.92951 11.5623 3.92951C11.4548 3.92951 11.3677 3.84258 11.3677 3.73512C11.3677 3.62787 11.4548 3.54053 11.5623 3.54053Z" fill="#94D4FF"/>
<path d="M11.3028 8.01636C11.4102 8.01636 11.4974 8.10349 11.4974 8.21095C11.4974 8.31841 11.4102 8.40533 11.3028 8.40533C11.1953 8.40533 11.1084 8.31841 11.1084 8.21095C11.1084 8.1037 11.1953 8.01636 11.3028 8.01636Z" fill="#94D4FF"/>
<path d="M6.43825 3.41101C6.54571 3.41101 6.63285 3.49814 6.63285 3.60539C6.63285 3.71307 6.54571 3.79999 6.43825 3.79999C6.33057 3.79999 6.24365 3.71307 6.24365 3.60539C6.24344 3.49814 6.33057 3.41101 6.43825 3.41101Z" fill="#94D4FF"/>
<path d="M4.81618 6.11377C4.92364 6.11377 5.01078 6.2009 5.01078 6.30815C5.01078 6.41583 4.92364 6.50275 4.81618 6.50275C4.7085 6.50275 4.62158 6.41583 4.62158 6.30815C4.62137 6.2009 4.7085 6.11377 4.81618 6.11377Z" fill="#94D4FF"/>
<path d="M4.27565 13.2705C4.38311 13.2705 4.47026 13.3576 4.47026 13.4651C4.47026 13.5726 4.38311 13.6595 4.27565 13.6595C4.16797 13.6595 4.08106 13.5726 4.08106 13.4651C4.08084 13.3579 4.16797 13.2705 4.27565 13.2705Z" fill="#94D4FF"/>
</svg>
