<svg width="24" height="24" viewBox="0 0 24 24" fill="none" xmlns="http://www.w3.org/2000/svg">
<path d="M24 12C24 18.6274 18.6275 24 12.0002 24C5.37298 24 0 18.6274 0 12C0 5.37262 5.37298 0 12.0002 0C18.6275 0 24 5.37262 24 12Z" fill="#214251"/>
<path d="M16.1767 7.2401C13.3829 6.68129 12.3377 9.14081 12.1573 9.6368C11.9768 9.14081 10.9317 6.68129 8.13788 7.2401C6.21748 7.62396 5.52728 9.69023 5.93498 11.4192C6.07485 12.0133 6.28581 12.6701 6.57106 13.2108C6.57106 13.2108 8.71892 17.2793 12.1573 19.0351C15.5957 17.2793 17.7435 13.2108 17.7435 13.2108C18.0288 12.6703 18.2397 12.0133 18.3798 11.4192C18.7873 9.69023 18.0971 7.62419 16.1767 7.2401Z" fill="#D83633"/>
<path d="M16.9187 7.50032C17.2712 8.10454 17.475 8.76012 17.5158 9.4618C17.6318 11.4579 16.943 13.8571 15.179 14.9942C13.9275 15.8012 12.3598 15.8452 11.0869 15.0656C10.4256 14.6606 9.55518 13.9566 9.15964 13.2788C8.68865 12.4721 8.13673 11.0885 8.1952 10.136C8.24381 9.34348 8.70104 8.13481 9.33895 7.6175C9.50336 7.48404 9.67832 7.3781 9.86107 7.29142C9.37908 7.14627 8.80927 7.10591 8.13788 7.24029C6.21748 7.62414 5.52728 9.69041 5.93498 11.4194C6.07485 12.0135 6.28581 12.6702 6.57106 13.2109C6.57106 13.2109 8.71892 17.2795 12.1573 19.0353C15.5957 17.2795 17.7435 13.2109 17.7435 13.2109C18.0288 12.6705 18.2397 12.0135 18.3798 11.4194C18.7295 9.93554 18.2698 8.20429 16.9187 7.50032Z" fill="#D83633"/>
<path d="M4.06055 11.9023H10.5108L11.176 14.5623L12.1576 10.1085L12.9714 16.4244L14.5008 11.7693H22.0818" stroke="white" stroke-width="0.46553" stroke-miterlimit="10"/>
</svg>
