<svg width="24" height="24" viewBox="0 0 24 24" fill="none" xmlns="http://www.w3.org/2000/svg">
<path d="M24 11.9998C24 18.6277 18.6274 24 12.001 24C5.3726 24 0 18.6277 0 11.9998C0 5.37226 5.3726 0 12.001 0C18.6274 0 24 5.37226 24 11.9998Z" fill="#00A4A1"/>
<path d="M19.8907 10.3749C19.6707 10.3403 19.4581 10.4905 19.4213 10.7133L19.0144 13.2199H17.0943V10.9961H16.6852V13.2199H14.5938V10.9238H14.1849V13.2199H12.2023V10.9599H11.7935V13.2199H9.7019V10.9599H9.2929V13.2199H7.23744V10.9238H6.82835V13.2199H4.77458L4.4673 10.8351C4.43855 10.6114 4.24088 10.4517 4.00919 10.4818C3.78515 10.5106 3.62693 10.7157 3.65573 10.9398L4.56159 17.9703C4.58798 18.1745 4.76181 18.327 4.96746 18.327H18.6657C18.8662 18.327 19.0372 18.1816 19.0695 17.9835L20.2291 10.8443C20.265 10.6215 20.1136 10.4113 19.8907 10.3749ZM18.948 13.6289L18.5965 15.7915L17.0943 15.7876V13.6289L18.948 13.6289ZM16.6852 13.6289V15.7868L14.5938 15.7812V13.6289L16.6852 13.6289ZM9.70187 16.1779L11.7935 16.1831V17.5089H9.70187V16.1779ZM9.2929 17.5089H7.23744V16.1719L9.2929 16.1771V17.5089ZM12.2023 16.1843L14.1849 16.1895V17.5089H12.2023V16.1843ZM14.5938 16.1903L16.6852 16.1959V17.5089H14.5938V16.1903ZM14.1849 13.6289V15.7804L12.2023 15.7752V13.6289H14.1849ZM11.7935 13.6289V15.774L9.7019 15.7688V13.6289H11.7935ZM9.2929 13.6289V15.7681L7.23744 15.7628V13.6289H9.2929ZM6.82832 13.6289V15.7617L5.10162 15.7572L4.82723 13.6289H6.82832ZM5.15435 16.1663L6.82835 16.1707V17.5089H5.32734L5.15435 16.1663ZM17.0943 17.5089V16.1966L18.5303 16.2003L18.3178 17.5089L17.0943 17.5089Z" fill="white"/>
<path d="M20.9852 9.92718C20.9852 10.6375 20.4092 11.2136 19.6986 11.2136H4.18905C3.47826 11.2136 2.90234 10.6375 2.90234 9.92718C2.90234 9.21651 3.47826 8.64044 4.18905 8.64044H19.6986C20.4092 8.64044 20.9852 9.21651 20.9852 9.92718Z" fill="#DA4643"/>
<path d="M6.75018 10.0814C6.58933 10.0814 6.42868 10.0186 6.30795 9.8933C6.07319 9.64927 6.08079 9.26084 6.3248 9.02566L10.1663 5.3291C10.4102 5.09382 10.7981 5.10143 11.0337 5.34587C11.2686 5.59005 11.261 5.97833 11.017 6.21351L7.17566 9.91007C7.05649 10.0245 6.90317 10.0814 6.75018 10.0814Z" fill="white"/>
<path d="M16.6801 10.1176C16.5211 10.1176 16.3622 10.0563 16.2424 9.93391L12.4373 6.05619C12.2002 5.81422 12.2036 5.42577 12.4453 5.18826C12.6874 4.95137 13.0765 4.95529 13.3129 5.19649L17.118 9.07426C17.3551 9.31613 17.3516 9.70463 17.11 9.94211C16.9906 10.0592 16.8352 10.1176 16.6801 10.1176Z" fill="white"/>
</svg>
