<svg width="19" height="19" viewBox="0 0 19 19" fill="none" xmlns="http://www.w3.org/2000/svg">
<circle cx="9.09967" cy="9.42496" r="9" transform="rotate(-0.318311 9.09967 9.42496)" fill="#BCEF03"/>
<path d="M9.88981 5.44037C9.87538 5.43897 9.86128 5.43889 9.84685 5.43798C9.84652 5.43864 9.84653 5.43995 9.84621 5.44061L9.88981 5.44037Z" fill="#034A00"/>
<path d="M9.59884 4.73922C9.39599 4.52214 9.11202 4.28305 8.85422 4.14956C7.55798 3.47837 6.5587 4.73726 6.1608 5.85607C6.09058 6.05369 5.88579 6.66829 5.92246 6.86465C5.96351 7.0828 6.31807 7.19198 6.61145 7.32609C7.10074 7.54945 7.91388 7.90183 8.04929 7.90108C8.1226 6.84309 8.68834 5.36349 9.84683 5.43804C9.89298 5.33351 9.71924 4.86807 9.59884 4.73922Z" fill="#034A00"/>
<path d="M9.84608 5.4405L9.771 5.44092C9.81065 5.46726 9.8344 5.46401 9.84608 5.4405Z" fill="#034A00"/>
<path opacity="0.36" d="M8.04914 7.90082C8.09044 7.30795 8.28675 6.58354 8.65442 6.07296C7.72608 6.05369 6.85831 6.34393 6.33043 7.20313C6.4228 7.24426 6.51974 7.28405 6.61146 7.32567C7.10059 7.54903 7.91389 7.90157 8.04914 7.90082Z" fill="#348202"/>
<path d="M5.92246 6.86466C5.93816 6.94752 5.99919 7.01489 6.0851 7.07343C6.05368 6.25783 6.67623 5.38434 7.46202 5.18111C8.06053 5.02598 8.89007 4.99645 9.24401 5.55516C9.42354 5.46859 9.6238 5.426 9.84586 5.43968C9.89431 5.33826 9.7194 4.86872 9.59867 4.73922C9.39582 4.52214 9.11186 4.28305 8.85406 4.14956C7.55781 3.47837 6.55853 4.73726 6.16063 5.85608C6.09074 6.05369 5.88579 6.66829 5.92246 6.86466Z" fill="#053D02"/>
<path d="M8.95999 6.50986C9.17638 6.92146 12.2105 8.22548 12.622 8.02335C13.0337 7.82171 12.5356 4.27826 12.1013 4.09509C11.9813 4.04461 11.6681 4.17848 11.2864 4.40291C10.8229 3.77923 10.0233 3.4007 9.24549 3.42486C8.65835 3.44337 7.48354 3.79565 6.93199 4.55465C7.60166 3.98877 8.93261 4.59075 9.36425 5.2069C9.46555 5.35175 9.55044 5.49424 9.60944 5.63785C9.17878 6.02452 8.88659 6.3701 8.95999 6.50986Z" fill="#3E9D01"/>
<path d="M11.295 4.5951C11.3772 4.55792 11.9095 4.30725 11.9945 4.33006C12.3227 4.41873 12.4722 5.3886 12.5403 5.64085C12.6379 6.00164 12.6243 6.68486 12.7709 7.10455C12.7362 5.98158 12.4039 4.22303 12.1011 4.09536C11.9811 4.04488 11.6679 4.17875 11.2862 4.40318C10.8227 3.7795 10.023 3.40097 9.24526 3.42513C8.98071 3.43348 8.59768 3.51201 8.20588 3.66304C8.9297 3.46 9.71806 3.39332 10.5742 3.99531C11.1383 4.39187 11.1051 4.68108 11.295 4.5951Z" fill="#55C40E"/>
<path d="M9.83514 5.89712C10.3015 5.56025 9.73408 5.08781 9.50369 4.87104C8.90595 4.30893 8.01183 4.07618 7.20721 4.25459C7.10559 4.34713 7.01089 4.44537 6.93166 4.55499C7.60133 3.98912 8.93227 4.59109 9.36391 5.20725C9.46521 5.3521 9.55011 5.49458 9.6091 5.6382C9.17861 6.0252 8.88642 6.3706 8.95982 6.51037C9.17622 6.92197 12.2103 8.22599 12.6218 8.02386C12.672 7.99932 12.7083 7.92485 12.7331 7.81339C11.9819 7.89692 10.9335 7.36042 10.3954 7.09897C10.1905 6.99962 9.26111 6.62116 9.49461 6.21705C9.58392 6.06278 9.69373 5.99889 9.83514 5.89712Z" fill="#348202"/>
<path opacity="0.31" d="M9.40427 5.2694C9.81628 4.71348 10.3781 4.32673 11.0121 4.10304C10.7747 3.88205 10.4915 3.70591 10.1853 3.58958C9.36354 3.45692 8.5116 3.85216 7.77279 4.33776C8.39511 4.3971 9.07704 4.79775 9.36359 5.20634C9.37863 5.22773 9.39022 5.24849 9.40427 5.2694Z" fill="#ACFF76"/>
<path opacity="0.31" d="M10.4482 3.7095C10.3724 3.67009 10.2947 3.63544 10.2154 3.60391C9.56459 3.62031 8.88636 4.03311 8.35738 4.4864C8.51511 4.5488 8.66899 4.62484 8.80866 4.71243C9.10493 4.18568 9.76349 3.86282 10.4482 3.7095Z" fill="#ACFF76"/>
<path d="M13.3623 12.7535L13.4041 12.6911C13.3601 12.7093 13.3494 12.7308 13.3623 12.7535Z" fill="#034A00"/>
<path d="M14.0809 12.9441C14.3745 12.8987 14.7319 12.7985 14.9876 12.6607C16.2718 11.9671 15.7936 10.4327 15.0932 9.47341C14.9693 9.30442 14.5766 8.78936 14.3935 8.70907C14.1903 8.61986 13.9006 8.85197 13.6242 9.01893C13.1646 9.29739 12.4157 9.77108 12.3396 9.88364C13.1728 10.5395 14.0776 11.8395 13.3638 12.7555C13.4245 12.8525 13.9068 12.971 14.0809 12.9441Z" fill="#034A00"/>
<path d="M13.3638 12.7559C13.3635 12.7552 13.3625 12.7544 13.362 12.7538L13.3376 12.7901C13.347 12.7788 13.355 12.7673 13.3638 12.7559Z" fill="#034A00"/>
<path opacity="0.36" d="M13.8842 8.85565C13.7979 8.90891 13.7105 8.96662 13.6242 9.0189C13.1646 9.29737 12.4157 9.77106 12.3396 9.88361C12.8066 10.2509 13.2952 10.8213 13.5102 11.4124C14.0484 10.6566 14.297 9.77552 13.8842 8.85565Z" fill="#348202"/>
<path d="M13.6063 12.1921C13.5773 12.3889 13.4995 12.5786 13.3629 12.7545C13.4197 12.8512 13.9059 12.9711 14.0812 12.9443C14.3747 12.8989 14.7322 12.7987 14.9878 12.6609C16.2721 11.9673 15.7939 10.4328 15.0934 9.47358C14.9695 9.30459 14.5768 8.78954 14.3937 8.70924C14.3167 8.67524 14.2264 8.68803 14.1299 8.72611C14.8213 9.15918 15.1932 10.1655 14.9189 10.9295C14.7098 11.5114 14.2673 12.2137 13.6063 12.1921Z" fill="#053D02"/>
<path d="M13.827 12.4868C13.6501 12.4895 13.4846 12.4788 13.3328 12.4469C13.2553 11.8735 13.1346 11.4374 12.9772 11.4195C12.5153 11.3666 9.72961 13.1407 9.66507 13.5944C9.60005 14.048 12.809 15.6309 13.2048 15.3751C13.3144 15.3045 13.3798 14.97 13.4094 14.5285C14.1857 14.4962 14.9488 14.048 15.3668 13.3914C15.6818 12.8965 16.0524 11.7268 15.7351 10.8436C15.8256 11.716 14.5794 12.4768 13.827 12.4868Z" fill="#3E9D01"/>
<path d="M13.4092 14.5284C14.1855 14.4961 14.9486 14.0479 15.3666 13.3913C15.5082 13.1683 15.6591 12.8073 15.7549 12.3986C15.5154 13.1111 15.1263 13.8007 14.147 14.1692C13.5017 14.412 13.2813 14.2216 13.2454 14.427C13.2298 14.5158 13.1373 15.0972 13.0707 15.1544C12.8128 15.3762 11.927 14.9536 11.6804 14.868C11.3269 14.7459 10.7698 14.35 10.3406 14.235C11.2883 14.8381 12.9289 15.5536 13.2048 15.375C13.3142 15.3044 13.3796 14.9698 13.4092 14.5284Z" fill="#55C40E"/>
<path d="M13.8269 12.4864C13.6501 12.4892 13.4846 12.4785 13.3328 12.4466C13.2553 11.8732 13.1345 11.4371 12.9772 11.4191C12.5153 11.3663 9.72959 13.1404 9.66505 13.594C9.65716 13.6492 9.69838 13.7212 9.77606 13.8044C10.1302 13.1362 11.1635 12.5719 11.6826 12.2744C11.8798 12.1608 12.7161 11.6055 12.9183 12.0262C12.9956 12.1864 12.9861 12.3136 12.9913 12.4881C13.0072 13.063 13.7172 12.86 14.026 12.7916C14.827 12.614 15.5229 12.0057 15.8278 11.2403C15.809 11.1044 15.7809 10.9708 15.735 10.8436C15.8255 11.7156 14.5794 12.4765 13.8269 12.4864Z" fill="#348202"/>
<path opacity="0.31" d="M14.7003 14.0757C15.2727 13.4717 15.4256 12.5447 15.4399 11.661C15.0406 12.1418 14.3255 12.48 13.8265 12.4866C13.8005 12.487 13.7772 12.485 13.7516 12.4848C13.9792 13.1385 13.9823 13.8205 13.8107 14.4703C14.1272 14.3986 14.4318 14.2636 14.7003 14.0757Z" fill="#ACFF76"/>
<path opacity="0.31" d="M14.6727 14.0929C15.0254 13.5454 15.0661 12.7523 14.9893 12.0599C14.8485 12.1555 14.6994 12.2399 14.5482 12.3063C14.8169 12.8477 14.7129 13.5735 14.4544 14.2256C14.5293 14.1852 14.602 14.1407 14.6727 14.0929Z" fill="#ACFF76"/>
<path d="M5.38135 12.3619L5.41811 12.4272C5.42161 12.3798 5.40724 12.3607 5.38135 12.3619Z" fill="#034A00"/>
<path d="M5.35986 12.3237C5.36584 12.3375 5.37394 12.3486 5.3804 12.3618C5.3804 12.3618 5.38089 12.3616 5.38122 12.3615L5.35986 12.3237Z" fill="#034A00"/>
<path d="M4.88793 12.9186C4.79687 13.2016 4.7266 13.5659 4.73477 13.8564C4.77829 15.3154 6.3639 15.5764 7.53565 15.3806C7.74235 15.3455 8.37876 15.2259 8.53233 15.0985C8.70351 14.9569 8.62641 14.5933 8.60085 14.2718C8.55787 13.7363 8.47084 12.8538 8.4046 12.7358C7.44461 13.1862 5.8784 13.4095 5.3801 12.3621C5.26817 12.3688 4.94289 12.7498 4.88793 12.9186Z" fill="#034A00"/>
<path opacity="0.36" d="M8.63002 14.5769C8.62126 14.4761 8.60888 14.3722 8.60094 14.2716C8.55797 13.7361 8.47093 12.8536 8.4047 12.7356C7.86624 12.9881 7.13771 13.169 6.51317 13.0953C6.94709 13.9159 7.62268 14.5336 8.63002 14.5769Z" fill="#348202"/>
<path d="M5.3801 12.3616C5.26801 12.3688 4.94273 12.7496 4.88793 12.9181C4.79687 13.2011 4.7266 13.5654 4.73477 13.8559C4.77829 15.3149 6.3639 15.5759 7.53565 15.3801C7.74235 15.345 8.37877 15.2254 8.53233 15.098C8.59744 15.0442 8.62631 14.9579 8.63623 14.8546C7.93855 15.2783 6.87243 15.1588 6.31274 14.5709C5.88647 14.1233 5.45742 13.4124 5.77371 12.8317C5.61045 12.7171 5.47581 12.5629 5.3801 12.3616Z" fill="#053D02"/>
<path d="M5.66866 12.473C6.2158 12.661 6.66023 12.7487 6.74655 12.6164C7.00096 12.2271 6.66548 8.94177 6.28909 8.68041C5.91254 8.41904 3.05818 10.5763 3.10898 11.0451C3.12314 11.1743 3.39267 11.3828 3.77426 11.6075C3.45409 12.316 3.51276 13.1988 3.91174 13.867C4.21291 14.3705 5.0918 15.2265 6.02313 15.3395C5.20333 15.0287 5.08245 13.5734 5.41133 12.8966C5.48816 12.7375 5.57195 12.5942 5.66866 12.473Z" fill="#3E9D01"/>
<path d="M4.24644 9.90965C4.51434 9.64865 5.118 9.32856 5.41306 8.99641C4.44884 9.57261 3.07334 10.7178 3.10909 11.0449C3.12325 11.1741 3.39278 11.3827 3.77437 11.6073C3.4542 12.3158 3.51288 13.1986 3.91185 13.8668C4.04754 14.0934 4.30264 14.3902 4.62481 14.6591C4.09559 14.1254 3.65389 13.4683 3.76434 12.4279C3.8366 11.7422 4.10567 11.6305 3.93808 11.5062C3.86581 11.4523 3.38782 11.1091 3.36636 11.0236C3.28403 10.6936 4.05924 10.0915 4.24644 9.90965Z" fill="#55C40E"/>
<path d="M5.6685 12.4732C6.21564 12.6612 6.66008 12.7489 6.7464 12.6166C7.0008 12.2273 6.66532 8.94194 6.28894 8.68058C6.24319 8.64902 6.16009 8.65342 6.05092 8.68567C6.48879 9.30179 6.53008 10.4783 6.56291 11.0757C6.57581 11.3034 6.69709 12.2996 6.23014 12.2917C6.05225 12.2888 5.9427 12.2236 5.78474 12.1496C5.26386 11.9058 5.12657 12.6316 5.04926 12.938C4.84842 13.7339 5.07963 14.6282 5.62669 15.2447C5.75694 15.2884 5.8891 15.3234 6.02297 15.3397C5.20317 15.0288 5.0823 13.5736 5.41117 12.8968C5.488 12.7377 5.5718 12.5944 5.6685 12.4732Z" fill="#348202"/>
<path opacity="0.31" d="M5.44643 12.8306C4.76016 12.7407 4.14895 12.4377 3.64563 11.9922C3.56754 12.3073 3.55136 12.6407 3.59907 12.9648C3.88211 13.7469 4.64194 14.2998 5.42506 14.709C5.17466 14.1363 5.19322 13.3457 5.41139 12.8964C5.42241 12.8734 5.43508 12.853 5.44643 12.8306Z" fill="#ACFF76"/>
<path opacity="0.31" d="M3.57568 12.6772C3.57812 12.7625 3.58532 12.8475 3.59628 12.9319C3.92728 13.4929 4.61785 13.8848 5.27135 14.1267C5.24894 13.9585 5.24045 13.7872 5.24855 13.6223C4.64441 13.6195 4.04206 13.2011 3.57568 12.6772Z" fill="#ACFF76"/>
</svg>
