<svg width="19" height="19" viewBox="0 0 19 19" fill="none" xmlns="http://www.w3.org/2000/svg">
<path d="M18.0981 9.86967C18.1258 14.8401 14.1187 18.8918 9.14829 18.9194C4.1777 18.9471 0.125954 14.9401 0.0983402 9.96967C0.0707254 4.99908 4.0777 0.947341 9.04829 0.919726C14.0187 0.892112 18.0705 4.89908 18.0981 9.86967Z" fill="#CEECEF"/>
<mask id="mask0_77_16704" style="mask-type:luminance" maskUnits="userSpaceOnUse" x="0" y="0" width="19" height="19">
<path d="M18.0981 9.86967C18.1258 14.8401 14.1187 18.8918 9.14829 18.9194C4.1777 18.9471 0.125954 14.9401 0.0983402 9.96967C0.0707254 4.99908 4.0777 0.947341 9.04829 0.919726C14.0187 0.892112 18.0705 4.89908 18.0981 9.86967Z" fill="white"/>
</mask>
<g mask="url(#mask0_77_16704)">
<path d="M14.0942 6.6437C13.6977 7.24661 12.7641 7.24647 12.1534 6.92005C11.9841 6.8296 11.8247 6.7107 11.6938 6.56804L4.38167 13.9618L11.2585 20.7627L19.7198 12.207L14.0942 6.6437Z" fill="url(#paint0_linear_77_16704)"/>
</g>
<path d="M12.4383 12.8146C12.4819 13.3477 12.085 13.8152 11.552 13.8587L5.24056 14.3746C4.70743 14.4182 4.23992 14.0213 4.19632 13.4882L3.92927 10.2211C3.88567 9.68797 4.28255 9.22045 4.81558 9.17694L11.127 8.66104C11.6602 8.61744 12.1277 9.01431 12.1713 9.54743L12.4383 12.8146Z" fill="#7BC38E"/>
<path d="M9.16037 11.1388L5.37354 11.4482L5.44028 12.2651L9.22712 11.9557L9.16037 11.1388Z" fill="#D9D3D2"/>
<path d="M10.5322 12.3715L5.11182 12.8145L5.11789 12.8887L10.5383 12.4458L10.5322 12.3715Z" fill="#02084D"/>
<path d="M10.5687 12.8174L5.14844 13.2603L5.1545 13.3344L10.5748 12.8916L10.5687 12.8174Z" fill="#02084D"/>
<path d="M10.6059 13.2622L5.18555 13.7051L5.19162 13.7794L10.6119 13.3365L10.6059 13.2622Z" fill="#02084D"/>
<mask id="mask1_77_16704" style="mask-type:luminance" maskUnits="userSpaceOnUse" x="3" y="8" width="10" height="7">
<path d="M12.4383 12.8146C12.4819 13.3477 12.085 13.8152 11.552 13.8587L5.24056 14.3746C4.70743 14.4182 4.23992 14.0213 4.19632 13.4882L3.92927 10.2211C3.88567 9.68797 4.28255 9.22045 4.81558 9.17694L11.127 8.66104C11.6602 8.61744 12.1277 9.01431 12.1713 9.54743L12.4383 12.8146Z" fill="white"/>
</mask>
<g mask="url(#mask1_77_16704)">
<path d="M13.0607 9.47453L2.73975 10.3179L2.82469 11.3574L13.1457 10.5141L13.0607 9.47453Z" fill="#02084D"/>
</g>
<path d="M4.40991 11.5273C4.40991 11.5273 4.41644 11.5686 4.42767 11.6408C4.43765 11.7133 4.4518 11.8167 4.46882 11.9409C4.48522 12.065 4.50315 12.2101 4.52016 12.3655C4.53797 12.5211 4.55478 12.687 4.57087 12.853C4.58768 13.019 4.60058 13.1853 4.61467 13.3411C4.61812 13.4028 4.63831 13.4764 4.65808 13.5377C4.67645 13.6013 4.70214 13.6576 4.72744 13.7072C4.75292 13.7573 4.78225 13.7977 4.81109 13.8306C4.84063 13.8623 4.86952 13.8876 4.89676 13.9033C4.91029 13.9112 4.9225 13.9193 4.93371 13.925C4.94536 13.9297 4.95532 13.9337 4.9635 13.9368C4.98013 13.9437 4.98902 13.9474 4.98902 13.9474L4.99632 13.9505C5.01517 13.9583 5.02407 13.9799 5.01628 13.9987C5.01015 14.0134 4.99556 14.0221 4.98047 14.0214C4.98047 14.0214 4.96893 14.0209 4.94728 14.0199C4.93627 14.0192 4.9226 14.0181 4.90653 14.0171C4.89099 14.0142 4.87321 14.0088 4.85269 14.0036C4.81287 13.9913 4.76527 13.9692 4.71902 13.9335C4.69488 13.9167 4.67382 13.8946 4.65 13.8721C4.62973 13.8477 4.60643 13.8224 4.58772 13.7935C4.54712 13.7367 4.51436 13.6698 4.4861 13.5978C4.47294 13.5615 4.46093 13.5238 4.45078 13.4845C4.44561 13.4647 4.44089 13.4451 4.43651 13.4239L4.43331 13.4071L4.42362 13.4043L4.41319 13.3943L4.4127 13.3871L4.41946 13.3572C4.40821 13.2012 4.39841 13.0346 4.38799 12.8681C4.37686 12.7016 4.36875 12.535 4.36105 12.3787C4.35264 12.2225 4.34784 12.0765 4.34386 11.9513C4.34059 11.8261 4.33841 11.7216 4.33641 11.6486C4.33582 11.5754 4.33568 11.5335 4.33568 11.5335C4.33557 11.513 4.35224 11.4961 4.37283 11.4959C4.39137 11.4955 4.40715 11.5093 4.40991 11.5273Z" fill="#7BDD8E"/>
<path d="M13.8757 10.5532C13.8146 11.0846 13.3344 11.4658 12.803 11.4048L6.5119 10.6822C5.9805 10.6212 5.59921 10.1409 5.66024 9.60945L6.03434 6.35287C6.09545 5.82156 6.57568 5.44019 7.10699 5.5013L13.3981 6.22385C13.9295 6.28488 14.3108 6.7651 14.2497 7.29659L13.8757 10.5532Z" fill="#47A28E"/>
<path d="M7.58228 8.54357C7.56738 8.67276 7.45059 8.76551 7.32131 8.75061L6.45714 8.65142C6.32795 8.63652 6.23511 8.51973 6.24992 8.39055L6.34074 7.60033C6.35555 7.47114 6.47243 7.37839 6.6017 7.39329L7.46579 7.49248C7.59515 7.50738 7.68782 7.62417 7.67301 7.75344L7.58228 8.54357Z" fill="#FFC73D"/>
<path d="M6.93186 8.28999C6.93186 8.28999 6.93177 8.28999 6.93159 8.28999C6.75493 8.29097 6.71963 8.07058 6.71259 7.98535L6.2997 7.94816L6.30828 7.87934L6.785 7.93668L6.78545 7.98725C6.78547 7.98982 6.7906 8.29086 6.94064 8.29003C7.09432 8.28917 7.19335 8.03388 7.19431 8.03112L7.20458 7.99557L7.64051 8.0416L7.63195 8.11361L7.25252 8.04845C7.21843 8.12451 7.10843 8.28901 6.93186 8.28999Z" fill="#47A28E"/>
<path d="M6.32491 7.73757L6.31641 7.81152L7.6486 7.96464L7.6571 7.89068L6.32491 7.73757Z" fill="#47A28E"/>
<path d="M8.19454 9.07439L8.18604 9.14844L12.9969 9.70089L13.0054 9.62684L8.19454 9.07439Z" fill="#7BC38E"/>
<path d="M8.14376 9.51873L8.13525 9.59277L12.9461 10.1452L12.9546 10.0712L8.14376 9.51873Z" fill="#7BC38E"/>
<path d="M8.215 9.80133L8.25295 9.87592C8.26291 9.89538 8.27099 9.91308 8.27962 9.93238L8.28157 9.93254C8.29452 9.91446 8.30703 9.89904 8.31972 9.88291L8.37296 9.81944L8.43627 9.82681L8.30831 9.97002L8.40248 10.1495L8.3358 10.1419L8.29676 10.0639C8.28627 10.0438 8.27774 10.0246 8.26857 10.0039L8.26715 10.0037C8.2543 10.0218 8.24099 10.0379 8.2268 10.0557L8.17181 10.123L8.10726 10.1157L8.24075 9.96418L8.14957 9.7937L8.215 9.80133Z" fill="#7BC38E"/>
<path d="M8.52351 9.83697L8.56155 9.91156C8.5715 9.93094 8.5795 9.94873 8.58812 9.96793L8.59008 9.96819C8.60302 9.9501 8.61562 9.93459 8.62822 9.91855L8.68146 9.85508L8.74477 9.86236L8.61682 10.0057L8.71107 10.1852L8.64448 10.1775L8.60536 10.0994C8.59495 10.0793 8.58633 10.0601 8.57725 10.0394L8.57583 10.0393C8.56298 10.0574 8.54958 10.0735 8.53548 10.0913L8.48049 10.1587L8.41585 10.1512L8.54935 9.99982L8.45834 9.82934L8.52351 9.83697Z" fill="#7BC38E"/>
<path d="M8.83153 9.87212L8.86956 9.9468C8.87952 9.96618 8.88761 9.98397 8.89623 10.0031L8.89818 10.0034C8.91113 9.98526 8.92364 9.96975 8.93633 9.95379L8.98957 9.89032L9.05279 9.8976L8.92492 10.0408L9.01909 10.2204L8.9525 10.2127L8.91347 10.1347C8.90297 10.1145 8.89443 10.0954 8.88527 10.0747L8.88385 10.0746C8.87099 10.0926 8.85769 10.1087 8.8435 10.1265L8.7885 10.1938L8.72395 10.1864L8.85745 10.035L8.76627 9.8645L8.83153 9.87212Z" fill="#7BC38E"/>
<path d="M9.1403 9.90776L9.17825 9.98236C9.1882 10.0017 9.19629 10.0195 9.20482 10.0387L9.20678 10.039C9.21963 10.021 9.23223 10.0055 9.24492 9.98935L9.29816 9.92588L9.36147 9.93316L9.23361 10.0765L9.32777 10.2561L9.26109 10.2484L9.22206 10.1702C9.21148 10.1502 9.20303 10.1309 9.19386 10.1103L9.19253 10.1101C9.17977 10.1282 9.16637 10.1443 9.15218 10.1622L9.09728 10.2295L9.03255 10.222L9.16605 10.0706L9.07495 9.90015L9.1403 9.90776Z" fill="#7BC38E"/>
<path d="M9.4484 9.94283L9.48644 10.0174C9.4964 10.0369 9.50439 10.0546 9.51302 10.0739L9.51497 10.0741C9.52791 10.0561 9.54052 10.0405 9.55312 10.0245L9.60636 9.96103L9.66966 9.96822L9.54171 10.1116L9.63588 10.2912L9.56928 10.2836L9.53025 10.2055C9.51967 10.1853 9.51122 10.1662 9.50206 10.1456L9.50064 10.1454C9.48787 10.1634 9.47447 10.1794 9.46029 10.1974L9.40529 10.2646L9.34065 10.2572L9.47415 10.1059L9.38305 9.9353L9.4484 9.94283Z" fill="#7BC38E"/>
<path d="M9.757 9.97857L9.79503 10.0532C9.8049 10.0725 9.81308 10.0903 9.8217 10.1096L9.82365 10.1098C9.8366 10.0918 9.84911 10.0763 9.8618 10.0602L9.91495 9.99668L9.97826 10.004L9.8503 10.1472L9.94447 10.3268L9.87788 10.3192L9.83885 10.241C9.82835 10.2209 9.81982 10.2017 9.81065 10.1811L9.80923 10.1809C9.79638 10.199 9.78307 10.2151 9.76879 10.233L9.7138 10.3003L9.64925 10.2928L9.78275 10.1415L9.69165 9.97095L9.757 9.97857Z" fill="#7BC38E"/>
<path d="M10.1562 10.1465L10.1512 10.1896L9.98657 10.1707L9.99156 10.1274L10.1562 10.1465Z" fill="#7BC38E"/>
<path d="M10.2658 10.0372L10.3038 10.1118C10.3138 10.1311 10.3218 10.1489 10.3304 10.1682L10.3324 10.1684C10.3453 10.1504 10.3579 10.1349 10.3705 10.1188L10.4237 10.0553L10.487 10.0625L10.3591 10.2059L10.4533 10.3855L10.3866 10.3778L10.3475 10.2996C10.3371 10.2795 10.3285 10.2603 10.3194 10.2397L10.318 10.2395C10.3052 10.2576 10.2919 10.2737 10.2776 10.2916L10.2227 10.3589L10.158 10.3514L10.2915 10.2001L10.2003 10.0295L10.2658 10.0372Z" fill="#7BC38E"/>
<path d="M10.5743 10.0723L10.6123 10.1469C10.6222 10.1663 10.6304 10.1841 10.639 10.2034L10.6409 10.2035C10.6538 10.1855 10.6663 10.17 10.679 10.1539L10.7322 10.0904L10.7956 10.0977L10.6676 10.2409L10.7618 10.4205L10.6952 10.4129L10.6561 10.3348C10.6456 10.3147 10.6371 10.2955 10.6279 10.2749L10.6265 10.2747C10.6137 10.2928 10.6003 10.3088 10.5862 10.3267L10.5312 10.394L10.4666 10.3866L10.6 10.2353L10.5089 10.0647L10.5743 10.0723Z" fill="#7BC38E"/>
<path d="M10.8829 10.1079L10.9208 10.1825C10.9308 10.2019 10.9389 10.2196 10.9475 10.2389L10.9495 10.2391C10.9624 10.2211 10.9749 10.2056 10.9876 10.1895L11.0408 10.126L11.1041 10.1334L10.9762 10.2766L11.0704 10.4562L11.0037 10.4485L10.9647 10.3704C10.9542 10.3502 10.9457 10.331 10.9365 10.3104L10.9351 10.3102C10.9223 10.3284 10.909 10.3444 10.8948 10.3623L10.8398 10.4296L10.7752 10.4222L10.9087 10.2708L10.8175 10.1003L10.8829 10.1079Z" fill="#7BC38E"/>
<path d="M11.1912 10.1429L11.2292 10.2176C11.2392 10.2371 11.2472 10.2548 11.2558 10.2741L11.2577 10.2742C11.2707 10.2562 11.2833 10.2407 11.2959 10.2246L11.3491 10.1611L11.4124 10.1685L11.2845 10.3118L11.3786 10.4913L11.312 10.4837L11.273 10.4057C11.2625 10.3855 11.2539 10.3664 11.2447 10.3457L11.2434 10.3455C11.2305 10.3636 11.2171 10.3797 11.203 10.3975L11.148 10.4648L11.0833 10.4575L11.2168 10.306L11.1258 10.1355L11.1912 10.1429Z" fill="#7BC38E"/>
<path d="M11.4998 10.1788L11.5378 10.2534C11.5478 10.2727 11.5558 10.2905 11.5645 10.3097L11.5664 10.31C11.5793 10.2919 11.5919 10.2764 11.6046 10.2603L11.6578 10.1969L11.721 10.2042L11.5932 10.3475L11.6873 10.527L11.6206 10.5193L11.5816 10.4412C11.5711 10.4211 11.5626 10.4019 11.5534 10.3812L11.552 10.3811C11.5391 10.3992 11.5258 10.4153 11.5116 10.4331L11.4566 10.5005L11.3919 10.493L11.5255 10.3416L11.4343 10.1711L11.4998 10.1788Z" fill="#7BC38E"/>
<path d="M13.6109 7.6357C13.5757 7.94228 13.2987 8.16228 12.992 8.12698L9.88341 7.76998C9.57682 7.73477 9.35692 7.45764 9.39204 7.15115C9.42733 6.84447 9.70429 6.62456 10.011 6.65977L13.1195 7.01686C13.4262 7.05207 13.6462 7.32911 13.6109 7.6357Z" fill="#D9D3D2"/>
<path d="M12.3408 6.92785L12.2134 8.03809L12.5094 8.07205L12.6368 6.96181L12.3408 6.92785Z" fill="#CEECEF"/>
<path d="M11.6753 6.85128L11.5479 7.96143L11.9919 8.01242L12.1194 6.90227L11.6753 6.85128Z" fill="#CEECEF"/>
<path d="M6.09349 7.39198L6.15728 6.30422C6.15777 6.29614 6.15977 6.28859 6.1631 6.28182L6.16635 6.27533L6.16644 6.27524C6.19783 6.22396 6.23015 6.18057 6.2646 6.13556C6.29914 6.09145 6.33537 6.04875 6.37383 6.00781C6.41193 5.96678 6.45325 5.92848 6.49545 5.89134L6.56224 5.83924C6.58379 5.8211 6.60963 5.80773 6.63306 5.79208C6.6563 5.77598 6.68187 5.76315 6.70798 5.7512C6.73374 5.7389 6.75877 5.72545 6.78695 5.71811C6.81477 5.71032 6.84097 5.69856 6.8696 5.69449L6.95499 5.68266C6.98383 5.68312 7.0125 5.68527 7.0409 5.6868C7.06973 5.68575 7.0966 5.69855 7.12414 5.70417L7.16502 5.71503C7.17835 5.71931 7.19046 5.72687 7.20318 5.73266L7.27792 5.76986C7.287 5.77443 7.29079 5.7855 7.28622 5.79457C7.28201 5.8032 7.27192 5.80699 7.2632 5.80366L7.25982 5.80235L7.18673 5.77454C7.17455 5.77026 7.16298 5.76429 7.15037 5.76161L7.11236 5.75543C7.08688 5.753 7.06242 5.74302 7.0368 5.74689L6.96131 5.75033L6.88794 5.76786C6.86357 5.77332 6.84101 5.78657 6.81773 5.7954C6.79408 5.80369 6.77286 5.81827 6.75111 5.83117C6.72917 5.84381 6.70777 5.85706 6.68817 5.87385C6.66847 5.8902 6.64689 5.90336 6.62881 5.92201L6.57294 5.97485C6.53765 6.01258 6.50335 6.05083 6.4719 6.092C6.44027 6.1329 6.41052 6.17539 6.38263 6.21903C6.35554 6.26221 6.32794 6.30851 6.30706 6.3513L6.31613 6.3225L6.13052 7.3963C6.1288 7.40642 6.11917 7.41322 6.10904 7.4115C6.09954 7.40987 6.09293 7.40148 6.09349 7.39198Z" fill="#7BC38E"/>
<defs>
<linearGradient id="paint0_linear_77_16704" x1="8.61224" y1="9.68397" x2="15.4891" y2="16.4849" gradientUnits="userSpaceOnUse">
<stop stop-color="#73CAE6"/>
<stop offset="1" stop-color="#CEECEF"/>
</linearGradient>
</defs>
</svg>
