<svg width="18" height="18" viewBox="0 0 18 18" fill="none" xmlns="http://www.w3.org/2000/svg">
<circle cx="9" cy="9" r="9" fill="#002D41"/>
<path d="M9.98575 4.89675C9.98575 5.45505 9.53262 5.90764 8.97378 5.90764C8.41602 5.90764 7.96289 5.45505 7.96289 4.89675C7.96289 4.33845 8.41602 3.88586 8.97378 3.88586C9.53262 3.88559 9.98575 4.33845 9.98575 4.89675Z" fill="#FFD366"/>
<path d="M7.9625 4.89696C7.9625 4.5417 8.14635 4.23024 8.42293 4.04964C8.41265 4.0418 8.40319 4.03288 8.39211 4.02612C7.78298 3.69033 7.17277 3.35562 6.56391 3.02064C6.37925 2.90357 5.93288 3.30019 5.78202 3.96231C5.63386 4.60875 5.63386 5.2806 5.78202 5.9265C5.93288 6.58835 6.37925 6.98606 6.56391 6.86872C7.17277 6.53401 7.78298 6.19903 8.39211 5.86351C8.42833 5.84107 8.45807 5.81268 8.48484 5.78159C8.17338 5.6091 7.9625 5.2779 7.9625 4.89696Z" fill="#F1C14B"/>
<path d="M12.1822 3.96214C12.0324 3.30002 11.585 2.90313 11.4 3.02047C10.7912 3.35545 10.181 3.69016 9.57156 4.02595C9.55777 4.0346 9.54587 4.04514 9.53344 4.05515C9.80569 4.23629 9.98521 4.54559 9.98521 4.89679C9.98521 5.27341 9.77866 5.60082 9.47314 5.77493C9.50126 5.80873 9.53317 5.83955 9.57129 5.86334C10.1807 6.19886 10.7909 6.53384 11.3998 6.86855C11.5847 6.98562 12.0321 6.58818 12.1819 5.92633C12.3303 5.28043 12.3303 4.60831 12.1822 3.96214Z" fill="#F1C14B"/>
<path d="M14.9084 5.78194C14.9084 5.52996 14.737 5.32556 14.5253 5.32556H3.38283C3.17141 5.32556 3 5.52996 3 5.78194V7.93916H14.9084V5.78194Z" fill="#99CCD4"/>
<path d="M3.27588 7.93652V14.565C3.27588 14.8054 3.43972 15 3.64141 15H14.2672C14.4689 15 14.6328 14.8054 14.6328 14.565V7.93652H3.27588Z" fill="#99CCD4"/>
<path d="M4.65587 8.65507C4.65587 8.79377 4.5434 8.90597 4.40471 8.90597C4.26628 8.90597 4.15381 8.7935 4.15381 8.65507C4.15381 8.51638 4.26628 8.40417 4.40471 8.40417C4.5434 8.40417 4.65587 8.51665 4.65587 8.65507Z" fill="white"/>
<path d="M7.83751 9.37406C7.83751 9.51276 7.72504 9.62496 7.58635 9.62496C7.44792 9.62496 7.33545 9.51249 7.33545 9.37406C7.33545 9.23537 7.44792 9.12317 7.58635 9.12317C7.72504 9.1229 7.83751 9.23537 7.83751 9.37406Z" fill="white"/>
<path d="M6.42394 10.4032C6.42394 10.5419 6.31147 10.6541 6.17277 10.6541C6.03435 10.6541 5.92188 10.5419 5.92188 10.4032C5.92188 10.2645 6.03435 10.1523 6.17277 10.1523C6.31147 10.1523 6.42394 10.2645 6.42394 10.4032Z" fill="white"/>
<path d="M7.83751 11.8371C7.83751 11.9758 7.72504 12.088 7.58635 12.088C7.44792 12.088 7.33545 11.9755 7.33545 11.8371C7.33545 11.6987 7.44792 11.5862 7.58635 11.5862C7.72504 11.5862 7.83751 11.6984 7.83751 11.8371Z" fill="white"/>
<path d="M6.17296 13.0874C6.17296 13.2261 6.06049 13.3383 5.9218 13.3383C5.78337 13.3383 5.6709 13.2259 5.6709 13.0874C5.6709 12.949 5.78337 12.8365 5.9218 12.8365C6.06049 12.8365 6.17296 12.9487 6.17296 13.0874Z" fill="white"/>
<path d="M7.83751 14.1351C7.83751 14.2737 7.72504 14.3859 7.58635 14.3859C7.44792 14.3859 7.33545 14.2735 7.33545 14.1351C7.33545 13.9966 7.44792 13.8842 7.58635 13.8842C7.72504 13.8842 7.83751 13.9964 7.83751 14.1351Z" fill="white"/>
<path d="M4.90685 11.7192C4.90685 11.8579 4.79438 11.9701 4.65568 11.9701C4.51726 11.9701 4.40479 11.8576 4.40479 11.7192C4.40479 11.5805 4.51726 11.4683 4.65568 11.4683C4.79438 11.4683 4.90685 11.5807 4.90685 11.7192Z" fill="white"/>
<path d="M4.15392 14.1351C4.15392 14.2737 4.04145 14.3859 3.90275 14.3859C3.76433 14.3859 3.65186 14.2735 3.65186 14.1351C3.65186 13.9966 3.76433 13.8842 3.90275 13.8842C4.04145 13.8842 4.15392 13.9964 4.15392 14.1351Z" fill="white"/>
<path d="M10.9894 8.65507C10.9894 8.79377 10.8769 8.90597 10.7382 8.90597C10.5998 8.90597 10.4873 8.7935 10.4873 8.65507C10.4873 8.51638 10.5998 8.40417 10.7382 8.40417C10.8769 8.40417 10.9894 8.51665 10.9894 8.65507Z" fill="white"/>
<path d="M14.171 8.9063C14.171 9.04499 14.0585 9.15719 13.9198 9.15719C13.7814 9.15719 13.6689 9.04472 13.6689 8.9063C13.6689 8.76787 13.7814 8.6554 13.9198 8.6554C14.0585 8.65513 14.171 8.7676 14.171 8.9063Z" fill="white"/>
<path d="M13.2862 10.7155C13.2862 10.8542 13.1738 10.9664 13.0351 10.9664C12.8967 10.9664 12.7842 10.8542 12.7842 10.7155C12.7842 10.5768 12.8967 10.4646 13.0351 10.4646C13.1738 10.4643 13.2862 10.5768 13.2862 10.7155Z" fill="white"/>
<path d="M12.6813 13.9775C12.6813 14.1162 12.5688 14.2284 12.4301 14.2284C12.2917 14.2284 12.1792 14.1162 12.1792 13.9775C12.1792 13.8388 12.2917 13.7266 12.4301 13.7266C12.5688 13.7266 12.6813 13.8388 12.6813 13.9775Z" fill="white"/>
<path d="M11.8873 9.77226C11.8873 9.91096 11.7748 10.0232 11.6361 10.0232C11.4977 10.0232 11.3853 9.91096 11.3853 9.77226C11.3853 9.63357 11.4977 9.52136 11.6361 9.52136C11.7748 9.52136 11.8873 9.63384 11.8873 9.77226Z" fill="white"/>
<path d="M14.171 11.8371C14.171 11.9758 14.0585 12.088 13.9198 12.088C13.7814 12.088 13.6689 11.9755 13.6689 11.8371C13.6689 11.6987 13.7814 11.5862 13.9198 11.5862C14.0585 11.5862 14.171 11.6984 14.171 11.8371Z" fill="white"/>
<path d="M13.0353 12.5856C13.0353 12.7243 12.9228 12.8365 12.7841 12.8365C12.6457 12.8365 12.5332 12.7243 12.5332 12.5856C12.5332 12.4469 12.6457 12.3347 12.7841 12.3347C12.9228 12.3344 13.0353 12.4469 13.0353 12.5856Z" fill="white"/>
<path d="M11.2408 12.8366C11.2408 12.9753 11.1284 13.0875 10.9897 13.0875C10.8512 13.0875 10.7388 12.9753 10.7388 12.8366C10.7388 12.6979 10.8512 12.5857 10.9897 12.5857C11.1284 12.5857 11.2408 12.6979 11.2408 12.8366Z" fill="white"/>
<path d="M14.171 14.1351C14.171 14.2737 14.0585 14.3859 13.9198 14.3859C13.7814 14.3859 13.6689 14.2735 13.6689 14.1351C13.6689 13.9966 13.7814 13.8842 13.9198 13.8842C14.0585 13.8842 14.171 13.9964 14.171 14.1351Z" fill="white"/>
<path d="M10.9894 11.3352C10.9894 11.4739 10.8769 11.5861 10.7382 11.5861C10.5998 11.5861 10.4873 11.4739 10.4873 11.3352C10.4873 11.1966 10.5998 11.0844 10.7382 11.0844C10.8769 11.0841 10.9894 11.1966 10.9894 11.3352Z" fill="white"/>
<path d="M5.04161 10.1524C5.04161 10.2911 4.92914 10.4033 4.79045 10.4033C4.65202 10.4033 4.53955 10.2911 4.53955 10.1524C4.53955 10.0137 4.65202 9.90149 4.79045 9.90149C4.92914 9.90122 5.04161 10.0137 5.04161 10.1524Z" fill="white"/>
<path d="M6.67491 8.50261C6.67491 8.64131 6.56244 8.7535 6.42375 8.7535C6.28532 8.7535 6.17285 8.64131 6.17285 8.50261C6.17285 8.36391 6.28532 8.25171 6.42375 8.25171C6.56244 8.25171 6.67491 8.36391 6.67491 8.50261Z" fill="white"/>
<path d="M10.4874 14.1351C10.4874 14.2737 10.3749 14.3859 10.2362 14.3859C10.0978 14.3859 9.98535 14.2735 9.98535 14.1351C9.98535 13.9966 10.0978 13.8842 10.2362 13.8842C10.3749 13.8842 10.4874 13.9964 10.4874 14.1351Z" fill="white"/>
<path d="M9.46418 7.93652H8.46924V15H9.46418V7.93652Z" fill="#E6B847"/>
<path d="M9.46418 5.32581H8.46924V7.93941H9.46418V5.32581Z" fill="#F1C14B"/>
<path d="M14.6325 7.93652H3.27588V9.37378H14.6325V7.93652Z" fill="#DEDBD0"/>
</svg>
