<svg width="18" height="18" viewBox="0 0 18 18" fill="none" xmlns="http://www.w3.org/2000/svg">
<circle cx="9" cy="9" r="9" fill="#121212"/>
<path d="M5.45893 7.19976L5.45279 10.0996C5.46511 10.4256 5.54874 10.6163 5.70256 10.6729C5.77636 10.7 5.82929 10.7676 5.83543 10.8464C5.86003 11.1195 5.86866 11.3545 5.86248 11.5514C5.84896 12.0004 6.03597 12.5098 6.20082 12.9072C6.22418 12.965 6.20572 12.9933 6.14424 12.9946L4.33571 13.0315C4.32094 13.0327 4.30866 13.0315 4.29879 13.029C4.26925 13.0204 4.26066 13.0032 4.27174 12.9749C4.54732 12.3044 4.75154 11.5994 4.88321 10.86C4.89798 10.7801 4.92013 10.7296 4.94967 10.7099C5.00256 10.6767 5.06039 10.657 5.1256 10.6521C5.22894 10.6447 5.28556 10.5893 5.29415 10.4872C5.31506 10.2535 5.28552 10.0874 5.20678 9.99021L5.2486 7.10144L5.27445 6.48258C5.27814 6.39891 5.33472 6.32756 5.41595 6.3042L8.98136 5.32734C9.02073 5.31751 9.05765 5.34704 9.05641 5.38761L9.05392 5.44669C9.05267 5.47623 9.03177 5.50207 9.00227 5.51066L5.56604 6.45184C5.49589 6.47155 5.46021 6.51705 5.46021 6.58965L5.45893 7.19976Z" fill="#FCBD50"/>
<path d="M17.9948 8.72784C17.9653 7.73376 17.7709 6.75196 17.419 5.82065C16.6919 3.89277 15.3238 2.2737 13.546 1.23282C11.7719 0.194441 9.69639 -0.205386 7.66393 0.0997284C4.86497 0.519255 2.42651 2.23184 1.08181 4.72324C0.0926251 6.55392 -0.232157 8.67126 0.165218 10.7136C0.558901 12.7473 1.64284 14.5817 3.23237 15.9092C4.8244 17.2367 6.82488 17.9761 8.89671 17.9995C11.0165 18.0228 13.0748 17.2982 14.7123 15.9535C16.3979 14.5681 17.5236 12.6181 17.8792 10.4651C17.9739 9.89171 18.0133 9.30978 17.9948 8.72784ZM15.2266 5.94245L12.782 7.05832C12.7685 7.96997 12.7697 8.57282 12.7833 8.86934C12.8091 9.41929 12.6233 9.82285 12.2272 10.0812C11.6009 10.4909 10.912 10.7382 10.1627 10.8243C9.14034 10.9412 8.17331 10.9277 7.25917 10.7813C6.6674 10.6865 6.06456 10.4589 5.45309 10.0997C5.46541 10.4257 5.54904 10.6164 5.70282 10.673C5.77662 10.7001 5.82956 10.7677 5.8357 10.8465C5.8603 11.1196 5.86892 11.3546 5.86278 11.5514C5.84926 12.0005 6.03627 12.5098 6.20112 12.9072C6.22452 12.965 6.20606 12.9933 6.14454 12.9946L4.33601 13.0315C4.32124 13.0327 4.30896 13.0315 4.29909 13.029C4.26955 13.0204 4.26097 13.0032 4.27204 12.9749C4.54762 12.3044 4.75184 11.5994 4.88351 10.86C4.89828 10.78 4.92043 10.7296 4.94997 10.7099C5.00286 10.6767 5.06069 10.657 5.1259 10.6521C5.22924 10.6447 5.28586 10.5893 5.29445 10.4872C5.31536 10.2535 5.28582 10.0874 5.20709 9.9902C4.78756 9.82654 4.46154 9.57067 4.23147 9.22249C4.11706 9.05025 4.06047 8.8374 4.06167 8.58518C4.06537 7.97126 4.0703 7.35858 4.07644 6.74711L4.07275 6.67207C4.07151 6.62776 4.04939 6.59947 4.00629 6.58719C3.62983 6.4814 3.20292 6.31406 2.72677 6.08648C2.56315 6.00898 2.45981 5.94253 2.41551 5.88839C2.33063 5.78136 2.3503 5.70138 2.47703 5.64849C4.34957 4.86727 6.36233 4.07247 8.51538 3.2654C8.83157 3.1473 9.01979 3.0993 9.36182 3.23342C11.7966 4.18937 13.7454 4.99769 15.2058 5.66081C15.3054 5.70624 15.3127 5.7997 15.2266 5.94245Z" fill="#EC635F"/>
</svg>
