<svg width="18" height="18" viewBox="0 0 18 18" fill="none" xmlns="http://www.w3.org/2000/svg">
<path d="M17.9999 9.00004C17.9999 13.9704 13.9705 18 9.00004 18C4.0294 18 0 13.9704 0 9.00004C0 4.0294 4.0294 0 9.00004 0C13.9705 8.87298e-05 17.9999 4.02949 17.9999 9.00004Z" fill="#02084D"/>
<mask id="mask0_55217_17624" style="mask-type:luminance" maskUnits="userSpaceOnUse" x="0" y="0" width="18" height="18">
<path d="M17.9999 9.00004C17.9999 13.9704 13.9705 18 9.00004 18C4.0294 18 0 13.9704 0 9.00004C0 4.0294 4.0294 0 9.00004 0C13.9705 8.87298e-05 17.9999 4.02949 17.9999 9.00004Z" fill="white"/>
</mask>
<g mask="url(#mask0_55217_17624)">
<path d="M20.0256 11.8163L12.6448 19.1971L6.00049 12.5528L13.3813 5.172L20.0256 11.8163Z" fill="url(#paint0_linear_55217_17624)"/>
</g>
<path d="M14.1579 8.32348C14.0468 8.26785 13.8603 8.2501 13.6621 8.25081C13.6113 7.54647 13.3178 6.95793 12.8491 6.4913C13.3169 5.89308 13.3768 5.25121 13.3795 5.21776C13.3814 5.19495 13.3737 5.17242 13.3583 5.15547C13.3428 5.13861 13.3209 5.12903 13.298 5.12903C12.7512 5.12903 12.2647 5.33515 11.9528 5.50817C11.9498 5.50977 11.7942 5.60019 11.6448 5.70152C10.8935 5.37845 9.98365 5.21093 9.00238 5.21093C7.37881 5.21093 5.94919 5.66789 5.11282 6.53309C5.05923 6.41721 4.98168 6.30026 4.86926 6.21499C4.81221 6.17152 4.75036 6.13904 4.68408 6.11748C4.6721 6.1008 4.65906 6.08474 4.64477 6.0693C4.50059 5.91314 4.19394 5.77383 3.55189 5.99636C3.48782 6.01864 3.45384 6.08864 3.47603 6.15271C3.49821 6.21677 3.56795 6.25058 3.63228 6.22848C3.85969 6.14969 4.05294 6.11624 4.20201 6.12795C3.86652 6.22751 3.76138 6.44711 3.77895 6.63123C3.80335 6.88677 4.05232 7.09466 4.33378 7.09466C4.4926 7.09466 4.63892 6.97709 4.72507 6.78011C4.76438 6.69032 4.78896 6.58384 4.78994 6.47604C4.85737 6.55359 4.90182 6.65101 4.93128 6.73974C4.55143 7.21409 4.34159 7.79367 4.34159 8.47335C4.34159 9.63535 5.00688 10.6754 5.98291 11.3765V12.3176C5.98291 12.5996 6.19568 12.8152 6.47775 12.8152H7.42228C7.70435 12.8152 7.93496 12.5995 7.93496 12.3176V12.194C8.28988 12.2599 8.6259 12.2958 8.99422 12.2958C9.27212 12.2958 9.53219 12.2748 9.79838 12.2366V12.3176C9.79838 12.5996 10.0455 12.8152 10.3276 12.8152H11.2721C11.5542 12.8152 11.7505 12.5995 11.7505 12.3176V11.544C12.2829 11.2183 12.7494 10.8008 13.0741 10.3201C13.3237 10.471 13.7409 10.5856 14.15 10.1252C14.8051 9.38824 14.4855 8.48728 14.1579 8.32348ZM4.49997 6.6818C4.45684 6.78038 4.38852 6.84915 4.33378 6.84915C4.16191 6.84915 4.03467 6.72448 4.02358 6.60807C4.01178 6.48473 4.13644 6.38571 4.35702 6.34312C4.39828 6.33513 4.43732 6.33123 4.47432 6.33123C4.49074 6.33123 4.5068 6.33194 4.5225 6.33354C4.56243 6.44454 4.54398 6.58127 4.49997 6.6818Z" fill="#FFBAB0"/>
<path d="M14.2808 9.08344C14.2808 9.23162 14.2074 9.35185 14.1169 9.35185C14.0264 9.35185 13.9531 9.23162 13.9531 9.08344C13.9531 8.93517 14.0264 8.81494 14.1169 8.81494C14.2073 8.81494 14.2808 8.93517 14.2808 9.08344Z" fill="#02084D"/>
<path d="M12.8475 7.97541C12.8475 8.16768 12.6825 8.32349 12.4789 8.32349C12.2754 8.32349 12.1104 8.16768 12.1104 7.97541C12.1104 7.78313 12.2754 7.62732 12.4789 7.62732C12.6825 7.62723 12.8475 7.78313 12.8475 7.97541Z" fill="#02084D"/>
<path d="M10.3364 6.22245C8.97687 5.56212 7.8004 6.21224 7.7886 6.2189L7.66748 6.00506C7.71992 5.97534 8.96932 5.28528 10.4437 6.00151L10.3364 6.22245Z" fill="#02084D"/>
<path d="M5.02419 7.52347C5.02419 7.52347 5.021 7.53226 5.01505 7.54876C5.00982 7.56517 5.00201 7.58931 4.99225 7.62001C4.98302 7.65124 4.97157 7.68931 4.96119 7.73367C4.9501 7.77795 4.94016 7.82826 4.92969 7.88327C4.91709 7.93775 4.91133 7.99844 4.90139 8.06153C4.89713 8.1255 4.88746 8.1924 4.88746 8.26214C4.88622 8.29693 4.88497 8.33224 4.88373 8.36809C4.88364 8.40385 4.88595 8.44014 4.88692 8.47661C4.88692 8.54972 4.89633 8.62336 4.90325 8.6971C4.90982 8.77092 4.92748 8.84324 4.9375 8.91555C4.95179 8.98716 4.97246 9.0561 4.98719 9.12424C5.00538 9.1915 5.03005 9.25441 5.04753 9.31626C5.06385 9.37863 5.09242 9.43258 5.11194 9.48529C5.13413 9.53693 5.15054 9.58617 5.17202 9.62672C5.19198 9.66807 5.20937 9.70418 5.22375 9.73391C5.2517 9.79424 5.26767 9.82867 5.26767 9.82867L5.26935 9.83231C5.27964 9.85449 5.26997 9.88084 5.24779 9.89114C5.22783 9.90036 5.20467 9.89353 5.1926 9.87596C5.1926 9.87596 5.17051 9.84376 5.13182 9.7875C5.11283 9.75893 5.08985 9.72424 5.06341 9.68431C5.03457 9.64562 5.01337 9.59576 4.98586 9.54367C4.96084 9.49035 4.92623 9.4356 4.90343 9.37162C4.87832 9.30862 4.85117 9.24208 4.82836 9.17163C4.80849 9.10011 4.78622 9.02646 4.76989 8.95016C4.7572 8.87323 4.73848 8.79568 4.73298 8.71644C4.72668 8.63738 4.71665 8.5585 4.71914 8.48024C4.7194 8.4412 4.71852 8.40252 4.71994 8.36427C4.7226 8.32612 4.72526 8.2885 4.72783 8.25141C4.73227 8.17723 4.74771 8.10669 4.75685 8.03952C4.77193 7.97315 4.78258 7.90998 4.7997 7.8531C4.82961 7.73846 4.86856 7.64716 4.89509 7.58336C4.9092 7.55177 4.92153 7.52738 4.93067 7.51016C4.93954 7.49384 4.94424 7.48514 4.94424 7.48514C4.95596 7.46358 4.98302 7.45568 5.00449 7.46739C5.02401 7.47804 5.03235 7.5012 5.02499 7.52152L5.02419 7.52347Z" fill="#FFD7B0"/>
<path d="M5.3667 10.1528C5.3667 10.1528 5.53049 10.4259 5.66705 10.4531L5.3667 10.1528Z" fill="#FFD7B0" stroke="#FFD7B0" stroke-width="0.0887298" stroke-miterlimit="10" stroke-linecap="round" stroke-linejoin="round"/>
<defs>
<linearGradient id="paint0_linear_55217_17624" x1="9.6909" y1="8.86243" x2="16.3351" y2="15.5067" gradientUnits="userSpaceOnUse">
<stop stop-color="#0F0C23"/>
<stop offset="1" stop-color="#02084D"/>
</linearGradient>
</defs>
</svg>
