<svg width="19" height="19" viewBox="0 0 19 19" fill="none" xmlns="http://www.w3.org/2000/svg">
<path d="M9.15211 18.4248C14.1226 18.3972 18.1296 14.3454 18.102 9.37496C18.0744 4.40447 14.0226 0.397484 9.05211 0.425098C4.08162 0.452712 0.0746318 4.50447 0.102246 9.47496C0.12986 14.4454 4.18162 18.4524 9.15211 18.4248Z" fill="#7BC38E"/>
<path d="M14.4213 9.63941L14.4257 9.41844L14.4185 9.1734L14.3513 9.17448C14.3469 9.08001 14.3402 8.98607 14.3308 8.89287L14.398 8.88619C14.398 8.88619 14.3967 8.87174 14.3949 8.85001C14.3922 8.82846 14.3882 8.79964 14.3844 8.77083C14.3768 8.71328 14.3692 8.65565 14.3692 8.65565L14.3024 8.66534L14.3024 8.66525L14.3692 8.65556C14.3692 8.65556 14.3633 8.59729 14.3515 8.53986C14.3409 8.48233 14.3304 8.42471 14.3304 8.42471L14.2639 8.43733C14.2469 8.34745 14.2276 8.25829 14.2059 8.17012L14.2715 8.15405C14.2715 8.15405 14.2594 8.09715 14.2435 8.04125C14.2272 7.98535 14.2112 7.92953 14.2112 7.92953C14.2112 7.92953 14.1947 7.87328 14.1785 7.81702C14.1595 7.76158 14.1406 7.70623 14.1406 7.70623L14.0766 7.72797C14.0472 7.64144 14.0155 7.55608 13.9815 7.47153L14.0443 7.44642C14.0443 7.44642 14.0225 7.3925 14.0009 7.33858C13.9771 7.28556 13.9532 7.23263 13.9532 7.23263C13.9532 7.23263 13.9287 7.17935 13.9043 7.12625C13.8925 7.09943 13.8794 7.07324 13.869 7.05395C13.8589 7.03448 13.8521 7.02148 13.8521 7.02148L13.7919 7.05198C13.7505 6.97058 13.7071 6.89052 13.6618 6.81153L13.7205 6.77793C13.7205 6.77793 13.6912 6.72778 13.662 6.67745C13.6476 6.65224 13.6326 6.62739 13.6203 6.60927C13.6084 6.59106 13.6005 6.57877 13.6005 6.57877C13.6005 6.57877 13.5688 6.5297 13.5367 6.48063C13.5057 6.43093 13.4711 6.38374 13.4711 6.38374L13.4156 6.42238C13.3636 6.3476 13.3093 6.27443 13.2534 6.20251L13.3068 6.16104C13.3068 6.16104 13.2707 6.11555 13.2345 6.07014C13.199 6.02411 13.1606 5.98057 13.1606 5.98057C13.1606 5.98057 13.122 5.93651 13.0835 5.89254C13.0453 5.8482 13.0054 5.80539 13.0055 5.80539L12.9559 5.85136C12.8941 5.78453 12.8301 5.71967 12.7647 5.65606L12.8117 5.60761C12.8117 5.60761 12.7695 5.56774 12.7272 5.52787C12.685 5.48782 12.6419 5.4491 12.6419 5.4491L12.4641 5.29685L12.4214 5.34917C12.3509 5.29162 12.2785 5.23621 12.2049 5.18231L12.2448 5.12779L12.0546 4.99424L11.8568 4.86889L11.8218 4.92658C11.7441 4.87937 11.6651 4.83375 11.5847 4.79063L11.6166 4.73118L11.4092 4.62621C11.4092 4.62621 11.3961 4.61971 11.3764 4.61006C11.3562 4.60112 11.3297 4.5892 11.3029 4.57728C11.2494 4.55353 11.1959 4.52961 11.1959 4.52961L11.1694 4.59169C11.0857 4.55586 11.001 4.52191 10.9153 4.49035L10.9387 4.42704C10.9387 4.42704 10.9252 4.4217 10.9049 4.41401C10.8842 4.40702 10.8566 4.39786 10.8289 4.3887C10.7737 4.37037 10.7187 4.35204 10.7187 4.35204C10.7187 4.35204 10.6635 4.33212 10.6067 4.31753C10.5503 4.30178 10.4938 4.28612 10.4938 4.28612L10.4762 4.35135C10.3886 4.32761 10.3001 4.3061 10.2105 4.28681L10.2247 4.2208C10.2247 4.2208 10.1683 4.20647 10.1109 4.19703C10.0536 4.18714 9.99642 4.17726 9.99642 4.17726C9.99642 4.17726 9.93878 4.16737 9.88105 4.15758C9.82297 4.15045 9.76481 4.14332 9.76481 4.14332L9.75649 4.21044C9.66645 4.19923 9.57581 4.19033 9.48446 4.18383L9.48933 4.11636C9.48933 4.11636 9.43145 4.11225 9.37348 4.10822C9.31561 4.10428 9.25749 4.10443 9.25749 4.10443C9.25749 4.10443 9.19892 4.10325 9.14052 4.10215C9.08213 4.09999 9.02357 4.10227 9.02357 4.10227L9.02466 4.16988C8.93301 4.17127 8.84199 4.17489 8.7516 4.1808L8.74723 4.11339C8.74723 4.11339 8.68923 4.11815 8.63131 4.12282C8.57348 4.12766 8.51557 4.13295 8.51557 4.13295L8.28352 4.1637L8.29374 4.23046C8.20331 4.24436 8.11352 4.26039 8.02471 4.2789L8.01103 4.21287L7.78461 4.26577C7.78461 4.26577 7.72745 4.27904 7.67165 4.2963C7.61539 4.31258 7.55914 4.32887 7.55914 4.32887L7.57857 4.39344C7.49105 4.41993 7.40452 4.44836 7.31888 4.47918L7.29599 4.4156C7.29599 4.4156 7.24081 4.43365 7.18707 4.45622C7.13333 4.47791 7.07915 4.49942 7.07915 4.49942C7.07915 4.49942 7.02434 4.51986 6.97106 4.54456C6.91795 4.5689 6.86476 4.59333 6.86476 4.59333L6.89314 4.65458C6.81012 4.69302 6.72862 4.7334 6.64802 4.776L6.61646 4.71619C6.61646 4.71619 6.56425 4.74195 6.51401 4.77089C6.46377 4.80009 6.41344 4.8293 6.41344 4.8293C6.41344 4.8293 6.36303 4.85886 6.31235 4.88842C6.26328 4.9202 6.21412 4.95206 6.21412 4.95206L6.25081 5.00882C6.17416 5.05841 6.09902 5.10985 6.02514 5.16323L5.9857 5.10843C5.9857 5.10843 5.93859 5.14241 5.89149 5.17648C5.8459 5.2125 5.8004 5.24869 5.8004 5.24869C5.8004 5.24869 5.75464 5.28505 5.70897 5.32151C5.66357 5.35841 5.62013 5.39778 5.62013 5.39778L5.66442 5.44891C5.59545 5.50857 5.52818 5.5699 5.46251 5.63309L5.41566 5.58437C5.41566 5.58437 5.37391 5.62471 5.33208 5.66496C5.29069 5.70566 5.25162 5.74864 5.25162 5.74864C5.25162 5.74864 5.21148 5.79128 5.17134 5.83383C5.13031 5.87567 5.09348 5.92113 5.09348 5.92113L5.1443 5.96575C5.08434 6.03432 5.02635 6.10447 4.96987 6.17604L4.91693 6.13427C4.91693 6.13427 4.88116 6.18017 4.84547 6.22598C4.80899 6.27117 4.77687 6.3197 4.77687 6.3197C4.77687 6.3197 4.74333 6.36754 4.70961 6.41547C4.67518 6.46278 4.64431 6.51246 4.64431 6.51246L4.70068 6.54941C4.65088 6.62556 4.60313 6.70338 4.55707 6.78216L4.49885 6.74815C4.49885 6.74815 4.47021 6.79862 4.44156 6.84918C4.41202 6.8993 4.38614 6.95126 4.38596 6.95126C4.38596 6.95126 4.35954 7.0035 4.33312 7.05573C4.30653 7.10796 4.28118 7.16072 4.28118 7.16072L4.34221 7.1894C4.30353 7.27178 4.26726 7.3553 4.23268 7.43988L4.17016 7.41441L4.08662 7.63129L4.01279 7.85354L4.07723 7.8735C4.05048 7.96043 4.0255 8.04806 4.0031 8.13683L3.9377 8.12024L3.8866 8.34706C3.8866 8.34706 3.8834 8.36136 3.87864 8.38278C3.87494 8.40436 3.86987 8.43323 3.86488 8.46209C3.85482 8.51974 3.84494 8.57747 3.84494 8.57747L3.91155 8.58819C3.89731 8.6778 3.88513 8.76802 3.87525 8.8592L3.80813 8.85195C3.80813 8.85195 3.80011 8.90949 3.79697 8.96763C3.79294 9.0255 3.78874 9.08347 3.78874 9.08347C3.78874 9.08347 3.78383 9.1418 3.78158 9.20019C3.78048 9.25868 3.7793 9.31716 3.7793 9.31716L3.84692 9.31856C3.84593 9.36382 3.84396 9.40881 3.84422 9.45424C3.84447 9.50038 3.84694 9.54589 3.84844 9.59167L3.78084 9.59382C3.78084 9.59382 3.78276 9.65184 3.78459 9.70995C3.78731 9.76788 3.79286 9.82579 3.79286 9.82579C3.79286 9.82579 3.79771 9.88406 3.80256 9.94242C3.80617 10.0008 3.81519 10.0588 3.81519 10.0588L3.88223 10.0508C3.89294 10.1417 3.90613 10.2319 3.92153 10.3214L3.85504 10.3327C3.85504 10.3327 3.86556 10.3899 3.87609 10.4471C3.8813 10.4756 3.88661 10.5043 3.89054 10.5257C3.89554 10.5469 3.8989 10.561 3.8989 10.561L3.95305 10.7888L4.01827 10.7716C4.04165 10.8601 4.06742 10.9475 4.09524 11.0341L4.03102 11.0548L4.10678 11.2745L4.19344 11.4921L4.25549 11.4659C4.2911 11.55 4.32838 11.6333 4.36797 11.7151L4.30726 11.7445C4.30726 11.7445 4.3332 11.7966 4.36001 11.8481C4.38683 11.8996 4.41365 11.9512 4.41365 11.9512C4.41383 11.9512 4.44047 12.0033 4.47074 12.0534C4.5003 12.1039 4.52969 12.1546 4.52969 12.1546L4.58753 12.1199C4.63437 12.1983 4.68298 12.2754 4.73371 12.3509L4.67775 12.3886C4.67775 12.3886 4.70908 12.4375 4.74377 12.4841C4.77766 12.5312 4.81155 12.5783 4.81155 12.5783C4.81155 12.5783 4.84439 12.6269 4.88173 12.672C4.91819 12.7179 4.95447 12.7637 4.95447 12.7637L5.00712 12.7212C5.06439 12.7923 5.12316 12.8618 5.18397 12.9296L5.13364 12.9747C5.13364 12.9747 5.17062 13.0195 5.21176 13.0606C5.25219 13.1024 5.29244 13.1442 5.29244 13.1442C5.29244 13.1442 5.33234 13.1871 5.37453 13.2276C5.41708 13.2677 5.45954 13.3079 5.45954 13.3079L5.50585 13.2586C5.57222 13.3209 5.64017 13.3816 5.7098 13.4403L5.66625 13.492C5.66625 13.492 5.70959 13.5306 5.75522 13.5666C5.80103 13.6023 5.84675 13.638 5.84675 13.638C5.84675 13.638 5.89309 13.6738 5.93934 13.7097C5.98718 13.7433 6.03501 13.7771 6.03501 13.7771L6.07401 13.7219C6.14831 13.7745 6.22419 13.825 6.30122 13.8737L6.26533 13.9309C6.26533 13.9309 6.3144 13.9619 6.36346 13.993C6.41402 14.0217 6.46449 14.0504 6.46449 14.0504C6.46449 14.0504 6.51541 14.0794 6.56632 14.1082C6.61742 14.1367 6.67026 14.1621 6.67026 14.1621L6.70116 14.102C6.78197 14.1436 6.86417 14.1831 6.94761 14.2206L6.91992 14.2822C6.91992 14.2822 6.97311 14.3058 7.02604 14.3294C7.07905 14.3533 7.13374 14.3729 7.13374 14.3729C7.13374 14.3729 7.18842 14.3941 7.24302 14.4153C7.29719 14.4374 7.35327 14.4549 7.35327 14.4549L7.37546 14.3911C7.46125 14.421 7.54819 14.4484 7.63608 14.4739L7.61719 14.5387C7.61719 14.5387 7.67327 14.5543 7.72917 14.5699C7.78489 14.5863 7.84184 14.5988 7.84184 14.5988C7.84184 14.5988 7.89897 14.6117 7.95601 14.6246C8.01331 14.6373 8.07035 14.6496 8.07035 14.6496L8.08329 14.5833C8.17247 14.6008 8.26235 14.6158 8.35302 14.6287L8.34354 14.6956L8.57423 14.7236C8.57423 14.7236 8.63246 14.7282 8.69087 14.7324C8.74928 14.7365 8.80752 14.7406 8.80752 14.7406L8.81131 14.6732C8.90185 14.6781 8.99281 14.6808 9.08448 14.681L9.08414 14.7486C9.08414 14.7486 9.14218 14.7501 9.20029 14.7473C9.25831 14.7455 9.31642 14.7438 9.31642 14.7438C9.31642 14.7438 9.3748 14.7433 9.43316 14.7387C9.49152 14.7339 9.5497 14.7292 9.5497 14.7292L9.5441 14.6618C9.63536 14.6541 9.72599 14.6442 9.81581 14.6321L9.82488 14.6991C9.82488 14.6991 9.88251 14.6914 9.94006 14.6837C9.99723 14.6733 10.0543 14.6627 10.0543 14.6627C10.0543 14.6627 10.1119 14.652 10.1695 14.6414C10.2271 14.6312 10.2839 14.6162 10.2839 14.6162L10.269 14.5504C10.3581 14.5301 10.4465 14.5075 10.5339 14.4828L10.5523 14.5478C10.5523 14.5478 10.608 14.5315 10.6639 14.5154C10.7202 14.5003 10.7746 14.4799 10.7746 14.4799C10.7746 14.4799 10.83 14.4608 10.8853 14.4417C10.913 14.4322 10.9407 14.4226 10.9614 14.4154C10.9818 14.4072 10.9953 14.4018 10.9953 14.4018L10.9712 14.3387C11.0566 14.3062 11.1408 14.2713 11.2241 14.2346L11.2513 14.2963C11.2513 14.2963 11.3043 14.272 11.3569 14.2479C11.3834 14.2356 11.4099 14.2235 11.4295 14.2144C11.4491 14.2047 11.462 14.198 11.462 14.198L11.6697 14.0899L11.637 14.0308C11.717 13.9867 11.7954 13.9402 11.8728 13.8921L11.9084 13.9494L12.1032 13.8228L12.2932 13.6862L12.2527 13.6322C12.3257 13.5775 12.3974 13.5213 12.4674 13.4629L12.5106 13.5147L12.6854 13.3617C12.6854 13.3617 12.7285 13.3222 12.7706 13.2813C12.8127 13.2407 12.8547 13.2001 12.8547 13.2001L12.8071 13.1522C12.8717 13.0879 12.935 13.0223 12.9962 12.9548L13.0462 13.0001C13.0462 13.0001 13.0851 12.957 13.1227 12.9127C13.1606 12.8686 13.1982 12.8245 13.1982 12.8245C13.1982 12.8245 13.2367 12.7803 13.2717 12.7335C13.3075 12.6872 13.3434 12.641 13.3434 12.641L13.2896 12.6002C13.3447 12.5276 13.3981 12.4538 13.4493 12.3784L13.5052 12.4164C13.5052 12.4164 13.5389 12.3691 13.5693 12.3195C13.6005 12.2705 13.6315 12.2213 13.6315 12.2213C13.6315 12.2213 13.6644 12.1729 13.6923 12.1213C13.7211 12.0704 13.7501 12.0195 13.7501 12.0195L13.691 11.9866C13.7355 11.9071 13.778 11.8265 13.8184 11.7446L13.8789 11.7744C13.8789 11.7744 13.8854 11.7614 13.8952 11.742C13.9053 11.7227 13.9182 11.6966 13.9297 11.6699C13.9532 11.6168 13.977 11.5638 13.977 11.5638C13.977 11.5638 14.0004 11.51 14.0238 11.4565C14.045 11.4019 14.0662 11.3473 14.0662 11.3473L14.0033 11.3229C14.0361 11.2381 14.0669 11.1523 14.0953 11.0654L14.1596 11.0864C14.1596 11.0864 14.1778 11.0312 14.1959 10.976C14.2115 10.92 14.2271 10.864 14.2271 10.864C14.2271 10.864 14.2428 10.8076 14.2583 10.7511C14.2736 10.6946 14.2854 10.6373 14.2854 10.6373L14.2196 10.6219C14.2401 10.5334 14.2585 10.4441 14.2745 10.354L14.3409 10.3659C14.3409 10.3659 14.3508 10.3086 14.3607 10.2514C14.3718 10.1944 14.377 10.1367 14.377 10.1364C14.377 10.1364 14.384 10.0783 14.3911 10.0202C14.3946 9.99112 14.3981 9.96217 14.4007 9.94042C14.4023 9.91849 14.4034 9.90411 14.4034 9.90411L14.3361 9.89819C14.3438 9.8111 14.3495 9.7234 14.353 9.63518L14.4213 9.63941Z" fill="#FFC73D"/>
<path d="M13.4707 9.40124C13.4841 11.8145 11.5386 13.7818 9.12521 13.7952C6.71201 13.8086 4.74472 11.8631 4.73131 9.44979C4.7179 7.0365 6.66345 5.06921 9.07666 5.0558C11.49 5.04231 13.4573 6.98786 13.4707 9.40124Z" stroke="#FFAC3D" stroke-width="0.177464" stroke-miterlimit="10"/>
<path d="M12.8619 9.40473C12.8505 7.34751 11.1673 5.68814 9.12646 5.68555L9.16802 13.1654C11.2087 13.14 12.8734 11.4619 12.8619 9.40473Z" fill="#D9D3D2"/>
<path d="M9.13219 13.1659C9.14088 13.1659 9.07939 13.1656 9.16812 13.1651L9.12656 5.6853C9.03783 5.6857 9.09923 5.68474 9.09062 5.68479C7.02489 5.69626 5.3594 7.38027 5.37088 9.44609C5.38236 11.5119 7.06636 13.1774 9.13219 13.1659Z" fill="#CEECEF"/>
<path d="M10.5318 11.3161C10.3322 11.4532 9.99657 11.5907 9.57057 11.5931C9.04724 11.596 8.58091 11.3981 8.25567 11.0254C8.00909 10.7556 7.84587 10.3817 7.78508 9.91715L7.38438 9.91938L7.38262 9.6027L7.75103 9.60065C7.75085 9.56835 7.75067 9.53615 7.75049 9.50394C7.74992 9.40056 7.75559 9.30346 7.76156 9.21309L7.38047 9.21521L7.37867 8.89214L7.8052 8.88977C7.87979 8.43709 8.07186 8.06156 8.32894 7.79527C8.65632 7.4512 9.07476 7.25518 9.60458 7.25223C9.98585 7.25011 10.2835 7.35805 10.4648 7.45411L10.3383 7.88118C10.1759 7.78501 9.90416 7.70249 9.61356 7.7041C9.2645 7.70604 8.98169 7.83059 8.76275 8.06438C8.57053 8.2525 8.44251 8.54408 8.38 8.88658L10.182 8.87657L10.1838 9.19964L8.32358 9.20997C8.31784 9.29403 8.3119 9.39079 8.3124 9.4812C8.31262 9.52007 8.3128 9.55237 8.31305 9.59762L10.1859 9.58721L10.1876 9.90389L8.35962 9.91405C8.41351 10.2882 8.54398 10.5653 8.71959 10.758C8.95994 11.0086 9.28352 11.1294 9.63258 11.1275C9.97517 11.1256 10.2715 10.995 10.4196 10.9102L10.5318 11.3161Z" fill="#02084D"/>
</svg>
