<svg width="19" height="19" viewBox="0 0 19 19" fill="none" xmlns="http://www.w3.org/2000/svg">
<path d="M18.0917 9.61968C18.1193 14.5901 14.1124 18.6418 9.14194 18.6694C4.17135 18.6971 0.119606 14.6901 0.0919925 9.71968C0.0643778 4.74908 4.07135 0.697341 9.04194 0.669726C14.0124 0.642112 18.0641 4.64908 18.0917 9.61968Z" fill="#FFC73D"/>
<mask id="mask0_77_16706" style="mask-type:luminance" maskUnits="userSpaceOnUse" x="0" y="0" width="19" height="19">
<path d="M18.0917 9.61968C18.1193 14.5901 14.1124 18.6418 9.14194 18.6694C4.17135 18.6971 0.119606 14.6901 0.0919925 9.71968C0.0643778 4.74908 4.07135 0.697341 9.04194 0.669726C14.0124 0.642112 18.0641 4.64908 18.0917 9.61968Z" fill="white"/>
</mask>
<g mask="url(#mask0_77_16706)">
<path d="M14.0083 8.38429C13.4243 8.84761 12.7149 9.14383 12.0154 9.3857C11.2201 9.66075 10.3031 9.86034 9.4673 9.65549C9.26152 9.60508 9.06306 9.532 8.88177 9.43452L4.11191 14.2577L10.9977 21.0673L18.8274 13.1501L14.0083 8.38429Z" fill="url(#paint0_linear_77_16706)"/>
</g>
<path d="M14.0091 8.35544L4.16016 8.41016L4.19269 14.2663L14.0416 14.2115L14.0091 8.35544Z" fill="#D9D3D2"/>
<path d="M4.14059 8.41034L9.06604 5.04968L14.0285 8.3554L4.14059 8.41034Z" fill="#D9D3D2"/>
<path d="M4.14062 8.41016L9.10546 12.1386L14.0286 8.35522L4.14062 8.41016Z" fill="#A39F9F"/>
<path d="M7.38378 10.8672L4.14307 14.2344L4.1983 14.2875L7.43901 10.9204L7.38378 10.8672Z" fill="#A39F9F"/>
<path d="M10.81 10.8447L10.7554 10.8984L14.0338 14.2294L14.0884 14.1756L10.81 10.8447Z" fill="#A39F9F"/>
<mask id="mask1_77_16706" style="mask-type:luminance" maskUnits="userSpaceOnUse" x="4" y="8" width="11" height="5">
<path d="M4.14062 8.41016L9.10546 12.1386L14.0286 8.35522L4.14062 8.41016Z" fill="white"/>
</mask>
<g mask="url(#mask1_77_16706)">
<path d="M13.2155 9.24712L4.875 9.29346L4.90753 15.1496L13.2481 15.1032L13.2155 9.24712Z" fill="#CEECEF"/>
</g>
<defs>
<linearGradient id="paint0_linear_77_16706" x1="8.02681" y1="10.299" x2="14.9126" y2="17.1087" gradientUnits="userSpaceOnUse">
<stop stop-color="#F4993B"/>
<stop offset="1" stop-color="#FFC73D"/>
</linearGradient>
</defs>
</svg>
