<svg width="19" height="19" viewBox="0 0 19 19" fill="none" xmlns="http://www.w3.org/2000/svg">
<path d="M18.1044 9.11967C18.132 14.0901 14.125 18.1418 9.15464 18.1694C4.18404 18.1971 0.132302 14.1901 0.104688 9.21967C0.0770731 4.24908 4.08404 0.197341 9.05464 0.169726C14.0251 0.142112 18.0768 4.14908 18.1044 9.11967Z" fill="#D9D3D2"/>
<mask id="mask0_77_16702" style="mask-type:luminance" maskUnits="userSpaceOnUse" x="0" y="0" width="19" height="19">
<path d="M18.1044 9.11967C18.132 14.0901 14.125 18.1418 9.15464 18.1694C4.18404 18.1971 0.132302 14.1901 0.104688 9.21967C0.0770731 4.24908 4.08404 0.197341 9.05464 0.169726C14.0251 0.142112 18.0768 4.14908 18.1044 9.11967Z" fill="white"/>
</mask>
<g mask="url(#mask0_77_16702)">
<path d="M12.6044 4.11355L12.086 4.63781C12.0642 4.85675 12.0468 5.07619 12.0335 5.29578C11.9899 6.02167 11.9757 6.74997 11.9071 7.47414C11.869 7.87719 11.823 8.27905 11.7804 8.68133L10.5135 7.42846C10.352 7.78127 10.1787 8.13202 10.0779 8.50596C9.92019 9.09166 9.92869 9.7114 9.92379 10.3139C9.91851 10.9461 9.92391 11.5818 9.97355 12.2123C9.98539 12.363 9.97591 12.573 10.0929 12.689C10.2124 12.8073 10.3941 12.8995 10.5601 12.9243C10.7572 12.9537 11.0302 12.9841 11.2853 12.9617C11.262 12.9661 11.239 12.9702 11.2166 12.9746C10.9549 13.0255 10.6964 13.0945 10.4285 13.1035C9.85075 13.123 9.26722 13.0045 8.69128 12.9596C8.118 12.9147 7.5398 12.8782 6.96471 12.9077C6.67455 12.9226 6.38126 12.9471 6.09832 13.0167C5.96301 13.05 5.81963 13.0506 5.69415 12.9852C5.58612 13.4553 5.51966 13.9207 5.32664 14.346L11.2286 20.1827L19.9428 11.371L12.6044 4.11355Z" fill="url(#paint0_linear_77_16702)"/>
<path d="M8.10209 12.7292C8.4713 12.9361 8.92851 12.8353 9.255 12.5889C9.67728 12.27 9.74616 11.8446 9.75071 11.3371C9.75585 10.7618 9.67363 10.191 9.60648 9.61981L8.26779 8.29591C8.06509 8.59145 7.83165 8.86631 7.76591 9.23562C7.68709 9.67847 7.7541 10.1277 7.72739 10.5736C7.70456 10.9536 7.66427 11.3347 7.67552 11.7158C7.68668 12.0959 7.73262 12.5221 8.10209 12.7292Z" fill="url(#paint1_linear_77_16702)"/>
</g>
<path d="M12.8396 2.68662L11.9416 3.41628L9.82985 6.62235L7.61755 7.69942L5.5078 8.61319" stroke="#7BC38E" stroke-width="0.266191" stroke-miterlimit="10"/>
<path d="M8.25671 8.33147L6.92578 8.33887L6.95092 12.864L8.28185 12.8566L8.25671 8.33147Z" fill="#CEECEF"/>
<path d="M10.4696 7.34319L9.13867 7.35059L9.16923 12.8518L10.5002 12.8444L10.4696 7.34319Z" fill="#CEECEF"/>
<path d="M12.5855 4.8471L11.3433 4.854L11.3876 12.8396L12.6298 12.8327L12.5855 4.8471Z" fill="#CEECEF"/>
<path d="M5.66449 4.88524L5.30957 4.88721L5.36232 14.3812L5.71723 14.3792L5.66449 4.88524Z" fill="#02084D"/>
<path d="M14.0486 12.6474L4.19971 12.7021L4.20217 13.1458L14.0511 13.0911L14.0486 12.6474Z" fill="#02084D"/>
<path d="M5.5261 11.896L4.72754 11.9004L4.72852 12.0778L5.52708 12.0734L5.5261 11.896Z" fill="#02084D"/>
<path d="M5.52268 11.2749L4.72412 11.2793L4.72511 11.4568L5.52367 11.4523L5.52268 11.2749Z" fill="#02084D"/>
<path d="M5.51926 10.6538L4.7207 10.6582L4.7212 10.7469L5.51976 10.7425L5.51926 10.6538Z" fill="#02084D"/>
<path d="M5.51487 9.94381L4.71631 9.94824L4.71729 10.1257L5.51585 10.1213L5.51487 9.94381Z" fill="#02084D"/>
<path d="M5.51145 9.32271L4.71289 9.32715L4.71338 9.41588L5.51194 9.41144L5.51145 9.32271Z" fill="#02084D"/>
<path d="M5.50754 8.61324L4.70898 8.61768L4.70997 8.79513L5.50853 8.7907L5.50754 8.61324Z" fill="#02084D"/>
<path d="M5.50413 7.99215L4.70557 7.99658L4.70655 8.17404L5.50511 8.1696L5.50413 7.99215Z" fill="#02084D"/>
<path d="M5.50071 7.37105L4.70215 7.37549L4.70264 7.46422L5.5012 7.45978L5.50071 7.37105Z" fill="#02084D"/>
<path d="M5.4968 6.66109L4.69824 6.66553L4.69923 6.84299L5.49779 6.83855L5.4968 6.66109Z" fill="#02084D"/>
<path d="M5.49338 6.04L4.69482 6.04443L4.69532 6.13316L5.49388 6.12873L5.49338 6.04Z" fill="#02084D"/>
<path d="M5.48948 5.33004L4.69092 5.33447L4.6919 5.51193L5.49046 5.50749L5.48948 5.33004Z" fill="#02084D"/>
<path d="M12.8957 12.831L12.7183 12.832L12.7227 13.6306L12.9002 13.6296L12.8957 12.831Z" fill="#02084D"/>
<path d="M12.1859 12.835L12.0972 12.8354L12.1016 13.634L12.1903 13.6335L12.1859 12.835Z" fill="#02084D"/>
<path d="M11.5647 12.8384L11.3872 12.8394L11.3916 13.6379L11.5691 13.6369L11.5647 12.8384Z" fill="#02084D"/>
<path d="M10.9436 12.8418L10.7661 12.8428L10.7705 13.6413L10.948 13.6403L10.9436 12.8418Z" fill="#02084D"/>
<path d="M10.2337 12.8462L10.145 12.8467L10.1495 13.6452L10.2382 13.6447L10.2337 12.8462Z" fill="#02084D"/>
<path d="M9.61252 12.8496L9.43506 12.8506L9.4395 13.6491L9.61695 13.6482L9.61252 12.8496Z" fill="#02084D"/>
<path d="M8.90318 12.8535L8.81445 12.854L8.81889 13.6526L8.90762 13.6521L8.90318 12.8535Z" fill="#02084D"/>
<path d="M8.28195 12.8569L8.10449 12.8579L8.10893 13.6565L8.28639 13.6555L8.28195 12.8569Z" fill="#02084D"/>
<path d="M7.66086 12.8603L7.4834 12.8613L7.48783 13.6599L7.66529 13.6589L7.66086 12.8603Z" fill="#02084D"/>
<path d="M6.95103 12.8643L6.8623 12.8647L6.86674 13.6633L6.95547 13.6628L6.95103 12.8643Z" fill="#02084D"/>
<path d="M6.3298 12.8677L6.15234 12.8687L6.15678 13.6672L6.33424 13.6662L6.3298 12.8677Z" fill="#02084D"/>
<path d="M11.943 3.68226C12.09 3.68144 12.2085 3.56161 12.2077 3.4146C12.2069 3.26759 12.087 3.14907 11.94 3.14989C11.793 3.15071 11.6745 3.27054 11.6753 3.41755C11.6761 3.56456 11.796 3.68308 11.943 3.68226Z" fill="#7BC38E"/>
<path d="M7.61924 7.96546C7.76625 7.96465 7.88477 7.84481 7.88395 7.6978C7.88313 7.55079 7.7633 7.43227 7.61628 7.43309C7.46927 7.43391 7.35076 7.55375 7.35158 7.70076C7.35239 7.84777 7.47223 7.96628 7.61924 7.96546Z" fill="#7BC38E"/>
<path d="M9.83116 6.88832C9.97817 6.8875 10.0967 6.76766 10.0959 6.62065C10.095 6.47364 9.97521 6.35513 9.8282 6.35594C9.68119 6.35676 9.56267 6.4766 9.56349 6.62361C9.56431 6.77062 9.68415 6.88913 9.83116 6.88832Z" fill="#7BC38E"/>
<path d="M12.82 3.17965L12.8394 2.68646L12.3184 2.66211" stroke="#7BC38E" stroke-width="0.266191" stroke-miterlimit="10"/>
<defs>
<linearGradient id="paint0_linear_77_16702" x1="8.19655" y1="8.04737" x2="15.1596" y2="15.5953" gradientUnits="userSpaceOnUse">
<stop stop-color="#A9ACC1"/>
<stop offset="1" stop-color="#D9D3D2"/>
</linearGradient>
<linearGradient id="paint1_linear_77_16702" x1="6.98024" y1="9.1692" x2="13.9432" y2="16.717" gradientUnits="userSpaceOnUse">
<stop stop-color="#A9ACC1"/>
<stop offset="1" stop-color="#D9D3D2"/>
</linearGradient>
</defs>
</svg>
