<svg width="40" height="41" viewBox="0 0 40 41" fill="none" xmlns="http://www.w3.org/2000/svg">
<path d="M25 8.93335V12.2667" stroke="#313131" stroke-width="3" stroke-linecap="round" stroke-linejoin="round"/>
<path d="M25 18.9333V22.2667" stroke="#313131" stroke-width="3" stroke-linecap="round" stroke-linejoin="round"/>
<path d="M25 28.9333V32.2667" stroke="#313131" stroke-width="3" stroke-linecap="round" stroke-linejoin="round"/>
<path d="M8.33333 8.93335H31.6667C32.5507 8.93335 33.3986 9.28454 34.0237 9.90966C34.6488 10.5348 35 11.3826 35 12.2667V17.2667C34.1159 17.2667 33.2681 17.6179 32.643 18.243C32.0179 18.8681 31.6667 19.716 31.6667 20.6C31.6667 21.4841 32.0179 22.3319 32.643 22.957C33.2681 23.5822 34.1159 23.9333 35 23.9333V28.9333C35 29.8174 34.6488 30.6652 34.0237 31.2904C33.3986 31.9155 32.5507 32.2667 31.6667 32.2667H8.33333C7.44928 32.2667 6.60143 31.9155 5.97631 31.2904C5.35119 30.6652 5 29.8174 5 28.9333V23.9333C5.88405 23.9333 6.7319 23.5822 7.35702 22.957C7.98214 22.3319 8.33333 21.4841 8.33333 20.6C8.33333 19.716 7.98214 18.8681 7.35702 18.243C6.7319 17.6179 5.88405 17.2667 5 17.2667V12.2667C5 11.3826 5.35119 10.5348 5.97631 9.90966C6.60143 9.28454 7.44928 8.93335 8.33333 8.93335Z" stroke="#313131" stroke-width="3" stroke-linecap="round" stroke-linejoin="round"/>
</svg>
