<svg width="41" height="41" viewBox="0 0 41 41" fill="none" xmlns="http://www.w3.org/2000/svg">
<path d="M7.06706 18.9333H33.7337C34.1758 18.9333 34.5997 19.1089 34.9122 19.4215C35.2248 19.7341 35.4004 20.158 35.4004 20.6V21.4333C35.4004 23.9333 31.2054 30.7217 28.7337 32.2667V33.9333C28.7337 34.3754 28.5581 34.7993 28.2456 35.1119C27.933 35.4244 27.5091 35.6 27.0671 35.6H13.7337C13.2917 35.6 12.8678 35.4244 12.5552 35.1119C12.2427 34.7993 12.0671 34.3754 12.0671 33.9333V32.2667C9.25539 30.51 5.40039 23.9333 5.40039 21.4333V20.6C5.40039 20.158 5.57599 19.7341 5.88855 19.4215C6.20111 19.1089 6.62503 18.9333 7.06706 18.9333Z" stroke="#313131" stroke-width="3" stroke-linecap="round" stroke-linejoin="round"/>
<path d="M20.4 7.26666C19.8725 7.64528 19.4451 8.14662 19.1547 8.72737C18.8643 9.30812 18.7197 9.95084 18.7333 10.6C18.7197 11.2492 18.8643 11.8919 19.1547 12.4726C19.4451 13.0534 19.8725 13.5547 20.4 13.9333" stroke="#313131" stroke-width="3" stroke-linecap="round" stroke-linejoin="round"/>
<path d="M27.0679 7.26666C26.5404 7.64528 26.1131 8.14662 25.8227 8.72737C25.5323 9.30812 25.3877 9.95084 25.4013 10.6C25.3877 11.2492 25.5323 11.8919 25.8227 12.4726C26.1131 13.0534 26.5404 13.5547 27.0679 13.9333" stroke="#313131" stroke-width="3" stroke-linecap="round" stroke-linejoin="round"/>
<path d="M13.7339 7.26666C13.2065 7.64528 12.7791 8.14662 12.4887 8.72737C12.1983 9.30812 12.0537 9.95084 12.0673 10.6C12.0537 11.2492 12.1983 11.8919 12.4887 12.4726C12.7791 13.0534 13.2065 13.5547 13.7339 13.9333" stroke="#313131" stroke-width="3" stroke-linecap="round" stroke-linejoin="round"/>
</svg>
