<svg width="41" height="41" viewBox="0 0 41 41" fill="none" xmlns="http://www.w3.org/2000/svg">
<path d="M5.59961 24.1333C6.98294 25.2033 9.06128 25.8283 11.4329 25.8C13.8046 25.8283 15.8829 25.2033 17.2663 24.1333C18.6496 23.0633 20.7279 22.4383 23.0996 22.4667C25.4713 22.4383 27.5496 23.0633 28.9329 24.1333" stroke="#313131" stroke-width="3" stroke-linecap="round" stroke-linejoin="round"/>
<path d="M13.9332 5.80002C13.4057 6.17864 12.9783 6.67997 12.6879 7.26073C12.3975 7.84148 12.2529 8.48419 12.2665 9.13335C12.2529 9.78251 12.3975 10.4252 12.6879 11.006C12.9783 11.5867 13.4057 12.0881 13.9332 12.4667" stroke="#313131" stroke-width="3" stroke-linecap="round" stroke-linejoin="round"/>
<path d="M20.5992 5.80002C20.0717 6.17864 19.6443 6.67997 19.3539 7.26073C19.0636 7.84148 18.9189 8.48419 18.9325 9.13335C18.9189 9.78251 19.0636 10.4252 19.3539 11.006C19.6443 11.5867 20.0717 12.0881 20.5992 12.4667" stroke="#313131" stroke-width="3" stroke-linecap="round" stroke-linejoin="round"/>
<path d="M5.59961 17.4667H28.9329V25.8C28.9329 28.4522 27.8794 30.9957 26.004 32.8711C24.1286 34.7464 21.5851 35.8 18.9329 35.8H15.5996C12.9474 35.8 10.4039 34.7464 8.52854 32.8711C6.65318 30.9957 5.59961 28.4522 5.59961 25.8V17.4667Z" stroke="#313131" stroke-width="3" stroke-linecap="round" stroke-linejoin="round"/>
<path d="M28.5098 28.6767C29.2541 29.0184 30.071 29.172 30.8886 29.1241C31.7062 29.0761 32.4995 28.828 33.1988 28.4016C33.898 27.9753 34.4819 27.3837 34.8989 26.6788C35.316 25.9739 35.5535 25.1774 35.5907 24.3592C35.6278 23.541 35.4633 22.7263 35.1118 21.9866C34.7603 21.2468 34.2324 20.6048 33.5746 20.1168C32.9168 19.6289 32.1492 19.31 31.3393 19.1882C30.5294 19.0664 29.702 19.1455 28.9298 19.4184" stroke="#313131" stroke-width="3" stroke-linecap="round" stroke-linejoin="round"/>
</svg>
