<svg width="41" height="41" viewBox="0 0 41 41" fill="none" xmlns="http://www.w3.org/2000/svg">
<path d="M24.1318 10.8C24.1318 9.91595 23.7806 9.06811 23.1555 8.44299C22.5304 7.81786 21.6825 7.46667 20.7985 7.46667C19.9144 7.46667 19.0666 7.81786 18.4415 8.44299C17.8163 9.06811 17.4652 9.91595 17.4652 10.8C17.4652 13.5783 18.5818 15.8 20.7985 17.4667H20.7852M20.7852 17.4667L34.0702 24.8467C34.5901 25.1354 35.0232 25.558 35.3248 26.0705C35.6264 26.5831 35.7853 27.167 35.7852 27.7617V29.1333C35.7852 30.0174 35.434 30.8652 34.8088 31.4904C34.1837 32.1155 33.3359 32.4667 32.4518 32.4667H9.11849C8.23443 32.4667 7.38659 32.1155 6.76147 31.4904C6.13635 30.8652 5.78516 30.0174 5.78516 29.1333V27.7617C5.785 27.167 5.94394 26.5831 6.2455 26.0705C6.54706 25.558 6.98025 25.1354 7.50016 24.8467L20.7852 17.4667Z" stroke="#313131" stroke-width="3" stroke-linecap="round" stroke-linejoin="round"/>
</svg>
