<svg width="40" height="41" viewBox="0 0 40 41" fill="none" xmlns="http://www.w3.org/2000/svg">
<path d="M5 14.1334C5 12.8073 5.52678 11.5355 6.46447 10.5978C7.40215 9.66015 8.67392 9.13336 10 9.13336H30C31.3261 9.13336 32.5979 9.66015 33.5355 10.5978C34.4732 11.5355 35 12.8073 35 14.1334V27.4667C35 28.7928 34.4732 30.0645 33.5355 31.0022C32.5979 31.9399 31.3261 32.4667 30 32.4667H10C8.67392 32.4667 7.40215 31.9399 6.46447 31.0022C5.52678 30.0645 5 28.7928 5 27.4667V14.1334Z" stroke="#313131" stroke-width="3" stroke-linecap="round" stroke-linejoin="round"/>
<path d="M5 17.4667H35" stroke="#313131" stroke-width="3" stroke-linecap="round" stroke-linejoin="round"/>
<path d="M11.666 25.8H11.6827" stroke="#313131" stroke-width="3" stroke-linecap="round" stroke-linejoin="round"/>
<path d="M18.334 25.8H21.6673" stroke="#313131" stroke-width="3" stroke-linecap="round" stroke-linejoin="round"/>
</svg>
