<svg width="41" height="41" viewBox="0 0 41 41" fill="none" xmlns="http://www.w3.org/2000/svg">
<path d="M10.7517 14.1334H29.65C30.1306 14.1333 30.6056 14.2372 31.0423 14.4379C31.479 14.6385 31.8671 14.9313 32.1801 15.296C32.4931 15.6608 32.7235 16.0889 32.8555 16.551C32.9875 17.0131 33.0181 17.4983 32.945 17.9734L30.8534 31.56C30.6718 32.7408 30.0734 33.8175 29.1667 34.5952C28.2599 35.373 27.1047 35.8004 25.91 35.8H14.49C13.2957 35.8 12.1408 35.3724 11.2344 34.5947C10.328 33.817 9.72991 32.7405 9.54837 31.56L7.4567 17.9734C7.38365 17.4983 7.41418 17.0131 7.54621 16.551C7.67824 16.0889 7.90864 15.6608 8.22161 15.296C8.53458 14.9313 8.92273 14.6385 9.35944 14.4379C9.79615 14.2372 10.2711 14.1333 10.7517 14.1334Z" stroke="#313131" stroke-width="3" stroke-linecap="round" stroke-linejoin="round"/>
<path d="M15.1992 19.1334V10.8C15.1992 9.47394 15.726 8.20217 16.6637 7.26448C17.6014 6.3268 18.8731 5.80002 20.1992 5.80002C21.5253 5.80002 22.7971 6.3268 23.7348 7.26448C24.6724 8.20217 25.1992 9.47394 25.1992 10.8V19.1334" stroke="#313131" stroke-width="3" stroke-linecap="round" stroke-linejoin="round"/>
</svg>
