<svg width="24" height="24" viewBox="0 0 24 24" fill="none" xmlns="http://www.w3.org/2000/svg">
<path d="M0 12C0 18.6274 5.37258 24 12 24C18.6274 24 24 18.6274 24 12C24 5.37258 18.6274 0 12 0C5.37258 0 0 5.37258 0 12Z" fill="#FFEB99"/>
<path d="M14.3149 15.5252L18.4372 15.5254C18.9664 15.5254 19.3967 15.0947 19.3967 14.5658L19.3972 12.8433C19.3963 12.7771 19.3682 12.7152 19.3245 12.6655L18.8105 12.0807C18.7133 11.9701 18.5844 11.8834 18.4372 11.8834H14.3149C13.968 11.8834 13.6643 12.0692 13.4955 12.3458C13.4073 12.4912 13.3555 12.661 13.3555 12.8434V13.1251V14.5655C13.3556 15.0945 13.7857 15.5254 14.3149 15.5252Z" fill="#E57957"/>
<path d="M11.6264 12.2935C11.4607 12.2972 11.3166 12.1909 11.2407 12.0435C10.9501 11.4795 10.3621 11.0927 9.68495 11.0927H9.11224C7.92385 11.0927 7.29009 9.69169 8.07476 8.79917C8.18163 8.67766 8.36414 8.66853 8.48265 8.77876L9.79974 10.0047C9.91838 10.1146 10.0196 10.0732 10.0262 9.91142L10.0567 9.18821C10.0638 9.02671 9.96328 8.81815 9.83264 8.72209L8.50511 7.74984C8.37435 7.6545 8.17034 7.66411 8.04907 7.77158L4.4364 11.2719C4.1116 11.6808 3.95599 12.0934 3.916 12.2504C3.85044 12.4402 3.81286 12.6374 3.8125 12.8433L3.81286 14.5657C3.81286 15.5309 4.59766 16.3161 5.5633 16.3161H9.68543C10.6506 16.3161 11.4359 15.5309 11.4359 14.5655V13.3675C11.4359 13.2124 11.5572 13.0852 11.7123 13.0823C11.8704 13.0793 12.0002 12.9511 12.0002 12.7929V12.6608C12.0002 12.4555 11.8317 12.2888 11.6264 12.2935ZM10.6449 13.1309L10.6453 14.5655C10.6453 15.0946 10.2141 15.5255 9.68543 15.5255H5.5633C5.03413 15.5255 4.60331 15.0948 4.60331 14.5659V12.8432C4.60331 12.7774 4.63191 12.7158 4.67529 12.6664L5.1898 12.0809C5.28706 11.9703 5.41609 11.8834 5.56342 11.8836L9.68507 11.8835C10.0346 11.8835 10.34 12.0722 10.5082 12.3517C10.5944 12.4959 10.6451 12.6636 10.6454 12.8434L10.6449 13.1309Z" fill="#005F89"/>
<path d="M12.0378 13.0785C12.3312 13.0785 12.5648 13.3203 12.5648 13.6136V14.5657C12.5648 15.5309 13.35 16.3161 14.315 16.3163L18.4374 16.3161C19.4026 16.3161 20.1882 15.5309 20.1882 14.5657V12.843C20.1882 12.6373 20.15 12.4403 20.0845 12.2565C20.0447 12.0934 19.889 11.6808 19.5642 11.2719L15.9515 7.77168C15.83 7.6641 15.6263 7.65449 15.4953 7.74983L14.1675 8.72219C14.0371 8.81813 13.9369 9.02682 13.9434 9.18832L13.9738 9.91153C13.9809 10.0734 14.0826 10.1147 14.2007 10.0048L15.5176 8.77887C15.6361 8.66852 15.8183 8.67777 15.9256 8.79928C16.7103 9.69165 16.0767 11.0927 14.8884 11.0928L14.315 11.0928C13.7587 11.0928 13.2627 11.3541 12.9421 11.7602C12.7162 12.0464 12.4024 12.2879 12.0378 12.2885C12.0168 12.2885 12 12.3058 12 12.3268V13.0414C12 13.0623 12.0169 13.0789 12.0378 13.0785ZM13.3556 13.125V12.8433C13.3556 12.6609 13.4075 12.4912 13.4956 12.3457C13.6643 12.069 13.9681 11.8833 14.315 11.8833H18.4374C18.5846 11.8833 18.7135 11.97 18.8106 12.0805L19.3246 12.6653C19.3683 12.715 19.3965 12.777 19.3974 12.8431L19.3969 14.5656C19.3969 15.0945 18.9664 15.5253 18.4374 15.5253L14.315 15.525C13.7859 15.5253 13.3556 15.0943 13.3556 14.5653V13.125Z" fill="#043559"/>
<path d="M9.68516 11.8833L5.56351 11.8834C5.03434 11.8833 4.60352 12.314 4.60352 12.8429V14.5658C4.60352 15.0947 5.03434 15.5254 5.56351 15.5254H9.68564C10.2143 15.5254 10.6455 15.0945 10.6455 14.5654V12.8433C10.6455 12.3141 10.2148 11.8833 9.68516 11.8833Z" fill="#83ACC6"/>
<path d="M14.3149 11.8833H18.4372C18.9664 11.8833 19.3967 12.314 19.3972 12.8433L19.3967 14.5658C19.3967 15.0947 18.9663 15.5254 18.4372 15.5254L14.3149 15.5252C13.7857 15.5254 13.3555 15.0945 13.3555 14.5654V12.8433C13.3556 12.3141 13.7857 11.8833 14.3149 11.8833Z" fill="#DB5252"/>
</svg>
