<svg width="24" height="24" viewBox="0 0 24 24" fill="none" xmlns="http://www.w3.org/2000/svg">
<circle cx="12" cy="12" r="12" fill="#A0E3E2"/>
<path d="M19.997 12.2596C20.1033 11.8136 19.8279 11.3659 19.3819 11.2596C18.9359 11.1533 18.4882 11.4287 18.3819 11.8747C18.2756 12.3207 18.551 12.7684 18.997 12.8747C19.443 12.981 19.8907 12.7056 19.997 12.2596Z" fill="#0069DC"/>
<path d="M19.0792 14.8382V18.4554C19.0792 18.5835 18.9754 18.6873 18.8473 18.6873C18.7331 18.6873 18.6359 18.6041 18.6182 18.4914L18.0586 14.9256L19.0792 14.8382Z" fill="#0069DC"/>
<path d="M19.2949 14.8382V18.4554C19.2949 18.5835 19.3987 18.6873 19.5268 18.6873C19.641 18.6873 19.7382 18.6041 19.7559 18.4914L20.3155 14.9256L19.2949 14.8382Z" fill="#0069DC"/>
<path d="M17.9798 14.8382L17.584 16.8591H20.7952L20.3973 14.8382H17.9798Z" fill="#0069DC"/>
<path d="M21.5795 15.7783L20.4966 13.4542C20.4014 13.2499 20.1965 13.1193 19.9712 13.1193H18.5767C18.3232 13.1193 18.0724 13.0682 17.8391 12.969L16.5946 12.4395C16.5144 12.4054 16.4214 12.4276 16.3652 12.4941C16.3013 12.5698 16.303 12.6811 16.3692 12.7548L17.9929 14.5631L17.9791 14.8382L18.0652 15.5184H20.3149L20.381 14.9682L21.2149 16.0052C21.283 16.0899 21.4035 16.1109 21.4962 16.0542C21.5902 15.9968 21.626 15.8781 21.5795 15.7783Z" fill="#0069DC"/>
<path d="M19.2949 11.4325C19.2949 11.4325 19.7788 10.8283 20.3155 11.4325C20.8522 12.0366 20.2481 12.584 20.5404 12.7878C20.5404 12.7878 19.9752 12.8179 19.9752 11.8612C19.9752 11.4715 19.2949 11.4325 19.2949 11.4325Z" fill="#0069DC"/>
<path d="M5.00491 12.8755C5.45091 12.7692 5.72631 12.3215 5.62004 11.8755C5.51376 11.4295 5.06606 11.1541 4.62006 11.2604C4.17405 11.3666 3.89865 11.8143 4.00493 12.2603C4.1112 12.7063 4.55891 12.9817 5.00491 12.8755Z" fill="#0069DC"/>
<path d="M4.91992 16.1333V18.4537C4.91992 18.5827 5.02451 18.6873 5.15355 18.6873C5.26719 18.6873 5.36432 18.6055 5.38374 18.4936L5.78298 16.1914L4.91992 16.1333Z" fill="#0069DC"/>
<path d="M4.70485 16.1333V18.4537C4.70485 18.5827 4.60026 18.6873 4.47122 18.6873C4.35759 18.6873 4.26045 18.6055 4.24103 18.4936L3.8418 16.1914L4.70485 16.1333Z" fill="#0069DC"/>
<path d="M7.63493 12.4942C7.57874 12.4277 7.48574 12.4055 7.40559 12.4396L6.22609 12.9414C5.94993 13.0589 5.65289 13.1194 5.35278 13.1194H4.10362C3.83278 13.1194 3.58646 13.2764 3.47205 13.5219L2.42065 15.7783C2.37419 15.878 2.40999 15.9968 2.50388 16.0542C2.59664 16.1109 2.71708 16.0899 2.78519 16.0052L3.77035 14.7801L3.84271 16.1913H5.78404L5.85572 14.7319L7.63096 12.7549C7.6972 12.6812 7.6989 12.5699 7.63493 12.4942Z" fill="#0069DC"/>
<path d="M4.91992 11.2456C5.17942 11.2456 5.35601 11.0853 5.35147 10.8334C5.35147 10.8334 5.76392 11.28 5.35147 11.6445L4.91992 11.2456Z" fill="#0069DC"/>
<path d="M10.6726 7.31249C10.7975 6.77768 10.4652 6.2429 9.93037 6.11801C9.39556 5.99313 8.86078 6.32543 8.73589 6.86023C8.61101 7.39504 8.94331 7.92982 9.47811 8.05471C10.0129 8.1796 10.5477 7.84729 10.6726 7.31249Z" fill="#222223"/>
<path d="M10.1148 6.12478C10.1682 5.89755 10.0273 5.67007 9.80005 5.61669C9.57283 5.56331 9.34535 5.70424 9.29197 5.93147C9.23859 6.15869 9.37952 6.38617 9.60674 6.43955C9.83397 6.49293 10.0614 6.352 10.1148 6.12478Z" fill="#222223"/>
<path d="M9.56881 12.5043V18.2969C9.56881 18.4501 9.44467 18.5742 9.29156 18.5742C9.15129 18.5742 9.03311 18.4695 9.01629 18.3303L8.32812 12.6422L9.56881 12.5043Z" fill="#222223"/>
<path d="M9.83008 12.5043V18.2969C9.83008 18.4501 9.95421 18.5742 10.1074 18.5742C10.2476 18.5742 10.3658 18.4695 10.3826 18.3303L11.0708 12.6422L9.83008 12.5043Z" fill="#222223"/>
<path d="M8.32809 12.6422L7.87891 16.1333H11.5225L11.0711 12.6422H8.32809Z" fill="#222223"/>
<path d="M10.5786 10.0167L11.6813 12.5914C11.7285 12.7016 11.8535 12.7558 11.9662 12.7148C12.0786 12.674 12.1397 12.5528 12.1057 12.4381L11.0526 8.88625C10.9743 8.62242 10.7319 8.44141 10.4567 8.44141H8.94973C8.67443 8.44141 8.43192 8.62254 8.35376 8.88649L7.30231 12.4381C7.26838 12.5528 7.32956 12.674 7.44189 12.7148C7.55459 12.7557 7.67966 12.7015 7.72689 12.5913L8.82819 10.0197L8.89213 10.3143C8.9428 10.5476 8.91219 10.7912 8.80541 11.0048L8.72129 11.173C8.56505 11.4855 8.45778 11.8201 8.4033 12.1652L8.32797 12.6422H11.071L10.9932 12.1497C10.9404 11.8148 10.8378 11.4896 10.6889 11.185L10.6008 11.0048C10.494 10.7912 10.4634 10.5476 10.514 10.3143L10.5786 10.0167Z" fill="#222223"/>
<path d="M15.1978 7.24399C15.2851 6.70177 14.9164 6.19143 14.3742 6.10411C13.8319 6.01679 13.3216 6.38555 13.2343 6.92777C13.147 7.46999 13.5157 7.98033 14.0579 8.06766C14.6002 8.15498 15.1105 7.78621 15.1978 7.24399Z" fill="#222223"/>
<path d="M12.918 11.6445L12.9967 13.3511H15.4247L15.5034 11.6445H12.918Z" fill="#222223"/>
<path d="M14.0793 13.2131V18.2208C14.0793 18.416 13.9211 18.5742 13.7259 18.5742C13.5413 18.5742 13.3878 18.4321 13.3736 18.248L12.9961 13.3511L14.0793 13.2131Z" fill="#222223"/>
<path d="M14.3418 13.2131V18.2208C14.3418 18.416 14.5 18.5742 14.6952 18.5742C14.8798 18.5742 15.0333 18.4321 15.0475 18.248L15.425 13.3511L14.3418 13.2131Z" fill="#222223"/>
<path d="M16.6373 12.4429L15.9579 9.09489C15.881 8.71613 15.5482 8.44382 15.1617 8.4435L13.2689 8.44196C12.8817 8.44163 12.5481 8.71434 12.4713 9.09384L11.7938 12.443C11.7706 12.5574 11.8347 12.6717 11.9445 12.7116L11.9446 12.7116C12.0623 12.7543 12.1928 12.6978 12.2421 12.5827L12.867 11.1235L12.9183 11.6445H15.5109L15.5625 11.1197L16.189 12.5827C16.2383 12.6978 16.3689 12.7543 16.4865 12.7116C16.5964 12.6717 16.6606 12.5574 16.6373 12.4429Z" fill="#222223"/>
<path d="M11.9666 6.0244H11.9524C11.7638 5.65232 11.063 5.74159 11.1889 6.35184C11.3039 6.90938 11.8576 7.11893 11.9524 7.151L11.9524 7.15558C11.9524 7.15558 11.9549 7.15481 11.9595 7.15335C11.9641 7.15485 11.9666 7.15558 11.9666 7.15558L11.9665 7.151C12.0614 7.11893 12.615 6.90942 12.7301 6.35184C12.856 5.74163 12.1551 5.65232 11.9666 6.0244Z" fill="#FC033D"/>
</svg>
