<svg width="24" height="24" viewBox="0 0 24 24" fill="none" xmlns="http://www.w3.org/2000/svg">
<circle cx="12" cy="12" r="12" fill="#67BCF5"/>
<path d="M17.1799 9.66846H5.35352V18.5167H17.1799V9.66846Z" fill="#A3D8E5"/>
<path d="M5.35547 9.66853H17.1601L11.1349 5.67139L5.35547 9.66853Z" fill="#A3D8E5"/>
<path d="M12.5888 7.62289C12.2625 7.86267 11.9661 8.12285 11.6952 8.39672C11.2003 8.89716 10.7301 9.42327 10.4085 9.99559C9.93335 10.8417 9.67108 11.7923 9.86961 12.7045C10.0691 13.6225 10.7129 14.4717 11.7569 15.0257C12.827 15.5931 14.0626 15.7897 15.3694 15.7985C16.0041 15.8029 16.6019 15.7357 17.1594 15.5275V10.2493H17.1428L12.855 7.40479C12.7537 7.48284 12.6637 7.56782 12.5888 7.62289Z" fill="#F8EED4"/>
<path d="M15.6561 16.9106C14.1624 16.9923 12.5663 16.8588 11.2156 16.3685C9.84112 15.8692 8.73056 15.0543 8.11266 14.0293C7.50294 13.0177 7.42708 11.8641 7.70279 10.7877C7.99609 9.64384 8.66322 8.60823 9.5486 7.64507C10.0358 7.11512 10.5806 6.6433 11.1596 6.16726C11.2561 6.08793 11.3656 5.99424 11.4864 5.90527L11.1342 5.67139L5.35478 9.66853H5.35352V18.5168H17.1799V16.6117C16.7085 16.7736 16.2017 16.8808 15.6561 16.9106Z" fill="#EDEDED"/>
<path d="M17.1799 17.6497H5.35352V18.5168H17.1799V17.6497Z" fill="#00B1C3"/>
<path d="M17.1804 9.60522L11.2507 5.67139L5.38477 9.72876V11.1308L11.2507 7.07353L17.1804 11.0074V9.60522Z" fill="#C6C6C6"/>
<path d="M11.2506 6.4021L18.1516 10.9802L19.5614 10.5133L11.2506 5L3.2793 10.5133L4.63163 10.9802L11.2506 6.4021Z" fill="#8F4D3D"/>
<path d="M3.97569 10.7357L11.2346 5.71495L18.8025 10.7357L19.5326 10.4939L11.251 5L3.29688 10.5013L3.97569 10.7357Z" fill="#B2B2B2"/>
<path d="M16.2849 11.6016H12.623V18.5167H16.2849V11.6016ZM12.934 18.0548V12.0635H15.9741V18.0548H12.934Z" fill="#8F4D3D"/>
<path d="M16.2849 11.6016H12.623V18.5167H16.2849V11.6016ZM12.7467 18.2268V11.8914H16.1015V18.2268H12.7467Z" fill="#5E5E5E"/>
<path d="M15.9737 12.0635H12.9336V18.0547H15.9737V12.0635Z" fill="#5C3124"/>
<path d="M13.506 15.5923C13.5978 14.7058 13.8581 13.7088 14.4221 13.1503C14.7313 12.8443 15.1027 12.6501 15.4841 12.5648C15.6453 12.5288 15.8099 12.4991 15.9737 12.4901V12.0635H12.9336V18.0547H13.8795C13.5025 17.3507 13.4193 16.4285 13.506 15.5923Z" fill="#DADADA"/>
<path d="M15.7601 15.0733C15.7601 15.2359 15.6362 15.3678 15.4836 15.3678C15.3307 15.3678 15.207 15.2358 15.207 15.0733C15.207 14.9105 15.3307 14.7788 15.4836 14.7788C15.6362 14.7788 15.7601 14.9105 15.7601 15.0733Z" fill="#F9B233"/>
<path d="M11.0719 11.3063H6.13086V16.2197H11.0719V11.3063Z" fill="#552D20"/>
<path d="M10.6997 11.6758H6.50195V15.8502H10.6997V11.6758Z" fill="#341F0F"/>
<path d="M8.44901 11.9442H6.73633V13.6471H8.44901V11.9442Z" fill="#6EBEBF"/>
<path d="M10.4685 11.9442H8.75586V13.6471H10.4685V11.9442Z" fill="#6EBEBF"/>
<path d="M8.44705 13.8789H6.73438V15.582H8.44705V13.8789Z" fill="#6EBEBF"/>
<path d="M10.4685 13.8789H8.75586V15.582H10.4685V13.8789Z" fill="#6EBEBF"/>
<path d="M6.73633 12.0672L8.44823 12.7956V12.8644L6.73633 12.1469V12.0672Z" fill="#AFD3D3"/>
<path d="M8.44783 12.9278V13.0003L6.73438 12.3065V12.223L8.44783 12.9278Z" fill="#AFD3D3"/>
<path d="M6.73438 12.368L8.44783 13.0708V13.1397L6.73515 12.4477L6.73438 12.368Z" fill="#AFD3D3"/>
<path d="M6.73633 14.263L8.44823 14.9912V15.0602L6.73633 14.3427V14.263Z" fill="#AFD3D3"/>
<path d="M8.44783 15.1236V15.1961L6.73438 14.5021V14.4188L8.44783 15.1236Z" fill="#AFD3D3"/>
<path d="M6.73438 14.5638L8.44783 15.2666V15.3355L6.73515 14.6435L6.73438 14.5638Z" fill="#AFD3D3"/>
<path d="M8.75781 14.1942L10.4696 14.9226V14.9914L8.75781 14.2739V14.1942Z" fill="#AFD3D3"/>
<path d="M10.4692 15.0548V15.1272L8.75586 14.4334V14.3499L10.4692 15.0548Z" fill="#AFD3D3"/>
<path d="M8.75586 14.4951L10.4692 15.1979V15.2667L8.75664 14.5747L8.75586 14.4951Z" fill="#AFD3D3"/>
<path d="M8.75781 12.3282L10.4696 13.0565V13.1254L8.75781 12.4079V12.3282Z" fill="#AFD3D3"/>
<path d="M10.4692 13.1886V13.2611L8.75586 12.5672V12.4839L10.4692 13.1886Z" fill="#AFD3D3"/>
<path d="M8.75586 12.6289L10.4692 13.3318V13.4007L8.75664 12.7086L8.75586 12.6289Z" fill="#AFD3D3"/>
<path d="M3.04378 18.7749C3.06033 18.823 3.18685 19.1265 3.73151 19.1265C3.73151 19.1265 3.7316 19.1265 3.7318 19.1265C3.80431 19.1265 3.88246 19.1211 3.96383 19.1101C3.97533 19.1087 3.98716 19.1077 3.9987 19.1077H8.51489C8.67933 19.1077 8.90752 19.0238 9.07002 18.9037C9.2853 18.7444 9.29806 18.4569 9.21533 18.2426C9.11988 17.9956 8.90285 17.8164 8.6991 17.8164C8.64305 17.8164 8.58647 17.8297 8.5313 17.8561C8.51572 17.8635 8.49877 17.8743 8.47885 17.8902C8.3855 17.9915 8.29244 18.0617 8.22919 18.1034C8.20903 18.1174 8.1841 18.1325 8.15926 18.1455C8.15751 18.1465 8.15566 18.1475 8.154 18.1483C8.02476 18.2129 7.86743 18.1615 7.80125 18.033C7.73517 17.9043 7.7847 17.7464 7.91242 17.6787C7.91447 17.6776 7.92416 17.6719 7.93828 17.6626C7.96409 17.6448 7.99823 17.6128 8.03441 17.579C8.05841 17.5564 8.08325 17.5332 8.11042 17.5096C8.32118 17.2623 8.32556 16.9493 8.12357 16.5787C8.12337 16.5787 7.87829 16.1621 7.50747 16.1621C7.42659 16.1621 7.34122 16.1819 7.25396 16.2207C7.17785 16.2548 7.08995 16.2508 7.01715 16.2099C6.94435 16.1691 6.89522 16.0962 6.8846 16.0134C6.87355 15.9344 6.75483 15.2295 6.05278 15.2295C6.04728 15.2295 6.04071 15.2292 6.0352 15.2288C6.03399 15.2288 6.0262 15.2285 6.01407 15.2285C5.73758 15.2285 5.09343 15.3215 5.08374 16.1813C5.08286 16.2668 5.04059 16.3465 4.97037 16.3954C4.90035 16.4441 4.81094 16.456 4.7304 16.4269C4.7303 16.4269 4.61139 16.3868 4.45094 16.3868C4.15058 16.3868 3.91412 16.5228 3.74763 16.7909C3.71247 16.8577 3.56662 17.1999 4.02052 17.5414C4.1125 17.6106 4.14912 17.7315 4.1108 17.8402C4.07272 17.9487 3.96968 18.0199 3.85329 18.0163L3.83981 18.0162C3.62715 18.0162 3.22609 18.0717 3.07139 18.2797C2.98695 18.3934 2.97745 18.5542 3.04271 18.7714C3.0429 18.7722 3.04319 18.7726 3.04329 18.7731C3.04329 18.7734 3.04339 18.7736 3.04339 18.7738C3.04378 18.7747 3.04349 18.7737 3.04378 18.7749Z" fill="#799431"/>
<path d="M9.13522 18.8085H5.4323C5.42271 18.8085 5.41302 18.8091 5.40352 18.8105C5.337 18.8192 5.27297 18.8238 5.21332 18.8238H5.21322C4.76663 18.8237 4.66286 18.5749 4.64923 18.5354C4.64903 18.5344 4.64923 18.5353 4.64889 18.5345C4.64889 18.5343 4.64889 18.534 4.64874 18.5339C4.64874 18.5338 4.64845 18.5332 4.64835 18.5325C4.59483 18.3544 4.60262 18.2225 4.67187 18.1294C4.79882 17.9589 5.12756 17.9133 5.30204 17.9133H5.3129C5.40839 17.9164 5.49293 17.858 5.52429 17.769C5.5556 17.6799 5.52555 17.5809 5.45017 17.524C5.07789 17.244 5.19754 16.9633 5.22637 16.9087C5.36286 16.6887 5.55682 16.5773 5.80302 16.5773C5.9347 16.5773 6.03209 16.6103 6.03209 16.6103C6.09822 16.6341 6.17165 16.6243 6.22906 16.5843C6.28662 16.5443 6.32119 16.479 6.32212 16.4088C6.32723 15.9468 6.55557 15.7556 6.7764 15.6783C6.66854 15.4642 6.45813 15.2293 6.05278 15.2293C6.04728 15.2293 6.04071 15.229 6.0352 15.2287C6.03399 15.2287 6.0262 15.2284 6.01407 15.2284C5.73758 15.2284 5.09343 15.3213 5.08374 16.1811C5.08286 16.2667 5.04059 16.3463 4.97037 16.3952C4.90035 16.4439 4.81094 16.4558 4.7304 16.4267C4.7303 16.4267 4.61139 16.3866 4.45094 16.3866C4.15058 16.3866 3.91412 16.5226 3.74763 16.7907C3.71247 16.8575 3.56662 17.1998 4.02052 17.5412C4.1125 17.6104 4.14912 17.7313 4.1108 17.84C4.07272 17.9486 3.96968 18.0197 3.85329 18.0161L3.83981 18.016C3.62715 18.016 3.22609 18.0715 3.07139 18.2795C2.98695 18.3932 2.97745 18.554 3.04271 18.7712C3.0429 18.772 3.04319 18.7724 3.04329 18.7729C3.04329 18.7733 3.04339 18.7734 3.04339 18.7736C3.04387 18.7746 3.04358 18.7736 3.04387 18.7747C3.06043 18.8229 3.18694 19.1264 3.7316 19.1264C3.7316 19.1264 3.7317 19.1264 3.7319 19.1264C3.8044 19.1264 3.88256 19.121 3.96393 19.11C3.97542 19.1085 3.98726 19.1076 3.9988 19.1076H8.51498C8.67943 19.1076 8.90762 19.0237 9.07012 18.9035C9.10824 18.8751 9.138 18.842 9.16415 18.8066C9.15441 18.8074 9.14443 18.8085 9.13522 18.8085Z" fill="#C6C6C6"/>
<path d="M7.01807 16.2098C7.01807 16.2098 6.97556 16.2672 6.91196 16.3532C6.89784 16.3752 6.88118 16.3969 6.86628 16.4216C6.85012 16.4453 6.83492 16.4709 6.81988 16.4972C6.80322 16.5225 6.79246 16.5516 6.77673 16.5782C6.76729 16.6072 6.74985 16.634 6.74342 16.6638L6.72891 16.7072L6.71986 16.751C6.71168 16.7801 6.7106 16.8093 6.70758 16.8381C6.70203 16.867 6.70724 16.8953 6.70622 16.923C6.70447 16.9509 6.70948 16.9769 6.71226 17.0021C6.71664 17.0266 6.71504 17.0515 6.72122 17.0717C6.72624 17.0921 6.72921 17.1111 6.73222 17.1265C6.73739 17.158 6.73953 17.1776 6.73953 17.1776C6.73953 17.1776 6.7255 17.1656 6.70247 17.1422C6.69132 17.1303 6.6771 17.1158 6.66254 17.098C6.64589 17.0811 6.63508 17.0575 6.62071 17.0325C6.60698 17.0073 6.58994 16.9799 6.58205 16.9471C6.57357 16.9147 6.55965 16.8805 6.55877 16.8428C6.55556 16.8055 6.55151 16.7662 6.55867 16.7269C6.5615 16.7072 6.56257 16.6869 6.56734 16.6674L6.58448 16.6098C6.59515 16.5706 6.61628 16.5368 6.63328 16.5015C6.65494 16.4699 6.67442 16.4366 6.69935 16.4106C6.72278 16.3829 6.74742 16.3583 6.77274 16.3375C6.79675 16.3153 6.82343 16.2993 6.84642 16.2832C6.94186 16.2221 7.01807 16.2098 7.01807 16.2098Z" fill="#C6C6C6"/>
<path d="M7.76872 17.7449C7.76872 17.7449 7.69728 17.7448 7.5901 17.7446C7.56425 17.7463 7.53683 17.7457 7.50805 17.7483C7.47942 17.7492 7.44991 17.7522 7.41982 17.7557C7.38938 17.7572 7.35968 17.7657 7.329 17.7689C7.29998 17.7784 7.26798 17.7803 7.24027 17.7927L7.19684 17.8068L7.15603 17.8254C7.12788 17.836 7.10368 17.8526 7.07856 17.8673C7.05207 17.8799 7.03239 17.9008 7.00951 17.9164C6.98608 17.9315 6.96782 17.951 6.94932 17.9681C6.93223 17.9862 6.91124 17.9998 6.89853 18.0167C6.88514 18.0328 6.8717 18.0462 6.86089 18.0579C6.83863 18.0808 6.82422 18.0941 6.82422 18.0941C6.82422 18.0941 6.82548 18.0757 6.83084 18.0433C6.83381 18.0273 6.83698 18.0073 6.84272 17.985C6.84633 17.9615 6.85908 17.9389 6.87063 17.9125C6.8827 17.8864 6.89468 17.8565 6.9165 17.8308C6.93748 17.8045 6.95687 17.7731 6.98662 17.7502C7.01477 17.7253 7.04408 17.6987 7.08007 17.6813C7.0975 17.6719 7.11454 17.6608 7.13305 17.6531L7.18968 17.6326C7.22737 17.6181 7.26735 17.6151 7.30572 17.6079C7.34409 17.6065 7.38232 17.6025 7.41821 17.6071C7.45449 17.6095 7.48872 17.6149 7.52052 17.623C7.55241 17.629 7.58124 17.6411 7.60798 17.6502C7.71355 17.6909 7.76857 17.7449 7.76872 17.7449Z" fill="#C6C6C6"/>
<path d="M14.782 18.7748C14.7986 18.823 14.9251 19.1264 15.4696 19.1264C15.4696 19.1264 15.4698 19.1264 15.47 19.1264C15.5425 19.1264 15.6207 19.1211 15.702 19.1101C15.7135 19.1086 15.7253 19.1076 15.7369 19.1076H20.2531C20.4176 19.1076 20.6458 19.0238 20.8082 18.9036C21.0234 18.7443 21.0362 18.4568 20.9535 18.2426C20.8581 17.9956 20.641 17.8163 20.4372 17.8163C20.3813 17.8163 20.3247 17.8296 20.2695 17.856C20.2539 17.8635 20.237 17.8742 20.2171 17.8901C20.1237 17.9915 20.0306 18.0616 19.9674 18.1033C19.9473 18.1173 19.9223 18.1324 19.8975 18.1455C19.8957 18.1465 19.8939 18.1474 19.8922 18.1482C19.763 18.2129 19.6057 18.1614 19.5395 18.0329C19.4733 17.9042 19.5229 17.7463 19.6506 17.6786C19.6527 17.6775 19.6623 17.6718 19.6765 17.6625C19.7023 17.6447 19.7364 17.6127 19.7725 17.579C19.7966 17.5564 19.8214 17.5331 19.8485 17.5095C20.0593 17.2622 20.0638 16.9492 19.8616 16.5786C19.8616 16.5786 19.6165 16.1621 19.2457 16.1621C19.1648 16.1621 19.0794 16.1818 18.992 16.2207C18.9159 16.2547 18.828 16.2507 18.7553 16.2098C18.6825 16.169 18.6334 16.0961 18.6227 16.0134C18.6116 15.9343 18.493 15.2295 17.7909 15.2295C17.7854 15.2295 17.7789 15.2292 17.7733 15.2288C17.7722 15.2288 17.7643 15.2285 17.7523 15.2285C17.4757 15.2285 16.8316 15.3214 16.822 16.1813C16.821 16.2668 16.7787 16.3464 16.7086 16.3953C16.6386 16.444 16.5492 16.4559 16.4686 16.4268C16.4686 16.4268 16.3495 16.3868 16.1892 16.3868C15.8888 16.3868 15.6522 16.5228 15.4859 16.7908C15.4507 16.8576 15.3048 17.1999 15.7587 17.5413C15.8508 17.6105 15.8874 17.7314 15.8491 17.8401C15.811 17.9487 15.708 18.0198 15.5914 18.0163L15.5781 18.0161C15.3654 18.0161 14.9643 18.0716 14.8097 18.2796C14.7252 18.3933 14.7157 18.5541 14.781 18.7713C14.7812 18.7721 14.7814 18.7726 14.7816 18.773C14.7816 18.7734 14.7816 18.7735 14.7816 18.7737C14.782 18.7747 14.7816 18.7736 14.782 18.7748Z" fill="#799431"/>
<path d="M20.8735 18.8085H17.1705C17.1609 18.8085 17.1513 18.8091 17.1418 18.8105C17.0753 18.8192 17.0112 18.8238 16.9516 18.8238H16.9514C16.5049 18.8237 16.4011 18.5749 16.3874 18.5354C16.3872 18.5344 16.3874 18.5353 16.3872 18.5345C16.3872 18.5343 16.3872 18.534 16.387 18.5339C16.3869 18.5338 16.3866 18.5332 16.3866 18.5325C16.3331 18.3544 16.3409 18.2225 16.4101 18.1294C16.5371 17.9589 16.8657 17.9133 17.0401 17.9133H17.0511C17.1466 17.9164 17.2312 17.858 17.2625 17.769C17.2937 17.6799 17.2638 17.5809 17.1884 17.524C16.816 17.244 16.9357 16.9633 16.9646 16.9087C17.101 16.6887 17.295 16.5773 17.5412 16.5773C17.6728 16.5773 17.7703 16.6103 17.7703 16.6103C17.8363 16.6341 17.9097 16.6243 17.9672 16.5843C18.0247 16.5443 18.0593 16.479 18.0602 16.4088C18.0653 15.9468 18.2938 15.7556 18.5146 15.6783C18.4066 15.4642 18.1963 15.2293 17.7909 15.2293C17.7854 15.2293 17.7789 15.229 17.7733 15.2287C17.7722 15.2287 17.7643 15.2284 17.7523 15.2284C17.4757 15.2284 16.8316 15.3213 16.822 16.1811C16.821 16.2667 16.7787 16.3463 16.7086 16.3952C16.6386 16.4439 16.5492 16.4558 16.4686 16.4267C16.4686 16.4267 16.3495 16.3866 16.1892 16.3866C15.8888 16.3866 15.6522 16.5226 15.4859 16.7907C15.4507 16.8575 15.3048 17.1998 15.7587 17.5412C15.8508 17.6104 15.8874 17.7313 15.8491 17.84C15.811 17.9486 15.708 18.0197 15.5914 18.0161L15.5781 18.016C15.3654 18.016 14.9643 18.0715 14.8097 18.2795C14.7252 18.3932 14.7157 18.554 14.781 18.7712C14.7812 18.772 14.7814 18.7724 14.7816 18.7729C14.7816 18.7733 14.7816 18.7734 14.7816 18.7736C14.7822 18.7746 14.7818 18.7736 14.7822 18.7747C14.7987 18.8229 14.9252 19.1264 15.4698 19.1264C15.4698 19.1264 15.47 19.1264 15.4702 19.1264C15.5427 19.1264 15.6208 19.121 15.7021 19.11C15.7136 19.1085 15.7254 19.1076 15.7371 19.1076H20.2533C20.4177 19.1076 20.6459 19.0237 20.8083 18.9035C20.8465 18.8751 20.8763 18.842 20.9024 18.8066C20.8925 18.8074 20.8827 18.8085 20.8735 18.8085Z" fill="#C6C6C6"/>
<path d="M18.7563 16.2098C18.7563 16.2098 18.7138 16.2672 18.6501 16.3532C18.6361 16.3752 18.6194 16.3969 18.6046 16.4216C18.5883 16.4453 18.5732 16.4709 18.5582 16.4972C18.5414 16.5225 18.5307 16.5516 18.5149 16.5782C18.5054 16.6072 18.4881 16.634 18.4816 16.6638L18.4672 16.7072L18.4581 16.751C18.45 16.7801 18.4489 16.8093 18.4459 16.8381C18.4403 16.867 18.4454 16.8953 18.4444 16.923C18.4427 16.9509 18.4478 16.9769 18.4504 17.0021C18.4548 17.0266 18.4533 17.0515 18.4595 17.0717C18.4645 17.0921 18.4675 17.1111 18.4704 17.1265C18.4757 17.158 18.4778 17.1776 18.4778 17.1776C18.4778 17.1776 18.4638 17.1656 18.4408 17.1422C18.4296 17.1303 18.4154 17.1158 18.4007 17.098C18.3842 17.0811 18.3733 17.0575 18.359 17.0325C18.3452 17.0073 18.3282 16.9799 18.3203 16.9471C18.3118 16.9147 18.2978 16.8805 18.2971 16.8428C18.2938 16.8055 18.2898 16.7662 18.297 16.7269C18.2997 16.7072 18.3008 16.6869 18.3056 16.6674L18.3228 16.6098C18.3334 16.5706 18.3546 16.5368 18.3715 16.5015C18.3932 16.4699 18.4126 16.4366 18.4375 16.4106C18.461 16.3829 18.4857 16.3583 18.511 16.3375C18.5349 16.3153 18.5616 16.2993 18.5847 16.2832C18.68 16.2221 18.7563 16.2098 18.7563 16.2098Z" fill="#C6C6C6"/>
<path d="M19.5069 17.7449C19.5069 17.7449 19.4356 17.7448 19.3284 17.7446C19.3025 17.7463 19.2751 17.7457 19.2464 17.7483C19.2177 17.7492 19.1882 17.7522 19.1582 17.7557C19.1278 17.7572 19.0981 17.7657 19.0674 17.7689C19.0383 17.7784 19.0064 17.7803 18.9787 17.7927L18.9352 17.8068L18.8944 17.8254C18.8662 17.836 18.842 17.8526 18.8169 17.8673C18.7904 17.8799 18.7707 17.9008 18.7479 17.9164C18.7244 17.9315 18.7062 17.951 18.6876 17.9681C18.6706 17.9862 18.6495 17.9998 18.6369 18.0167C18.6235 18.0328 18.6101 18.0462 18.5992 18.0579C18.577 18.0808 18.5625 18.0941 18.5625 18.0941C18.5625 18.0941 18.5638 18.0757 18.5692 18.0433C18.5721 18.0273 18.5754 18.0073 18.5811 17.985C18.5847 17.9615 18.5974 17.9389 18.609 17.9125C18.6211 17.8864 18.633 17.8565 18.6549 17.8308C18.6758 17.8045 18.6951 17.7731 18.725 17.7502C18.753 17.7253 18.7825 17.6987 18.8184 17.6813C18.8358 17.6719 18.8529 17.6608 18.8713 17.6531L18.9281 17.6326C18.9658 17.6181 19.0057 17.6151 19.0441 17.6079C19.0825 17.6065 19.1206 17.6025 19.1566 17.6071C19.1929 17.6095 19.2271 17.6149 19.2589 17.623C19.2908 17.629 19.3195 17.6411 19.3462 17.6502C19.4519 17.6909 19.5069 17.7449 19.5069 17.7449Z" fill="#C6C6C6"/>
</svg>
