<svg width="24" height="24" viewBox="0 0 24 24" fill="none" xmlns="http://www.w3.org/2000/svg">
<circle cx="12" cy="12" r="12" fill="#E8AF2E"/>
<path d="M15.7923 4.32121L3.59961 11.5968L7.0957 17.4557L19.2884 10.1801L15.7923 4.32121Z" fill="#8BC543" stroke="#006738" stroke-width="0.645451" stroke-miterlimit="10"/>
<path d="M13.7992 9.48382C14.5743 10.783 14.1499 12.4646 12.8507 13.24C11.5514 14.0152 9.86956 13.5904 9.09443 12.2914C8.31917 10.9923 8.74392 9.31065 10.0433 8.53518C11.3423 7.76005 13.0238 8.18466 13.7992 9.48382Z" fill="#006738"/>
<path d="M3.60156 11.5961L4.53072 13.1534C5.39078 12.6402 5.67214 11.5268 5.15862 10.6669L3.60156 11.5961Z" fill="#006738"/>
<path d="M11.5653 9.96186C11.4433 9.79268 11.225 9.8018 10.9098 9.98999C10.5938 10.1786 10.486 10.3571 10.5864 10.5258C10.648 10.6289 10.7434 10.6732 10.8729 10.6589C11.0028 10.6446 11.239 10.5757 11.5819 10.4507C11.9248 10.326 12.2096 10.2896 12.4363 10.3419C12.6632 10.394 12.8428 10.5308 12.9751 10.7525C13.1294 11.0109 13.1329 11.2796 12.9856 11.5583C12.8386 11.8368 12.6158 12.0652 12.3176 12.2431C11.5968 12.6732 11.0214 12.6424 10.5915 12.1503L11.1592 11.7461C11.376 12.0094 11.6756 12.0268 12.0576 11.799C12.4156 11.5853 12.5223 11.3573 12.3774 11.1147C12.3134 11.0071 12.2222 10.9528 12.1037 10.9521C11.9858 10.9514 11.7473 11.0153 11.3892 11.1443C11.0309 11.273 10.7421 11.3156 10.5226 11.272C10.3037 11.228 10.1367 11.1106 10.0225 10.9187C9.89939 10.713 9.88718 10.484 9.98542 10.232C10.0834 9.98045 10.3071 9.75028 10.6568 9.54164C11.3489 9.12849 11.8489 9.14145 12.1559 9.58006L11.5653 9.96186Z" fill="#8BC543"/>
<path d="M10.6913 8.89561L10.123 9.23474L10.4316 9.75177L10.9998 9.41263L10.6913 8.89561Z" fill="#8BC543"/>
<path d="M12.5331 11.9791L11.9648 12.3183L12.2735 12.8354L12.8417 12.4962L12.5331 11.9791Z" fill="#8BC543"/>
<path d="M7.04257 17.3623L8.59997 16.433C8.08671 15.5728 6.97349 15.2917 6.11328 15.8051L7.04257 17.3623Z" fill="#006738"/>
<path d="M19.2356 10.0861L18.3061 8.52887C17.4461 9.04192 17.1651 10.1552 17.6785 11.0154L19.2356 10.0861Z" fill="#006738"/>
<path d="M15.7954 4.32001L14.2383 5.24923C14.7516 6.10923 15.8648 6.39045 16.7248 5.87719L15.7954 4.32001Z" fill="#006738"/>
<path d="M8.07114 12.9017C8.24623 13.195 8.15045 13.5747 7.85702 13.7495C7.56399 13.9244 7.18438 13.8288 7.00936 13.5355C6.83428 13.2422 6.93026 12.8625 7.22335 12.6876C7.51645 12.5127 7.89605 12.6087 8.07114 12.9017Z" fill="#006738"/>
<path d="M15.8837 8.23974C16.0586 8.53297 15.9628 8.91244 15.6696 9.08746C15.3766 9.26248 14.9968 9.16656 14.8218 8.87354C14.6468 8.5801 14.7428 8.20063 15.036 8.02555C15.3293 7.85053 15.7087 7.94651 15.8837 8.23974Z" fill="#006738"/>
<path d="M20.1615 13.0977L7.033 18.5078L4.43359 12.1991L17.5616 6.78943L20.1615 13.0977Z" fill="#8BC543" stroke="#006738" stroke-width="0.645451" stroke-miterlimit="10"/>
<path d="M14.8295 11.6049C15.4058 13.0036 14.7394 14.6049 13.3406 15.1814C11.9415 15.7577 10.3404 15.0911 9.76406 13.6922C9.18748 12.2935 9.85421 10.6922 11.2531 10.1159C12.6522 9.53956 14.2531 10.2061 14.8295 11.6049Z" fill="#006738"/>
<path d="M4.43359 12.1991L5.1244 13.8759C6.0504 13.4943 6.49176 12.4343 6.11023 11.5084L4.43359 12.1991Z" fill="#006738"/>
<path d="M12.5501 11.7501C12.4543 11.565 12.2372 11.5421 11.8978 11.682C11.5576 11.8222 11.4247 11.983 11.4996 12.1644C11.5452 12.2755 11.633 12.3335 11.7633 12.3385C11.8937 12.3433 12.1377 12.3095 12.4949 12.2362C12.8527 12.1631 13.1396 12.1691 13.3561 12.254C13.5727 12.3388 13.7304 12.5005 13.829 12.7392C13.9435 13.0174 13.9076 13.2838 13.7212 13.5378C13.5352 13.7917 13.2809 13.985 12.9601 14.1171C12.1839 14.4369 11.6194 14.322 11.266 13.7722L11.8869 13.4557C12.0631 13.748 12.3568 13.8093 12.7682 13.6399C13.1533 13.4811 13.2923 13.271 13.1848 13.0099C13.1373 12.894 13.0548 12.8269 12.9377 12.809C12.8212 12.7908 12.5759 12.8193 12.2026 12.8942C11.8296 12.9688 11.5374 12.9689 11.3268 12.8934C11.1166 12.8179 10.9687 12.6772 10.8835 12.4708C10.7922 12.2491 10.8138 12.0207 10.948 11.7859C11.0815 11.5514 11.3369 11.3566 11.7132 11.2016C12.4586 10.8943 12.951 10.9804 13.1903 11.4592L12.5501 11.7501Z" fill="#8BC543"/>
<path d="M11.8404 10.5695L11.2285 10.8216L11.4578 11.3782L12.0697 11.1261L11.8404 10.5695Z" fill="#8BC543"/>
<path d="M13.2097 13.8871L12.5977 14.139L12.8268 14.6958L13.4389 14.4439L13.2097 13.8871Z" fill="#8BC543"/>
<path d="M6.99166 18.4076L8.6685 17.7166C8.28684 16.7906 7.22678 16.349 6.30078 16.7309L6.99166 18.4076Z" fill="#006738"/>
<path d="M20.1204 12.9978L19.4297 11.3209C18.5039 11.7026 18.0622 12.7626 18.444 13.6886L20.1204 12.9978Z" fill="#006738"/>
<path d="M17.5614 6.78943L15.8848 7.48031C16.2664 8.40631 17.3264 8.84759 18.2526 8.46586L17.5614 6.78943Z" fill="#006738"/>
<path d="M8.66256 14.1461C8.79264 14.462 8.64225 14.8233 8.32645 14.9533C8.01106 15.0834 7.64943 14.9332 7.51948 14.6173C7.38933 14.3017 7.53979 13.9399 7.85546 13.8099C8.17133 13.6798 8.53248 13.8304 8.66256 14.1461Z" fill="#006738"/>
<path d="M17.0749 10.6798C17.2049 10.9956 17.0545 11.3569 16.7389 11.487C16.4234 11.6171 16.0616 11.4668 15.9315 11.1512C15.8014 10.8354 15.9522 10.4737 16.2679 10.3435C16.5835 10.2137 16.9447 10.3641 17.0749 10.6798Z" fill="#006738"/>
<path d="M19.0059 9.69846L5.20703 13.0495L6.81724 19.68L20.6161 16.329L19.0059 9.69846Z" fill="#8BC543" stroke="#006738" stroke-width="0.645451" stroke-miterlimit="10"/>
<path d="M15.5722 14.0423C15.929 15.5126 15.0266 16.9938 13.5565 17.3511C12.0865 17.7079 10.6049 16.8056 10.2478 15.3354C9.89107 13.8652 10.7933 12.3839 12.2637 12.0269C13.7339 11.6699 15.215 12.5723 15.5722 14.0423Z" fill="#006738"/>
<path d="M5.20508 13.049L5.63285 14.8113C6.60632 14.5749 7.20376 13.5944 6.96727 12.6211L5.20508 13.049Z" fill="#006738"/>
<path d="M13.2954 13.8395C13.2289 13.6417 13.0177 13.5861 12.661 13.6727C12.3034 13.7595 12.1478 13.8984 12.194 14.0891C12.2224 14.2056 12.3003 14.2766 12.4284 14.3011C12.5564 14.3257 12.8026 14.3295 13.167 14.3112C13.5315 14.2934 13.8142 14.3427 14.0154 14.4599C14.2167 14.5767 14.3481 14.7604 14.4089 15.0111C14.4798 15.3036 14.4038 15.5615 14.1808 15.784C13.9585 16.007 13.6782 16.159 13.3406 16.2411C12.525 16.4391 11.9844 16.2399 11.7187 15.6426L12.3805 15.4242C12.51 15.7398 12.7912 15.8449 13.2234 15.7402C13.6287 15.6416 13.7977 15.4553 13.731 15.1805C13.7015 15.059 13.6307 14.9801 13.5174 14.9447C13.4049 14.909 13.1582 14.8997 12.778 14.9173C12.398 14.9342 12.1092 14.8898 11.9126 14.7834C11.7164 14.6765 11.5916 14.5149 11.5389 14.2982C11.4824 14.0652 11.5382 13.8426 11.7062 13.631C11.8742 13.4194 12.1561 13.2656 12.5516 13.1697C13.3351 12.9796 13.8088 13.1393 13.9726 13.6491L13.2954 13.8395Z" fill="#8BC543"/>
<path d="M12.7778 12.5654L12.1348 12.7213L12.2766 13.3066L12.9197 13.1507L12.7778 12.5654Z" fill="#8BC543"/>
<path d="M13.6198 16.0522L12.9766 16.2081L13.1184 16.7932L13.7617 16.6372L13.6198 16.0522Z" fill="#8BC543"/>
<path d="M6.78937 19.5741L8.55142 19.1464C8.31507 18.1729 7.33467 17.5756 6.36133 17.8121L6.78937 19.5741Z" fill="#006738"/>
<path d="M20.5872 16.2236L20.1595 14.4612C19.1863 14.6975 18.5888 15.6781 18.825 16.6516L20.5872 16.2236Z" fill="#006738"/>
<path d="M19.0026 9.69836L17.2402 10.1265C17.4767 11.0995 18.4573 11.697 19.4305 11.4606L19.0026 9.69836Z" fill="#006738"/>
<path d="M9.09026 15.6165C9.1706 15.9485 8.96704 16.2827 8.63505 16.3632C8.30374 16.4438 7.96907 16.2403 7.88873 15.9083C7.80805 15.5765 8.01182 15.2422 8.34367 15.1614C8.67553 15.0808 9.00965 15.2848 9.09026 15.6165Z" fill="#006738"/>
<path d="M17.9306 13.4696C18.011 13.8015 17.8074 14.1357 17.4754 14.2162C17.1438 14.297 16.8094 14.0935 16.7285 13.7614C16.648 13.4298 16.8519 13.0953 17.1836 13.0144C17.5155 12.9341 17.8499 13.1378 17.9306 13.4696Z" fill="#006738"/>
</svg>
