<svg width="25" height="24" viewBox="0 0 25 24" fill="none" xmlns="http://www.w3.org/2000/svg">
<path d="M15.5002 7.00003L9.00019 13.5C8.60237 13.8979 8.37887 14.4374 8.37887 15C8.37887 15.5626 8.60237 16.1022 9.00019 16.5C9.39802 16.8979 9.93758 17.1213 10.5002 17.1213C11.0628 17.1213 11.6024 16.8979 12.0002 16.5L18.5002 10C19.2958 9.20438 19.7428 8.12524 19.7428 7.00003C19.7428 5.87481 19.2958 4.79568 18.5002 4.00003C17.7045 3.20438 16.6254 2.75739 15.5002 2.75739C14.375 2.75739 13.2958 3.20438 12.5002 4.00003L6.00019 10.5C4.80672 11.6935 4.13623 13.3122 4.13623 15C4.13623 16.6879 4.80672 18.3066 6.00019 19.5C7.19367 20.6935 8.81236 21.364 10.5002 21.364C12.188 21.364 13.8067 20.6935 15.0002 19.5L21.5002 13" stroke="#FDFDFD" stroke-width="2" stroke-linecap="round" stroke-linejoin="round"/>
</svg>
