<svg width="21" height="20" viewBox="0 0 21 20" fill="none" xmlns="http://www.w3.org/2000/svg">
<path d="M18.436 14.4836C18.3549 14.6871 18.1996 14.8488 18.0041 14.9334C17.908 14.976 17.8047 14.9987 17.7002 15H13.7014C13.4893 15 13.2859 14.9122 13.1359 14.756C12.9859 14.5998 12.9016 14.388 12.9016 14.1671C12.9016 13.9462 12.9859 13.7343 13.1359 13.5781C13.2859 13.4219 13.4893 13.3341 13.7014 13.3341H15.7728L11.3021 8.67805L8.67085 11.4267C8.5965 11.5048 8.50805 11.5668 8.41059 11.609C8.31313 11.6513 8.20859 11.6731 8.10301 11.6731C7.99744 11.6731 7.8929 11.6513 7.79544 11.609C7.69798 11.5668 7.60953 11.5048 7.53518 11.4267L2.73657 6.42914C2.66161 6.35171 2.60211 6.25959 2.56151 6.15809C2.5209 6.05659 2.5 5.94772 2.5 5.83776C2.5 5.7278 2.5209 5.61893 2.56151 5.51744C2.60211 5.41593 2.66161 5.32381 2.73657 5.24638C2.81092 5.16831 2.89937 5.10634 2.99683 5.06406C3.09429 5.02177 3.19883 5 3.30441 5C3.40998 5 3.51452 5.02177 3.61198 5.06406C3.70944 5.10634 3.79789 5.16831 3.87224 5.24638L8.10301 9.66091L10.7343 6.91224C10.8086 6.83417 10.8971 6.77221 10.9945 6.72992C11.092 6.68763 11.1965 6.66586 11.3021 6.66586C11.4077 6.66586 11.5122 6.68763 11.6097 6.72992C11.7071 6.77221 11.7956 6.83417 11.8699 6.91224L16.9005 12.1597V10.0024C16.9005 9.78151 16.9847 9.56965 17.1347 9.41344C17.2847 9.25724 17.4881 9.16948 17.7002 9.16948C17.9123 9.16948 18.1158 9.25724 18.2658 9.41344C18.4157 9.56965 18.5 9.78151 18.5 10.0024V14.1671C18.4987 14.2759 18.477 14.3834 18.436 14.4836Z" fill="#FF3B30"/>
</svg>
