<svg width="21" height="20" viewBox="0 0 21 20" fill="none" xmlns="http://www.w3.org/2000/svg">
<path d="M18.436 5.51667C18.3549 5.31304 18.1996 5.15123 18.0041 5.06667C17.908 5.02397 17.8047 5.00132 17.7002 5H13.7014C13.4893 5 13.2859 5.0878 13.1359 5.24408C12.9859 5.40036 12.9016 5.61232 12.9016 5.83333C12.9016 6.05435 12.9859 6.26631 13.1359 6.42259C13.2859 6.57887 13.4893 6.66667 13.7014 6.66667H15.7728L11.3021 11.325L8.67085 8.575C8.5965 8.49689 8.50805 8.4349 8.41059 8.39259C8.31313 8.35028 8.20859 8.3285 8.10301 8.3285C7.99744 8.3285 7.8929 8.35028 7.79544 8.39259C7.69798 8.4349 7.60953 8.49689 7.53518 8.575L2.73657 13.575C2.66161 13.6525 2.60211 13.7446 2.56151 13.8462C2.5209 13.9477 2.5 14.0567 2.5 14.1667C2.5 14.2767 2.5209 14.3856 2.56151 14.4871C2.60211 14.5887 2.66161 14.6809 2.73657 14.7583C2.81092 14.8364 2.89937 14.8984 2.99683 14.9407C3.09429 14.9831 3.19883 15.0048 3.30441 15.0048C3.40998 15.0048 3.51452 14.9831 3.61198 14.9407C3.70944 14.8984 3.79789 14.8364 3.87224 14.7583L8.10301 10.3417L10.7343 13.0917C10.8086 13.1698 10.8971 13.2318 10.9945 13.2741C11.092 13.3164 11.1965 13.3382 11.3021 13.3382C11.4077 13.3382 11.5122 13.3164 11.6097 13.2741C11.7071 13.2318 11.7956 13.1698 11.8699 13.0917L16.9005 7.84167V10C16.9005 10.221 16.9847 10.433 17.1347 10.5893C17.2847 10.7455 17.4881 10.8333 17.7002 10.8333C17.9123 10.8333 18.1158 10.7455 18.2658 10.5893C18.4157 10.433 18.5 10.221 18.5 10V5.83333C18.4987 5.72444 18.477 5.61685 18.436 5.51667Z" fill="#41FDA9"/>
</svg>
