<svg width="46" height="46" viewBox="0 0 46 46" fill="none" xmlns="http://www.w3.org/2000/svg">
<path d="M28.75 15.3333H28.7692M5.75 30.6667L15.3333 21.0834C17.112 19.3718 19.3047 19.3718 21.0833 21.0834L30.6667 30.6667M26.8333 26.8334L28.75 24.9167C30.5287 23.2051 32.7213 23.2051 34.5 24.9167L40.25 30.6667M5.75 11.5C5.75 9.97501 6.3558 8.51247 7.43414 7.43414C8.51247 6.3558 9.97501 5.75 11.5 5.75H34.5C36.025 5.75 37.4875 6.3558 38.5659 7.43414C39.6442 8.51247 40.25 9.97501 40.25 11.5V34.5C40.25 36.025 39.6442 37.4875 38.5659 38.5659C37.4875 39.6442 36.025 40.25 34.5 40.25H11.5C9.97501 40.25 8.51247 39.6442 7.43414 38.5659C6.3558 37.4875 5.75 36.025 5.75 34.5V11.5Z" stroke="#FDFDFD" stroke-width="3.83333" stroke-linecap="round" stroke-linejoin="round"/>
</svg>
