<svg width="25" height="24" viewBox="0 0 25 24" fill="none" xmlns="http://www.w3.org/2000/svg">
<path d="M10.7507 3.19998C9.1864 3.56262 7.74761 4.33718 6.58358 5.44332C5.41954 6.54946 4.57264 7.94689 4.13072 9.49066C3.68881 11.0344 3.66798 12.6683 4.07039 14.2229C4.47279 15.7774 5.28378 17.196 6.41924 18.3314C7.5547 19.4669 8.97327 20.2779 10.5278 20.6803C12.0823 21.0827 13.7162 21.0619 15.26 20.62C16.8038 20.178 18.2012 19.3311 19.3074 18.1671C20.4135 17.0031 21.1881 15.5643 21.5507 14C21.5507 13.7348 21.4453 13.4804 21.2578 13.2929C21.0703 13.1053 20.8159 13 20.5507 13H16.7507C16.5689 13.699 16.2057 14.3376 15.6978 14.8511C15.1899 15.3646 14.5554 15.7348 13.8584 15.9243C13.1615 16.1138 12.4268 16.1159 11.7288 15.9302C11.0308 15.7446 10.3943 15.3778 9.88357 14.8671C9.37285 14.3564 9.00611 13.7198 8.82046 13.0219C8.63481 12.3239 8.63684 11.5892 8.82634 10.8923C9.01583 10.1953 9.38608 9.56078 9.8996 9.05289C10.4131 8.545 11.0517 8.18178 11.7507 7.99998V3.99998C11.7383 3.88151 11.7025 3.76668 11.6453 3.66215C11.5882 3.55763 11.5108 3.46548 11.4178 3.39107C11.3248 3.31665 11.2179 3.26144 11.1034 3.22864C10.9889 3.19584 10.869 3.1861 10.7507 3.19998Z" stroke="#485C53" stroke-width="1.75" stroke-linecap="round" stroke-linejoin="round"/>
<path d="M15.75 3.5C17.0197 3.94708 18.173 4.6733 19.1248 5.62516C20.0767 6.57702 20.8029 7.73028 21.25 9H16.75C16.4434 8.64095 16.109 8.30659 15.75 8V3.5Z" stroke="#485C53" stroke-width="1.75" stroke-linecap="round" stroke-linejoin="round"/>
</svg>
