<svg width="25" height="24" viewBox="0 0 25 24" fill="none" xmlns="http://www.w3.org/2000/svg">
<path d="M8.25 9H16.25" stroke="#485C53" stroke-width="1.75" stroke-linecap="round" stroke-linejoin="round"/>
<path d="M8.25 13H14.25" stroke="#485C53" stroke-width="1.75" stroke-linecap="round" stroke-linejoin="round"/>
<path d="M18.25 4C19.0456 4 19.8087 4.31607 20.3713 4.87868C20.9339 5.44129 21.25 6.20435 21.25 7V15C21.25 15.7956 20.9339 16.5587 20.3713 17.1213C19.8087 17.6839 19.0456 18 18.25 18H13.25L8.25 21V18H6.25C5.45435 18 4.69129 17.6839 4.12868 17.1213C3.56607 16.5587 3.25 15.7956 3.25 15V7C3.25 6.20435 3.56607 5.44129 4.12868 4.87868C4.69129 4.31607 5.45435 4 6.25 4H18.25Z" stroke="#485C53" stroke-width="1.75" stroke-linecap="round" stroke-linejoin="round"/>
</svg>
